<svg xmlns="http://www.w3.org/2000/svg" viewBox="0 0 198 102" fill="none" stroke="currentColor" stroke-width="0.62" stroke-linejoin="round" stroke-linecap="round"><path d="M39.99 68.9L40.1 66.74M45.16 71.25L45.44 69.85M61.5 71.89L61.9 70.02M40.52 66.87L40.35 69.33M61.07 73.52L61.5 71.89M163.01 79.98L163.72 86.6M171.27 50.95L172.7 57.77M163.72 86.6L165.61 92.8M174.59 57.05L173.67 49.9M140.72 98.18L141.5 98.61M174.1 49.75L174.96 56.94M189.8 16.14L192.27 27.71M192.09 27.81L189.6 16.32M138.08 98.51L132.43 98.8M173.73 66.38L173.71 63.08M189.6 16.32L185.8 8.73M142.41 96.67L141.98 98.12M156.53 64.26L155.38 59.36M163.55 36.49L163.97 37.85M132.43 98.8L128.99 98.48M141.56 96.62L141.15 94.37M187.02 6.43L187.46 7.24M141.15 94.37L140.45 91.04M150.49 61.71L151.53 65.65M170.04 99.02L170.9 99.07M154.06 51.74L153.28 47.89M153.72 47.24L154.48 51.26M159.38 46.81L158.84 41.71M175.6 100.06L179.9 99.4M170.82 77.86L172.13 71.49M174.05 66.13L172.58 71.32M167.1 81.84L166.79 79.32M139.1 98.46L138.54 98.5M152.63 70.7L153.3 75.49M167.59 73.55L167.15 78.87M192.41 20.65L191.24 14.43M191.25 14.32L192.56 21.32M141.5 98.61L142.59 98.69M140.25 85.77L141.32 91.08M168.1 97.05L165.61 92.8M172.13 71.49L173.73 66.38M173.71 63.08L172.38 57.94M175.77 65.57L175.45 61.95M168.7 68.81L167.59 73.55M186.21 18.05L188.71 29.01M173.98 62.88L174.05 66.13M166.79 79.32L167.06 73.71M180.6 99.43L180.08 99.34M175.45 61.95L174.59 57.05M172.7 57.77L173.98 62.88M172.38 57.94L170.89 51.16M193.69 25.76L191.25 14.32M185.99 8.41L189.8 16.14M187.92 8.65L190.78 13.5M191.25 14.32L190.83 12.66M190.87 13.68L191.25 14.32M167 61.88L165.11 54.92M165.7 54.68L167.68 61.73M164.08 43.41L163.45 38.33M186.64 5.97L186.7 6.1M155.49 59.16L156.87 64.19M161.22 57.41L162.94 64.31M161.06 56.46L161.22 57.41M163.45 38.33L163.15 36.8M52.45 70.4L52.22 70.25M52.11 71.76L52.37 71.58M138.21 80.34L137.4 76.33M137.4 76.33L136.69 73.08M135.9 69.72L135.54 67.99M51.84 71.82L52.11 71.76M70.8 80.51L70.84 80.7M70.79 80.4L70.8 80.5M11.56 7.06L11.39 7.25M51.11 70.74L51.04 71M12.33 6.49L12.23 6.54M11.29 7.35L11.25 7.45M35.14 35.68L35.36 35.53M70.84 80.7L71 80.97M28.63 66.2L28.72 66.09M51.83 70.97L51.83 70.97M70.56 53.29L71.78 53.03M159.25 41.31L159.82 46.43M167.57 33.62L166.89 31.91M71.6 79.63L71.34 79.68M12.4 6.5L12.5 6.52M12.23 6.54L12.03 6.66M70.86 80.1L70.79 80.4M125.59 99.13L121.35 99.52M125.59 99.09L128.21 98.11M35.57 35L35.57 35.08M136.09 67.78L136.54 69.62M34.91 35.75L35.14 35.68M28.58 66.24L28.63 66.2M185.2 100.72L182.76 98.79M28.72 65.12L28.62 65.01M70.97 79.93L70.86 80.1M51.04 71L51.06 71.14M71 80.97L71.25 81.15M168.02 68.95L168.68 67.02M28.79 65.87L28.82 65.61M118.44 99.82L99 100.68M125.59 99.13L128.24 98.51M28.54 64.93L28.62 65.01M71.55 81.22L71.82 81.16M34.65 34.83L34.61 34.78M28.82 65.61L28.79 65.34M11.25 7.45L11.25 7.46M73.24 53.02L73.23 52.99M12.4 6.5L12.33 6.49M11.39 7.25L11.29 7.35M52.54 70.55L52.45 70.4M12.03 6.66L11.79 6.85M192.83 92.64L196.08 86.25M51.76 71.82L51.37 73.06M47.69 98.16L47.07 98.15M51.41 71.66L50.87 72.81M45.85 68.83L45.91 67.6M45.85 68.83L45.44 69.85M51.63 70.25L51.72 68.41M34.29 66.24L34.47 67.44M47.29 66.45L46.82 67.84M37.3 57.65L35.68 64.44M46.72 69.11L46.32 70.19M34.99 66.29L35.12 67.33M46.32 70.19L46.15 71.57M52.28 68.77L52.03 70.2M46.82 67.84L46.72 69.11M126.15 46.03L125.9 48.04M114.16 23.94L99 24.04M122.23 42.95L114.39 42.75M126.65 29L126.59 30.71M114.39 42.75L99 42.62M126.23 30.88L126.59 30.71M122.25 42.39L125.79 42.39M125.96 1.95L126.46 2.15M125.41 63.35L129.69 63.5M134.88 65.55L135.26 65.96M156.85 38.86L158.58 39.29M127.3 23.48L132.95 23.54M152.43 46.19L151.11 45.68M122.13 23.29L126.35 23.47M99 23.41L114.15 23.36M165.09 30.54L166.92 31.24M134.92 66.43L134.53 66.02M127.13 26.63L126.64 26.45M124.98 63.29L125.04 60.99M125.62 0.86L125.98 1.03M126.65 29L126.64 26.45M126.78 23.85L126.33 23.92M126.72 7.31L127.17 7.22M164.53 26.28L167.34 28.16M164.85 25.89L167.7 27.78M127.28 23.93L126.78 23.85M126.4 48.76L131.04 49.03M169.6 28.63L167.7 27.78M126.68 34.31L126.66 32.63M127.06 19.17L126.87 22.42M148.97 33.28L155.51 33.5M133.93 65.45L134.53 66.02M127.11 16.56L127.06 19.17M125.76 71.36L125.15 65.43M125.92 48.6L125.9 48.04M99 62.51L114.77 62.7M141.14 50L144.33 51M169.22 29.01L167.34 28.16M154.51 7.48L132.45 7.23M126.63 3.56L126.69 5.46M158.18 39.68L156.48 39.24M164.77 30.93L162.42 29.39M125.94 37.29L122.26 37.02M124.95 58.17L124.96 57.82M125.76 43.14L122.23 42.95M114.15 23.36L122.13 23.29M126.68 26.17L126.78 23.85M125.55 48.69L125.92 48.6M125.01 63.84L125.15 65.43M125.44 63.84L125.01 63.84M151.55 45.07L152.91 45.5M122.13 23.78L114.16 23.94M126.69 5.46L126.72 7.31M126.64 26.45L126.21 26.62M124.68 63.36L124.98 63.29M134.17 64.81L134.88 65.55M162.61 28.9L165.09 30.54M114.39 42.25L122.25 42.39M146.24 51.8L147.27 52.64M176.98 9.63L182.45 11.72M126.58 42.46L131.18 43.07M131.11 43.48L126.55 43.23M126.68 26.17L127.18 26.25M126.4 0.82L131.5 0.18M171.66 8.4L176.98 9.63M113.62 7.18L121.56 7.14M132.27 32.21L148.97 33.28M184.87 7.85L177.84 5.27M167.82 0.66L154.6 0.17M177.94 5.03L185.05 7.54M181.89 4.51L178.94 3.19M122.43 0.55L125.62 0.86M159.73 34.65L155.1 34.09M186.26 5.72L184.56 4.77M184.2 4.52L184.22 4.53M154.61 0L131.5 0.18M132.07 2.92L127.03 3M125.96 1.95L121 1.4M126.21 26.62L122.12 27.29M114.2 32.63L99 33.11M99 42.16L114.39 42.25M126.33 23.92L122.13 23.78M121.56 7.14L126.24 7.21M114.17 27.22L122.12 26.8M99 32.48L114.19 32.01M132.75 26.69L150.65 27.88M119.54 36.38L122.25 36.4M122.25 36.4L125.96 36.59M127.07 1.85L131.45 0.84M127.54 26.24L132.75 26.69M122.12 26.8L126.25 26.27M151.95 25.21L132.93 23.95M132.03 2.71L154.43 2.87M132.73 27.15L127.13 26.63M122.37 31.89L114.2 32.63M99 7.19L113.62 7.18M127.17 7.22L132.45 7.23M132.93 23.95L127.28 23.93M150.45 28.33L132.73 27.15M154.13 0.66L166.65 1.16M113.36 2.8L98.98 2.98M131.6 1.26L154.13 0.66M114.4 36.73L110.66 36.69M131.53 37.61L126.78 37.33M127.03 2.8L132.03 2.71M132.95 23.54L152.12 24.77M166.24 3.6L154.46 3.13M122.26 37.02L114.4 36.73M126.81 36.64L131.62 36.94M131.45 0.84L154.6 0.17M99 27.5L114.17 27.22M122.12 27.29L114.17 27.73M99.65 0.69L98.95 0.69M154.46 3.13L132.07 2.92M114.4 0.53L122.43 0.55M172.34 3.9L177.94 5.03M98.94 0.18L112.93 0.35M167.54 0.07L154.61 0M98.97 2.77L113.33 2.6M114.19 32.01L122.49 31.27M121.24 2.7L126.1 2.77M114.17 27.73L99 28.02M148.69 33.85L132.17 32.85M163.47 34.88L163.22 35.12M124.98 63.29L125.41 63.35M186.67 6.06L186.67 6.23M125.01 63.84L124.98 63.29M159.14 38.93L158.95 39.25M124.7 63.85L125.01 63.84M136.81 64.64L135.36 66.02M149.95 49.75L148.21 51.66M135.36 66.02L134.92 66.43M158.49 39.99L158.55 39.63M152.75 46.5L152.81 46.05M169.56 29.02L167.82 30.72M176.45 20.56L173.03 25.1M160.31 37.83L159.14 38.93M182.9 11.99L183.24 12.39M186.35 5.58L186.64 5.97M127.15 16.2L127.1 15.91M153.33 45.33L153.24 45.81M152.81 46.05L149.95 49.75M169.97 28.96L169.95 28.63M182.58 12.41L182.09 13.1M148.21 51.66L147.56 52.49M182.09 13.1L181 14.56M153.63 44.88L153.33 45.33M135.36 66.02L135.38 66.15M184.76 9.51L183.72 10.99M186.48 6.7L186.38 6.94M169.95 28.63L169.56 29.02M167.26 31.23L167.27 31.55M186.38 6.94L186.07 7.31M186.47 6.61L186.44 6.64M161.77 36.42L160.31 37.83M176.52 19.88L173.86 18.5M173.86 18.5L169.5 17.04M154.14 16.54L132.95 16.51M169.59 29.34L169.56 29.02M166.89 31.91L166.87 31.61M185.58 7.89L185.99 8.41M158.55 39.63L157.04 41.11M173.03 25.1L170.37 28.2M140.35 60.68L139.32 62.14M138.59 63.06L136.81 64.64M127.15 16.2L127.11 16.56M182.9 11.99L182.58 12.41M157.04 41.11L153.63 44.88M170.37 28.2L169.95 28.63M147.56 52.49L147.47 52.91M183.72 10.99L182.9 11.99M185.8 8.73L185.39 8.2M185.39 8.2L184.76 9.51M186.07 7.31L185.58 7.89M126.6 16.19L127.15 16.2M127.6 16.24L127.15 16.2M154.14 16.54L164.45 16.52M186.72 6.83L186.48 6.7M167.82 30.72L167.26 31.23M121.97 16.07L126.6 16.19M132.95 16.51L127.6 16.24M126.13 42.98L125.76 43.14M125.79 42.39L126.17 42.34M126.35 37.16L125.94 37.29M125.92 48.6L126.4 48.76M126.57 31.04L126.66 32.63M126.89 9.36L127.05 11.59M126.78 8.03L126.89 9.36M126.8 23.37L127.3 23.48M127.05 11.59L127.07 13.97M126.21 42.18L126.17 42.34M125.96 36.59L126.37 36.44M126.8 23.37L126.87 22.42M126.35 37.16L126.28 39.51M126.78 37.33L126.35 37.16M126.54 2.41L126.46 2.15M126.84 31.09L126.76 31.02M126.72 7.31L126.78 8.03M126.4 36.08L126.68 34.31M126.93 1.94L127.07 1.85M126.17 42.34L126.58 42.46M126.55 43.23L126.13 42.98M126.35 23.47L126.8 23.37M126.24 7.21L126.72 7.31M126.28 39.51L126.21 42.18M126.6 3.14L126.1 2.97M126.13 42.98L126.15 46.03M126.19 1.89L126.64 2.06M126.78 23.85L126.8 23.37M127.03 3L126.6 3.14M126.1 2.77L126.6 2.94M126.54 2.41L126.6 2.94M126.6 2.94L127.03 2.8M125.98 1.03L126.4 0.82M127.1 15.91L127.07 13.97M124.99 59.07L125.04 60.99M126.37 36.44L126.4 36.08M126.37 36.44L126.81 36.64M126.63 3.56L126.6 3.14M126.13 1.88L125.98 1.03M70.82 6.98L71.27 7.06M71.34 32.28L71.32 34.2M70.9 1.67L71.04 1.76M39.42 39.29L41.15 38.86M30.66 28.16L33.47 26.28M42.49 33.5L49.03 33.28M72.21 42.39L75.75 42.39M63.05 65.65L63.81 64.85M71.27 7.06L71.74 6.96M71.1 9.11L71.21 7.77M70.94 19.17L70.89 16.5M53.67 51L56.86 50M70.95 2.61L71.38 2.74M71.36 26.45L71.35 28.99M35.58 29.39L33.23 30.93M68.31 63.5L72.59 63.35M62.64 66.1L63.05 65.65M71.6 36.08L71.63 36.44M70.93 13.82L70.95 11.36M71.52 1.96L71.44 2.22M70.82 26.25L71.32 26.17M71.67 23.92L71.22 23.85M71.41 30.53L71.35 28.99M71.22 23.85L70.72 23.93M71.13 22.42L70.94 19.17M71.99 0.86L71.85 1.7M72.1 48.04L72.08 48.6M71.38 2.94L71.35 3.36M71.29 5.23L71.35 3.36M72.1 48.04L71.85 46.03M71.79 26.62L71.36 26.45M72.99 63.84L72.56 63.84M72.85 65.43L72.22 71.7M71.38 2.74L71.88 2.57M71.99 0.86L72.36 0.68M73.04 57.82L73.05 58.17M73.02 63.29L73.32 63.36M71.88 2.77L71.38 2.94M70.93 13.82L70.9 15.83M71.27 7.06L71.29 5.23M72.08 48.6L72.45 48.69M41.52 39.24L39.82 39.68M32.91 30.54L35.39 28.9M46.89 45.68L45.57 46.19M30.3 27.78L33.15 25.89M72.85 65.43L72.99 63.84M75.77 42.95L72.24 43.14M71.52 1.96L72.02 1.76M66.96 49.03L71.6 48.76M45.09 45.5L46.45 45.07M30.3 27.78L28.4 28.63M71.22 23.85L71.32 26.17M72.96 60.99L73.02 63.29M75.74 37.02L72.06 37.29M71.34 1.88L71.79 1.7M71.58 0.66L71.99 0.86M71.32 34.2L71.6 36.08M70.95 11.36L71.1 9.11M71.36 26.45L70.87 26.63M30.66 28.16L28.78 29.01M63.41 66.11L64.04 65.49M71.38 2.74L71.44 2.22M83.23 62.7L99 62.51M71.38 2.94L70.95 2.8M71.22 37.33L66.47 37.61M15.54 11.72L21 9.8M98.98 2.98L84.61 2.6M99 24.04L83.84 23.94M70.87 26.63L65.27 27.15M98.94 0.69L98.95 0.69M83.83 27.22L99 27.5M66.38 36.94L71.19 36.64M65.54 7.04L43.49 7.67M75.88 27.29L71.79 26.62M83.61 42.25L99 42.16M99 33.11L83.8 32.63M72.36 0.68L75.55 0.33M43.38 0.27L30.43 0.58M83.81 32.01L99 32.48M75.51 31.09L83.81 32.01M74.76 30.88L75.51 31.09M50.73 52.64L51.76 51.8M83.6 36.73L75.74 37.02M75.75 42.39L83.61 42.25M31.08 31.24L32.91 30.54M83.61 42.75L75.77 42.95M72.04 36.59L75.75 36.4M98.95 0.69L98.17 0.69M84.64 2.4L98.97 2.77M76.97 1.14L72.02 1.76M76.71 2.65L71.88 2.77M84.38 6.96L99 7.19M71.88 2.57L76.74 2.44M66.53 0.75L70.9 1.67M71.74 6.96L76.42 6.87M65.05 23.54L70.7 23.48M75.87 23.29L83.85 23.36M75.75 36.4L78.46 36.38M85.01 0.22L98.94 0.18M99 42.62L83.61 42.75M43.39 0.45L66.53 0.75M83.85 23.36L99 23.41M65.96 2.58L70.95 2.61M43.86 0.93L66.38 1.16M83.8 32.63L75.63 31.75M66.48 0.09L71.58 0.66M65.54 7.04L70.82 6.98M65.91 2.79L43.54 3.41M75.55 0.33L83.62 0.37M76.42 6.87L84.38 6.96M71.45 43.23L66.89 43.48M43.57 3.15L65.96 2.58M99 28.02L83.83 27.73M83.83 27.73L75.88 27.29M65.25 26.69L70.46 26.24M75.88 26.8L71.75 26.27M71.65 23.47L75.87 23.29M70.72 23.93L65.07 23.95M63.41 66.11L62.99 66.56M75.88 26.8L83.83 27.22M93.88 0.65L93.95 0.65M87.34 36.69L83.6 36.73M45.88 24.77L65.05 23.54M83.84 23.94L75.87 23.78M70.95 2.8L65.91 2.79M66.48 0.09L43.38 0.27M75.87 23.78L71.67 23.92M71.42 42.46L66.82 43.07M12.32 96.79L11.82 101.28M43.39 0.45L30.16 1.17M65.83 32.84L49.31 33.85M20.97 20.35L19.35 23.22M11.6 101.19L11.82 101.28M47.35 27.88L65.25 26.69M14.71 63.98L15.23 60.08M83.51 48.36L99 48.17M20.32 6.16L13.27 8.34M16.03 98.67L17.69 100.06M13.78 4.76L13.8 4.74M17.69 100.06L17.19 100.05M72.56 63.84L68.27 64.28M65.07 23.95L46.05 25.21M39.51 39.99L39.16 41.71M13.08 82.81L13.51 76.38M30.43 33.62L28.9 39.17M20.21 5.9L25.78 4.8M54.32 43.89L59.95 43.44M72.45 48.69L75.9 48.63M17.19 32.33L19.35 23.22M12.32 96.79L12.67 92.12M11.82 101.28L12.19 101.03M13.51 76.38L13.97 69.83M28.48 38.88L30.03 33.29M31.87 4.25L43.54 3.41M65.73 32.2L69.54 30.9M75.63 31.75L73.28 31.11M56.86 50L66.96 49.03M21 9.8L26.33 8.75M68.27 64.28L64.04 65.49M31.31 1.58L43.86 0.93M66.89 43.48L54.59 44.43M76.23 63.79L73.3 63.85M63.81 64.85L68.31 63.5M12.88 87.53L13.08 82.81M73.32 63.36L76.26 62.96M42.9 34.09L38.15 34.46M46.45 45.07L49.74 44.67M13.8 4.74L13.76 4.77M50.1 45.22L46.89 45.68M13.74 4.77L13.51 4.9M13.97 69.83L14.71 63.98M65.27 27.15L47.55 28.33M15.79 55.24L15.23 60.08M17.69 100.06L18.15 100.26M12.67 92.12L12.88 87.53M45.85 39.08L41.52 39.24M16.3 47.72L15.79 55.24M11.6 101.19L10.49 100.84M44.28 47.24L44.76 45.81M45.25 46.5L44.72 47.89M49.03 33.28L65.73 32.2M13.1 8.09L20.21 5.9M99 63.3L83.19 63.51M33.23 30.93L31.46 31.61M69.44 98.05L69.45 97.95M38.15 34.46L36.44 34.81M15.81 98.41L16.03 98.67M38.75 41.31L39.11 39.61M33.36 42.94L33.88 37.62M19.07 3.71L13.44 5.92M11.74 5.83L13.44 4.98M15.83 3.9L19.06 2.32M15.74 98.14L17.37 98.09M42.79 87.15L43.99 80.72M57.87 85.75L58.78 80.65M5.04 89.64L4.55 83.43M22.22 61.83L23.04 56.94M22.74 77.13L22.54 83.06M69.83 93.57L70.25 90.46M22.69 70.95L22.74 77.13M29.15 68.81L28.48 66.96M49.01 56.57L49.91 54.06M17.92 95.85L16.83 96.73M61.73 68.04L62.27 66.86M56.83 91.05L56.15 94.36M17.57 95.76L19.61 92.64M4.55 83.43L5.02 76.62M22.13 77.02L22.17 70.89M4.95 92.48L1.81 86.32M69.41 98.35L69.01 98.48M7.47 46.68L6.78 55.4M20.1 92.91L17.92 95.85M69.45 97.95L69.79 98.11M3.91 92.45L7.42 95.28M58.83 85.74L57.7 91.01M21.06 88.48L21.9 82.86M20.82 96.6L23.79 93.78M69.45 97.95L69.48 97.42M69.76 98.51L69.41 98.35M5.21 92.71L4.95 92.48M28.03 28.96L27.19 30.78M69.59 95.62L69.83 93.57M69.41 98.35L69.44 98.05M71.3 83.19L71.47 81.2M65.25 98.64L69.02 98.11M58.78 80.65L59.55 76.81M59.73 80.6L58.83 85.74M22.17 70.89L21.84 65.48M71.63 79.64L71.73 78.47M62.27 66.86L62.52 66.3M22.54 83.06L21.65 88.76M25.8 37.16L27.59 31.13M69.59 95.62L69.48 97.42M62.73 67.16L62.3 68.21M43.99 80.72L44.42 75.99M30.35 100.28L31.79 99.85M21.65 88.76L20.1 92.91M21.84 65.48L22.22 61.83M56.15 94.36L55.65 96.66M7.45 95.35L3.49 92.41M28.41 29.34L27.59 31.13M7.32 95.03L5.7 93.62M30.93 61.88L29.52 63.76M17.37 98.09L20.82 96.6M49.91 54.06L50.53 52.91M69.02 98.11L69.45 97.95M30.03 33.29L30.73 31.55M71.3 83.19L70.25 90.46M62.99 66.56L62.73 67.16M25.35 36.88L27.19 30.78M5.04 89.64L7.28 94.93M11.79 18.06L14.76 12.39M40.02 69.21L39.29 74.81M56.49 96.6L56.86 98.1M38.96 80.33L37.96 84.08M22.23 65.57L22.69 70.95M4.38 46.6L3.88 51.5M1.6 70.9L1.42 78.21M34.6 72.98L34.47 67.44M26.87 83.8L26.64 77.77M3.27 56.08L4.21 46.62M38.92 96.41L41.14 93.04M19.61 92.64L21.06 88.48M29.57 91.16L26.99 95.29M30.95 85.19L29.57 91.16M2.15 64.24L1.6 70.9M2.07 55.64L2.7 46.04M25.87 71.49L27.18 77.86M24.29 93.87L21.23 96.67M49.12 97.82L49.36 98.16M1.81 86.32L1.78 85.87M1.61 83.3L1.27 78.22M5.6 70.12L6.06 64.07M2.61 60.01L3.27 56.08M39.29 74.81L38.58 80.36M34.97 74.21L34.87 77.22M24.27 66.38L25.87 71.49M40.35 69.33L39.59 74.87M36.28 98.46L38.92 96.41M35.68 64.44L34.99 66.29M33.54 100.35L36.28 98.46M8.87 99.32L7.9 96.54M10.49 100.84L8.87 99.32M36.23 97.85L37.66 96.2M33.16 100.68L30.13 102M29.85 68.95L30.94 73.71M5.71 90L6.94 93.79M35.12 67.33L34.97 74.21M33.51 100.36L33.54 100.35M0 77.35L0.48 70.43M26.41 89.66L24.29 93.87M21.9 82.86L22.13 77.02M34.29 66.24L35.06 64.31M5.02 76.62L5.6 70.12M1.27 78.22L1.43 70.9M23.79 93.78L25.84 89.55M48.58 97.09L49.12 97.82M1.19 63.86L0.48 70.43M7.9 96.54L6.94 93.79M3.49 92.41L0.44 85.68M27.18 77.86L27.46 83.9M2.74 60.03L3.43 55.81M21.23 96.67L17.59 98.15M1.42 78.21L1.5 79.51M49.2 98.35L51.7 98.2M1.43 70.9L1.98 64.16M2.06 56.24L1.74 59.86M41.14 93.04L42.79 87.15M0.44 85.68L0 77.35M2.07 55.64L2.06 56.24M26.99 95.29L23.44 97.8M26.64 77.77L25.42 71.32M6.06 64.07L6.53 60M35.42 93.66L33.09 97.83M25.84 89.55L26.87 83.8M23.44 97.8L18.64 98.82M6.53 60L6.78 55.4M35.42 93.66L37.46 87.09M27.46 83.9L26.41 89.66M39.59 74.87L38.96 80.33M69.79 98.11L72.41 99.09M18.15 100.26L22.46 100.99M5.32 21.98L6.75 14.32M30.41 73.55L29.15 68.81M4.31 25.76L6.75 14.32M27.11 51.16L25.62 57.94M76.65 99.52L72.41 99.13M61.07 73.52L60.38 76.78M25.42 71.32L23.95 66.13M55.41 98.69L56.5 98.61M10.19 8.79L9.95 9.05M59.46 98.5L58.91 98.45M24.29 63.08L24.27 66.38M32.39 92.84L34.28 86.6M24.02 62.88L25.3 57.77M23.04 56.94L23.9 49.75M9.29 29.01L11.79 18.06M25.3 57.77L26.73 50.95M23.41 57.05L22.55 61.95M32.89 54.92L30.93 61.88M34.28 86.6L34.99 79.98M24.33 49.9L23.41 57.05M12.31 9.12L8.4 16.32M6.75 14.32L9.87 9.09M25.62 57.94L24.29 63.08M30.94 73.71L31.21 79.32M44.42 75.99L45.16 71.25M41.02 64.35L42.51 59.17M36.78 57.41L36.94 56.46M30.24 61.73L32.3 54.68M32.39 92.84L29.92 97.2M34.42 38.12L33.92 43.41M35.06 64.31L36.78 57.41M56.5 98.61L57.29 98.17M28.02 99.81L25.95 100.07M33.88 37.62L34.24 36.17M59.92 98.51L65.57 98.8M69.01 98.48L65.57 98.8M56.96 94.35L56.49 96.6M11.3 6.19L11.36 6.05M57.7 91.01L56.96 94.35M22.55 61.95L22.23 65.57M7.17 12.66L6.75 14.32M56.03 98.12L55.65 96.66M56.83 91.05L57.87 85.75M46.26 66.11L47.29 62.05M8.4 16.32L5.91 27.81M34.64 36.49L34.42 38.12M9.95 9.05L6.76 14.43M44.72 47.89L43.94 51.74M39.16 41.71L38.62 46.81M38.18 46.43L38.75 41.31M10.54 7.29L10.98 6.5M30.41 73.55L30.85 78.87M6.76 14.43L5.45 21.41M60.38 76.78L59.73 80.6M31.21 79.32L30.9 81.84M29.92 97.2L26.86 99.82M23.95 66.13L24.02 62.88M8.2 16.14L12.15 8.87M42.61 59.38L41.33 64.46M43.52 51.26L44.28 47.24M72.41 99.13L69.76 98.51M5.73 27.71L8.2 16.14M145.59 71.02L145.58 71.02M1.92 86.25L5.17 92.64M17.19 100.05L14.69 99.23M62.3 68.21L61.9 70.02M31.11 31.91L30.43 33.62M29.06 67.02L29.85 68.95M79.56 99.82L99 100.68M59.55 76.81L60.3 73.51M61.25 69.95L61.73 68.04M16.3 47.72L17.19 32.33M24.33 49.9L25.8 37.16M32.3 54.68L33.36 42.94M23.9 49.75L25.35 36.88M4.24 26.6L2.7 46.04M5.91 27.81L4.38 46.6M4.21 46.62L5.73 27.71M4.25 26.58L4.31 25.76M7.47 46.68L9.29 29.01M33.92 43.41L32.89 54.92M28.9 39.17L27.11 51.16M49.83 57.35L48.3 62.65M49.74 44.67L54.32 43.89M52 65.33L53.43 61.63M54.31 62.66L52.94 65.98M26.73 50.95L28.48 38.88M74.74 54.17L73.18 53.51M22.85 3.05L21.48 3.25M39.52 28.9L35.58 29.39M72.49 52.47L72.54 52.69M73.21 52.96L74.59 53.18M39.26 28.47L35.39 28.9M26.33 8.75L32.08 8.22M54.29 51.79L52.44 52.59M28.5 17.04L33.55 16.53M37.21 25.47L45.88 24.77M51.76 51.8L53.67 51M17.2 3.48L23.1 2.49M33.15 25.89L37.21 25.47M30.43 0.58L19.06 2.32M31.8 4.06L25.78 4.8M55.92 57.04L57.42 55.55M31.8 4.06L43.57 3.15M37.49 25.9L46.05 25.21M26 4.92L31.87 4.25M32.08 8.22L43.49 7.67M49.31 33.85L42.9 34.09M54.59 44.43L50.1 45.22M72.73 55.05L72.66 53.93M71.94 53.66L70.78 54.36M31.31 1.58L23.77 2.84M33.47 26.28L37.49 25.9M47.29 62.05L49.01 56.57M38.62 46.81L37.3 57.65M37.1 54.89L38.18 46.43M31.13 31.61L30.74 31.23M71.38 2.94L71.38 2.74M43.39 52.04L43.52 51.26M71.36 26.18L71.36 26.45M39.52 28.9L47.55 28.33M12.74 8.65L12.57 8.4M20.32 6.16L23.18 5.58M17.59 98.15L15.73 98.16M73.05 58.17L73.01 59.07M43.94 51.74L42.61 59.38M59.24 63.3L58.53 62.36M47.35 27.88L39.26 28.47M186.4 101.19L187.51 100.84M184.92 82.81L185.12 87.53M182.77 60.08L182.21 55.24M183.29 63.98L184.03 69.83M170.81 30.78L169.97 28.96M182.21 55.24L181.7 47.72M128.55 97.95L128.56 98.05M170.41 31.13L169.59 29.34M186.18 101.28L185.68 96.79M178.65 23.22L180.81 32.33M185.81 101.03L186.18 101.28M156.48 39.24L152.15 39.08M178.94 1.78L182.03 3.49M151.11 45.68L147.9 45.22M184.49 4.69L184.27 4.56M129.69 63.5L134.17 64.81M114.81 63.51L99 63.3M184.49 76.38L184.92 82.81M180.87 99.25L180.36 99.24M169.1 39.17L167.57 33.62M128.55 97.95L128.98 98.11M128.52 97.42L128.55 97.95M128.99 98.48L128.59 98.35M184.24 4.54L184.2 4.52M184.03 69.83L184.49 76.38M129.73 64.28L125.44 63.84M178.65 23.22L177.03 20.35M167.97 33.29L169.52 38.88M128.56 98.05L128.59 98.35M122.1 48.63L125.55 48.69M138.05 43.44L143.68 43.89M133.93 65.45L129.73 64.28M180.36 99.24L181.8 98.47M186.18 101.28L186.4 101.19M161.36 35.12L159.73 34.65M124.7 63.85L121.77 63.79M185.33 92.12L185.68 96.79M185.12 87.53L185.33 92.12M158.89 39.61L159.25 41.31M158.84 41.71L158.49 39.99M163.97 37.85L164.64 42.94M148.26 44.67L151.55 45.07M170.41 31.13L172.2 37.16M99 48.17L114.5 48.36M153.24 45.81L153.72 47.24M170.81 30.78L172.65 36.88M182.77 60.08L183.29 63.98M128.21 98.11L128.55 97.95M143.41 44.43L131.11 43.48M126.49 77.98L126.62 79.15M128.39 31.28L132.27 32.21M153.28 47.89L152.75 46.5M128.59 98.35L128.24 98.51M128.52 97.42L128.41 95.61M128.17 93.51L128.41 95.61M131.04 49.03L141.14 50M126.75 80.74L126.83 82.93M121.74 62.96L124.68 63.36M166.54 31.61L164.77 30.93M124.72 31.52L122.37 31.89M153.88 80.53L155.21 87.15M158.29 74.69L157.45 69.04M155.21 87.15L156.86 93.03M146.35 98.2L148.8 98.35M148.65 98.16L148.88 97.82M156.86 93.03L159.08 96.35M160.35 96.08L161.78 97.59M191.22 55.4L190.53 46.68M175.83 70.89L175.87 77.02M193.45 83.43L192.96 89.64M140.45 91.04L139.28 85.73M178.39 92.64L180.43 95.76M192.98 76.62L193.45 83.43M166.79 98.59L166.23 98.5M194.51 92.41L190.55 95.35M135.6 66.67L136.09 67.78M135.38 66.15L135.6 66.67M180.08 95.85L181.17 96.73M174.96 56.94L175.78 61.83M168.25 63.76L167 61.88M169.55 99.7L167.82 99.86M158.61 74.66L157.8 68.96M193.05 92.48L192.79 92.71M148.09 54.06L148.98 56.56M177.18 96.6L180.63 98.09M167.27 31.55L167.97 33.29M159.08 96.35L161.72 97.76M176.1 82.86L176.94 88.48M176.35 88.76L175.46 83.06M139.28 85.73L138.21 80.34M175.31 70.95L175.77 65.57M175.46 83.06L175.26 77.13M176.16 65.48L175.83 70.89M147.47 52.91L148.09 54.06M148.88 97.82L149.42 97.09M180.08 95.85L177.9 92.91M192.3 93.62L190.68 95.03M183.24 12.39L186.21 18.05M177.9 92.91L176.35 88.76M182.26 98.14L180.63 98.09M128.98 98.11L132.75 98.64M153.3 75.49L153.88 80.53M175.78 61.83L176.16 65.48M169.25 66.96L168.7 68.81M190.58 95.28L194.09 92.45M135.16 67L134.92 66.43M175.26 77.13L175.31 70.95M141.15 98.1L141.56 96.62M190.72 94.93L192.96 89.64M135.54 67.99L135.16 67M139.14 80.4L140.25 85.77M196.19 86.32L193.05 92.48M174.21 93.78L177.18 96.6M160.04 84.08L159.04 80.33M191.06 93.79L190.1 96.54M176.94 88.48L178.39 92.64M197.52 70.43L198 77.35M180.41 98.15L176.77 96.67M176.77 96.67L173.71 93.87M173.71 93.87L171.59 89.66M167.82 99.86L164.85 99.21M196.5 79.51L196.58 78.21M190.1 96.54L189.13 99.32M159.04 80.33L158.29 74.69M159.42 80.36L158.61 74.66M163.53 67.44L163.4 72.98M163.03 74.21L162.88 67.33M163.13 77.22L163.03 74.21M163.01 66.29L162.32 64.44M164.94 97.5L162.59 93.54M161.72 97.76L163.1 98.29M160.54 87.09L162.59 93.54M168.57 99.57L167.8 99.18M167.06 73.71L168.02 68.95M189.13 99.32L187.51 100.84M162.94 64.31L163.71 66.24M196.22 85.87L196.19 86.32M196.73 78.22L196.39 83.3M192.29 90L191.06 93.79M171.59 89.66L170.54 83.9M196.25 59.86L195.93 56.24M191.22 55.4L191.47 60M194.12 51.5L193.62 46.6M193.79 46.62L194.73 56.08M171.01 95.29L168.43 91.16M191.94 64.07L192.4 70.12M196.4 70.9L195.85 64.24M168.43 91.16L167.05 85.19M172.16 89.55L174.21 93.78M175.87 77.02L176.1 82.86M170.54 83.9L170.82 77.86M195.3 46.04L195.86 55.41M179.36 98.82L174.56 97.8M171.13 83.8L172.16 89.55M196.58 78.21L196.4 70.9M196.81 63.86L197.52 70.43M198 77.35L197.56 85.68M171.36 77.77L171.13 83.8M191.47 60L191.94 64.07M196.02 64.16L196.57 70.9M197.56 85.68L194.51 92.41M196.57 70.9L196.73 78.22M195.26 60.03L194.57 55.81M194.73 56.08L195.39 60.01M174.56 97.8L171.01 95.29M172.58 71.32L171.36 77.77M192.4 70.12L192.98 76.62M154.43 2.87L166.27 3.34M147.9 45.22L143.41 44.43M169.52 38.88L171.27 50.95M175.88 2.18L180.81 3.04M172.2 37.16L173.67 49.9M144.33 51L146.24 51.8M155.1 34.09L148.69 33.85M192.27 27.71L193.79 46.62M162.61 28.9L158.74 28.47M193.69 25.76L193.75 26.58M160.79 25.47L164.85 25.89M180.81 32.33L181.7 47.72M143.68 43.89L148.26 44.67M165.11 54.92L164.08 43.41M160.7 57.65L159.38 46.81M167.26 31.23L166.87 31.61M126.64 26.45L126.64 26.18M148.98 56.56L150.49 61.71M151.95 25.21L160.51 25.9M140.58 55.55L142.08 57.03M158.74 28.47L150.65 27.88M150.45 28.33L158.48 28.9M124.99 59.07L124.95 58.17M150.93 98.15L150.31 98.16M162.32 64.44L160.7 57.65M155.38 59.36L154.06 51.74M164.64 42.94L165.7 54.68M159.82 46.43L160.9 54.89M163.53 67.44L163.71 66.24M147.08 72.22L146.57 71.1M162.88 67.33L163.01 66.29M162.42 29.39L158.48 28.9M164.45 16.52L169.5 17.04M176.52 2.68L173.58 2.29M152.12 24.77L160.79 25.47M160.51 25.9L164.53 26.28M178.94 1.78L167.54 0.07M172.65 36.88L174.1 49.75M193.62 46.6L192.09 27.81M144.91 65.51L143.48 62.3M188.71 29.01L190.53 46.68M127.22 54.36L126.01 53.62M154.48 51.26L154.61 52.03M139.32 62.14L138.59 63.06M172.34 3.9L166.27 3.34M126.6 2.94L126.6 3.14M125.34 53.95L125.27 55.05M175.67 2.6L174.18 2.38M172.22 4.1L166.24 3.6M154.51 7.48L165.92 7.87M170.89 51.16L169.1 39.17M195.3 46.04L193.76 26.6M185.58 7.89L185.39 8.2M149.48 62.27L148.13 57.3M144.36 61.3L145.84 64.87M172.22 4.1L177.84 5.27M180.41 98.15L182.27 98.16M145.56 52.59L143.71 51.79M152.36 69.31L151.96 68.3M151.12 68.57L151.01 67.32M151.51 69.63L151.12 68.57M151.89 67.1L151.96 68.3M146.21 67.9L146.34 69.71M165.92 7.87L171.66 8.4M158.19 96.52L155.99 93.42M150.31 98.16L148.85 98.31M142.9 58.03L142.74 58.15M160.23 34.15L155.51 33.5M137.39 55.53L139.76 56.22M156.69 99.24L157.17 99.29M127.22 54.36L130.18 54.64M126.37 36.44L126.35 37.16M157.45 69.04L157.32 66.63M131.01 49.86L126.39 49.64M159.96 99.52L162.24 98.87M150.53 65.96L149.48 62.27M126.39 49.64L125.87 49.61M148.13 57.3L147.38 54.88M152.31 75.61L151.67 70.99M122.06 49.5L114.47 49.25M146.72 53.51L146.5 53.48M146.72 53.51L144.45 55.94M146.68 53.74L146.72 53.51M124.96 57.82L125.2 56M114.47 49.25L99 49.08M147.38 54.88L146.68 53.74M154.16 87.2L152.82 80.51M155.99 93.42L154.16 87.2M160.13 99.69L162.6 98.89M123.41 53.18L121.78 53.27M146.5 53.48L145.56 52.59M152.82 80.51L152.31 75.61M156.85 38.86L152.5 38.64M146.57 72.47L146.21 71.25M135.9 69.72L136.28 71.5M175.67 2.6L178.94 3.19M174.24 99.82L172.98 100.16M158.95 39.25L158.55 39.63M136.28 71.5L136.69 73.08M163.47 98.94L164.36 98.95M156.87 64.19L157.76 66.54M147.56 52.49L146.72 53.51M136.96 71.45L137.45 73.07M160.78 97.98L163.47 98.94M136.54 69.62L136.96 71.45M141.35 59.76L140.35 60.68M125.87 49.61L125.47 49.58M125.58 51.91L125.87 49.61M140.56 50.86L131.01 49.86M125.47 49.58L122.06 49.5M151.01 67.32L150.53 65.96M142.73 98.69L143.75 98.49M179.1 3.16L176.52 2.68M142.2 58.61L142.2 58.62M153.33 45.33L152.81 46.05M157.4 99.5L157.37 99.49M152.36 69.31L152.63 70.7M142.59 98.69L142.69 98.67M151.67 70.99L151.51 69.63M126.17 42.34L126.13 42.98M125.87 49.61L125.92 48.6M157.76 66.54L157.84 68.66M143.71 51.79L140.56 50.86M160.78 97.98L158.19 96.52M145.94 69.67L145.66 68.26M157.32 66.63L156.53 64.26M151.53 65.65L151.89 67.1M99 52.96L114.49 53.09M156.69 99.24L156.07 98.86M127.44 53.29L130.47 53.63M155.64 99.59L157.31 99.55M157.4 99.5L157.54 99.44M121.74 62.96L114.77 62.7M122.49 31.27L124.68 30.96M121.63 54.11L114.49 53.94M148.43 80.79L149.52 86.88M141.24 57.6L139.76 56.22M126.29 31.04L124.72 31.52M162.21 35.4L161.36 35.12M145.84 64.87L146.21 67.9M147.59 80.81L146.93 76.19M123.26 54.17L121.63 54.11M121.77 63.79L114.81 63.51M124.68 30.96L124.74 30.95M132.17 32.85L128.44 31.89M161.68 34.77L162.42 35.02M163.32 35.88L163.55 36.49M142.9 58.03L144.45 55.94M168.91 65.09L168.25 63.76M146.93 76.19L146.57 72.47M150.73 92.2L148.86 86.68M167.68 61.73L168.82 63.68M126.3 31.04L126.29 31.04M142.08 57.03L142.81 57.91M138.11 54.69L140.58 55.55M143.6 59.58L144.36 61.3M142.99 58.24L143.6 59.58M127.7 30.96L128.39 31.28M157.48 99.41L157.4 99.5M147.08 72.22L147.8 76.11M130.47 53.63L138.11 54.69M160.13 99.69L159.73 99.78M125.51 52.47L125.58 51.91M142.81 57.91L142.9 58.03M143.48 62.3L142.7 60.64M152.53 95.57L150.73 92.2M145.66 68.26L144.91 65.51M125.76 71.36L126.49 77.98M128.44 31.89L126.84 31.09M154.3 97.78L152.53 95.57M114.49 53.09L121.78 53.27M141.77 59.16L141.35 59.76M114.5 48.36L122.1 48.63M151.39 92.48L153.18 95.87M155.95 98.79L154.3 97.78M159.55 99.61L159.73 99.78M149.52 86.88L151.39 92.48M142.9 58.03L142.99 58.24M141.67 58.06L141.24 57.6M160.23 34.15L161.68 34.77M162.45 35.03L162.46 35.04M137.39 55.53L130.18 54.64M114.49 53.94L99 53.81M142.7 60.64L142.37 59.34M163.15 36.8L162.91 36.07M125.27 55.05L125.2 56M169.39 66.33L169.25 66.96M147.8 76.11L148.43 80.79M151.84 98.94L155.64 99.59M148.86 86.68L147.59 80.81M153.18 95.87L155.03 98.03M158.58 39.29L158.95 39.25M195.39 60.01L196.02 64.16M147.27 52.64L147.56 52.49M185.05 7.54L185.58 7.89M185.98 5.27L186.35 5.58M158.95 39.25L158.89 39.61M195.85 64.24L195.26 60.03M186.72 6.83L187.92 8.65M176.84 20.03L176.45 20.56M135.26 65.96L135.36 66.02M152.91 45.5L153.33 45.33M152.81 46.05L152.43 46.19M182.45 11.72L182.9 11.99M196.81 63.86L196.25 59.86M185.39 8.2L184.87 7.85M186.29 5.74L186.35 5.58M121 1.4L113.06 0.71M184.86 5.76L186.34 6.49M169.56 29.02L169.22 29.01M161.77 36.42L162.41 35.85M186.47 6.61L186.67 6.23M168.82 63.68L169.4 64.84M113.33 2.6L121.24 2.7M184.13 4.49L184.2 4.52M166.87 31.61L166.54 31.61M168.68 67.02L168.88 66.09M180.84 2.95L184.2 4.52M177.15 19.61L176.84 20.03M176.84 20.03L176.52 19.88M179.1 3.16L183.78 5.31M163.47 34.88L163.88 34.47M177.03 20.35L176.84 20.03M158.55 39.63L158.18 39.68M169.95 28.63L169.6 28.63M166.92 31.24L167.26 31.23M168.77 65.61L168.8 65.87M168.8 65.87L168.88 66.09M126.13 53.01L127.44 53.29M125.46 52.69L125.51 52.47M123.41 53.18L124.71 52.98M124.76 53.54L123.26 54.17M169.45 64.85L169.46 64.86M168.81 65.34L168.77 65.61M127.43 80.01L127.45 79.92M127.38 79.61L127.35 79.57M163.18 35.1L163.13 35.16M146.94 70.45L146.87 70.18M127 80.67L127.23 80.51M127.45 79.92L127.38 79.61M145.86 71.2L146.14 71.26M127.23 80.51L127.39 80.23M126.87 79.18L126.65 79.14M162.21 35.41L162.27 35.64M127.39 80.23L127.42 80.07M162.42 35.86L162.64 36.01M162.64 36.01L162.87 36.08M125.9 30.89L126 30.96M169.74 65.59L169.7 65.59M126 30.96L126.22 31.03M168.97 65.01L169.06 64.93M168.97 66.2L169.02 66.24M146.92 70.59L146.94 70.45M126.12 52.97L126.1 52.94M126.95 30.96L127.04 30.9M168.88 65.12L168.81 65.34M5.32 21.98L5.45 21.41M15.73 98.16L15.56 98.38M131.53 37.61L152.15 39.08M13.9 4.71L17.2 3.48M17 14.56L20.85 19.61M66.47 37.61L45.85 39.08M152.5 38.64L131.62 36.94M121.97 16.07L84.02 16.06M181.17 96.73L182.26 98.14M166.87 31.61L163.88 34.47M182.27 98.16L182.44 98.38M45.5 38.64L66.38 36.94M184.13 4.49L180.81 3.04M181 14.56L177.15 19.61M126.1 2.97L113.36 2.8M128.17 93.51L126.83 82.93M30.25 100.37L28.02 101.02M157.48 99.41L157.47 99.41M182.26 98.14L182.27 98.16M49.97 76.7L48.53 86.87M180.43 95.76L181.17 96.73M157.54 99.44L157.48 99.41M137.45 73.07L139.14 80.4M141.32 91.08L142.41 96.67M184.22 4.53L184.13 4.49M55.74 58.71L55.74 58.7M157.47 99.41L157.17 99.29M184.24 4.54L184.22 4.53M99.65 0.69L112.06 0.71M98.17 0.69L98.94 0.69M93.95 0.65L98.17 0.69M85.22 0.58L93.88 0.65M5.45 21.41L7.28 13.58M4.25 26.58L5.32 21.98M156.07 98.86L156.01 98.84M40.96 99.46L40.7 99.6M74.69 30.88L74.76 30.88M145.94 69.67L145.77 69.7M145.97 69.66L145.94 69.67M145.59 71.02L145.86 71.2M126.62 79.15L126.38 79.21M190.58 95.28L190.68 95.03M15.74 98.14L15.73 98.16M124.74 30.95L125.9 30.89M126.65 79.14L126.62 79.15M41.99 98.85L40.96 99.46M1.5 79.51L1.61 83.3M126.75 80.74L126.84 80.72M158.53 99.83L157.54 99.44M149.76 97.05L150.02 97.3M98.94 0.69L99.65 0.69M164.36 98.95L163.1 98.29M192.56 21.32L193.75 26.58M49.1 96.24L48.25 97.05M11.87 6.85L12.5 6.52M22.24 3.2L22.85 3.05M98.95 0.69L93.95 0.65M148.93 96.25L149.76 97.05M196.5 79.51L196.55 77.76M196.39 83.3L196.5 79.51M163.1 98.29L161.78 97.59M190.78 13.5L192.41 20.65M193.75 26.58L193.76 26.6M190.55 95.35L190.58 95.28M22.85 3.05L23.77 2.84M190.68 95.03L190.72 94.93M13.78 4.76L13.9 4.71M12.93 6.3L13.28 6.12M12.7 6.42L12.93 6.3M12.5 6.52L12.7 6.42M10.34 8.6L11.25 7.46M16.83 96.73L15.74 98.14M181.89 4.51L183.78 5.31M192.41 20.65L192.56 21.32M13.76 4.77L13.78 4.76M11.25 7.46L11.49 7.17M84.89 0.57L85.21 0.58M17.57 95.76L16.83 96.73M183.78 5.31L184.86 5.76M125.9 30.89L126.23 30.88M182.44 98.38L182.75 98.78M7.45 95.35L7.9 96.54M7.42 95.28L7.45 95.35M161.46 98.83L162.24 98.87M190.1 96.54L190.55 95.35M7.28 94.93L7.32 95.03M1.45 77.76L1.5 79.51M157.17 99.29L156.07 98.86M98.95 0.69L112.06 0.71M48.25 97.05L47.99 97.3M72.17 30.73L74.69 30.88M7.32 95.03L7.42 95.28M162.24 98.87L162.6 98.89M22.9 100.87L22.46 100.99M25.95 100.07L22.9 100.87M162.27 35.64L162.41 35.85M126.57 31.04L126.75 31.03M175.88 2.18L180.21 3.01M157.84 68.66L158.12 66.5M157.8 68.96L157.84 68.66M126.22 31.03L126.3 31.04M161.06 56.46L160.9 54.89M148.85 98.31L150.02 97.3M154.48 51L154.61 52.03M159.96 99.52L159.55 99.61M155.03 98.03L155.95 98.79M154.61 52.03L155.49 59.16M126.48 31.05L126.57 31.04M159.55 99.61L158.53 99.83M126.69 80.76L126.75 80.74M184.27 4.56L184.56 4.77M184.25 4.54L184.27 4.56M186.34 6.49L186.44 6.64M162.6 98.89L163.47 98.94M174.18 2.38L173.58 2.29M149.33 97.1L149.42 97.09M169.45 64.85L169.4 64.84M162.41 35.85L162.42 35.86M168.88 66.09L168.88 66.09M160.9 54.89L159.99 46.06M155.95 98.79L156.01 98.84M146.35 98.2L148.65 98.16M168.88 66.09L168.97 66.2M150.02 97.3L150.59 97.85M157.37 99.49L157.47 99.41M186.44 6.64L186.48 6.7M186.67 6.06L186.29 5.74M186.7 6.1L187.02 6.43M168.91 65.09L168.88 65.12M180.6 99.43L180.87 99.25M167.82 0.66L175.88 2.18M157.31 99.55L157.37 99.49M146.23 98.2L146.35 98.2M186.67 6.06L186.7 6.1M169.4 64.84L169.39 64.83M162.87 36.08L162.91 36.07M143.75 98.49L146.23 98.2M142.97 98.59L143.75 98.49M126.64 2.06L126.46 2.15M149.42 97.09L149.76 97.05M162.91 36.07L162.98 36.06M126.3 31.04L126.48 31.05M148.8 98.35L148.85 98.31M168.97 65.01L168.91 65.09M184.25 4.54L184.24 4.54M186.29 5.74L186.26 5.72M126.87 1.95L126.64 2.06M126.64 26.18L126.68 26.17M126.76 31.02L126.95 30.96M126.16 53.11L126.13 53.01M126.75 31.03L126.76 31.02M173.58 2.29L166.65 1.16M126.25 26.27L126.64 26.18M127.04 30.9L126.59 30.71M127.08 30.91L127.04 30.9M119.54 36.38L114.33 36.63M126.13 53.01L126.12 52.97M162.21 35.4L162.22 35.33M162.21 35.41L162.21 35.4M150.93 98.15L151.84 98.94M114.33 36.63L110.66 36.69M138.05 43.44L143.92 43.76M131.18 43.07L138.05 43.44M163.13 77.22L163.27 74.2M110.66 36.69L99 36.88M118.44 99.82L121.35 99.52M160.04 84.08L160.54 87.09M187.46 7.24L190.83 12.66M142.69 98.67L142.73 98.69M150.59 97.85L150.93 98.15M126.87 1.95L126.93 1.94M112.1 0.71L113.06 0.71M141.98 98.12L141.58 98.11M185.81 101.03L185.86 101.05M141.58 98.11L141.15 98.1M163.4 72.98L163.27 74.2M163.87 68.72L163.4 72.98M196.33 85.56L196.39 83.3M193.6 46.54L194.12 51.5M175.6 100.06L174.24 99.82M164.85 99.21L164.36 98.95M174.24 99.82L171.18 99.28M127.54 26.24L132.86 26.11M112.93 0.35L114.4 0.53M159.42 80.36L160.04 84.08M126.13 1.88L126.19 1.89M181.8 98.47L179.36 98.82M182.44 98.38L181.8 98.47M122.25 36.26L119.54 36.38M172.98 100.16L169.55 99.7M180.08 99.34L180.36 99.24M120.87 1.33L126.13 1.88M121.35 99.52L125.59 99.09M194.12 51.5L194.57 55.81M195.93 56.24L195.86 55.41M167.1 81.84L167.15 78.87M166.79 98.59L164.94 97.5M171.18 99.28L170.9 99.07M126.93 1.94L131.6 1.26M123.24 31.01L124.74 30.95M195.86 55.41L195.06 46.63M182.03 3.49L185.98 5.27M132.75 98.64L138.08 98.51M167.05 85.19L167.1 81.84M127.18 26.25L127.54 26.24M190.87 13.68L191.24 14.43M114.4 0.53L120.87 1.33M180.84 2.95L182.03 3.49M179.9 99.4L180.08 99.34M138.08 98.51L138.54 98.5M190.78 13.5L190.87 13.68M167.8 99.18L166.79 98.59M112.06 0.71L112.1 0.71M98.95 0.61L112.06 0.71M187.09 6.64L187.46 7.24M163.01 79.98L163.13 77.22M169.55 99.7L168.57 99.57M170.9 99.07L168.1 97.05M127.08 30.91L127.7 30.96M141.58 98.11L142.69 98.67M179.61 3.54L181.89 4.51M185.2 100.72L185.81 101.03M127.7 30.96L132.25 31.33M141.15 98.1L140.72 98.18M180.87 99.25L180.87 99.25M140.72 98.18L139.1 98.46M71.25 81.15L71.47 81.2M71.35 30.56L71.43 30.56M28.72 66.09L28.79 65.88M11.79 6.85L11.72 6.92M17.79 3.48L23.1 2.49M42.51 59.17L43.39 52.04M38.01 46.06L37.1 54.89M52.03 70.2L52.01 70.2M34.89 35.74L34.91 35.75M11.72 6.92L11.56 7.06M23.1 2.49L30.16 1.17M48.25 97.05L48.58 97.09M39.77 66.67L39.99 68.9M49.36 98.16L51.7 98.2M11.74 5.83L11.71 5.85M28.75 65.21L28.72 65.12M11.3 6.19L11.33 6.15M10.98 6.5L11.3 6.19M71.34 1.88L71.11 1.77M71.52 1.96L71.34 1.88M71.36 26.18L71.75 26.27M71.32 26.17L71.36 26.18M43.39 52.04L43.52 51M10.19 8.79L10.34 8.6M28.79 65.34L28.75 65.21M39.99 68.9L40.02 69.21M35.51 35.31L35.57 35.08M192.79 92.71L192.83 92.64M35.36 35.53L35.37 35.52M48.58 97.09L48.67 97.1M51.7 98.2L51.78 98.2M35.37 35.52L35.51 35.31M182.75 98.78L180.87 99.25M73.21 52.96L73.16 52.89M28.79 65.88L28.79 65.87M20.51 6.21L23.18 5.58M54.17 98.48L55.04 98.58M51.78 98.2L54.17 98.48M71.63 79.64L71.6 79.63M35.57 35.08L35.57 35.08M47.99 97.3L47.41 97.85M23.18 5.58L26 4.92M13.75 4.77L13.76 4.77M52.14 70.23L52.03 70.2M34.8 35.73L34.89 35.74M182.75 98.78L182.76 98.79M73.23 52.99L73.21 52.96M37.1 54.89L36.94 56.46M49.15 98.31L49.2 98.35M40.7 99.6L39.46 100.33M13.74 4.77L13.75 4.77M47.99 97.3L49.15 98.31M13.44 4.98L13.74 4.77M11.71 5.85L11.33 6.15M18.5 4.07L22.24 3.2M71.43 30.56L71.5 30.57M196.22 85.87L196.33 85.56M71.88 79.69L71.63 79.64M196.08 86.25L196.22 85.87M71.47 81.2L71.55 81.22M192.3 93.62L192.79 92.71M85.21 0.58L85.22 0.58M71.77 30.7L72.17 30.73M65.75 31.33L69.54 30.9M72.41 99.09L76.65 99.52M36.23 97.85L33.51 100.36M28.02 101.02L25.07 101.88M1.61 83.3L1.67 85.56M37.46 87.09L37.96 84.08M3.43 55.81L3.88 51.5M59.92 98.51L65.25 98.64M71.85 1.7L77.1 1.08M33.09 97.83L30.35 100.28M26.86 99.82L25.95 100.07M12.19 101.03L12.8 100.72M4.24 26.6L4.25 26.58M58.91 98.45L57.29 98.17M1.78 85.87L1.92 86.25M12.02 5.39L15.83 3.9M15.81 98.41L18.64 98.82M56.86 98.1L56.43 98.11M71.41 30.53L71.5 30.57M59.95 43.44L66.82 43.07M34.73 74.2L34.87 77.22M34.6 72.98L34.13 68.72M55.31 98.67L56.43 98.11M77.1 1.08L83.62 0.37M71.41 30.53L71.35 30.56M76.65 99.52L79.56 99.82M30.35 100.28L30.25 100.37M15.56 98.38L15.81 98.41M47.07 98.15L47.41 97.85M12.14 101.05L12.19 101.03M55.27 98.69L55.31 98.67M59.46 98.5L59.92 98.51M46.16 98.94L47.07 98.15M71.04 1.76L71.11 1.77M71.35 30.56L70.92 30.75M30.9 81.84L30.95 85.19M57.29 98.17L56.86 98.1M34.87 77.22L34.99 79.98M83.67 36.63L78.46 36.38M7.17 12.66L10.54 7.29M1.67 85.56L1.78 85.87M33.51 100.36L33.16 100.68M34.73 74.2L34.6 72.98M5.21 92.71L5.7 93.62M71.79 1.7L71.85 1.7M56.43 98.11L56.03 98.12M71.5 30.57L71.77 30.7M66.38 1.16L71.04 1.76M30.85 78.87L30.9 81.84M10.54 7.29L10.91 6.7M83.62 0.37L85.01 0.22M65.14 26.11L70.46 26.24M54.08 43.76L59.95 43.44M78.46 36.38L75.75 36.26M69.54 30.9L70.92 30.75M15.83 3.9L17.17 3.38M37.96 84.08L38.58 80.36M99 36.88L87.34 36.69M3.88 51.5L4.4 46.54M85.22 0.58L98.95 0.61M70.46 26.24L70.82 26.25M87.34 36.69L83.67 36.63M15.24 98.79L14.69 99.23M15.56 98.38L15.24 98.79M145.77 69.7L145.51 69.87M14.69 99.23L12.8 100.72M5.17 92.64L5.21 92.71M145.51 69.87L145.42 70.02M11.72 6.92L11.54 6.69M11.33 6.31L11.33 6.15M24.14 18.5L21.48 19.88M72.24 43.14L71.87 42.98M71.2 23.37L71.22 23.85M70.4 16.18L65.05 16.5M58.53 62.36L57.53 60.85M73.02 63.29L72.99 63.84M49.79 51.66L48.05 49.75M72.96 60.99L73.01 59.07M71.83 42.34L71.79 42.18M15.91 13.1L15.42 12.43M12.14 7.72L11.9 7.33M70.85 16.13L70.4 16.18M71.72 39.51L71.65 37.16M70.89 16.5L70.85 16.13M71.19 36.64L71.63 36.44M71.63 36.44L72.04 36.59M14.2 10.76L13.14 9.26M71.85 46.03L71.87 42.98M71.65 37.16L71.22 37.33M24.97 25.1L21.55 20.56M37.64 37.75L36.05 36.14M15.1 11.98L14.2 10.76M71.4 16.12L76.03 16M50.44 52.49L49.79 51.66M70.9 15.83L70.85 16.13M70.85 16.13L71.4 16.12M61.04 64.84L59.24 63.3M12.74 8.65L12.31 9.12M12.15 8.87L12.57 8.4M65.05 16.5L43.86 16.54M72.06 37.29L71.65 37.16M72.99 63.84L73.3 63.85M12.57 8.4L12.14 7.72M15.42 12.43L15.1 11.98M71.21 7.77L71.27 7.06M50.53 52.91L50.44 52.49M31.13 31.61L31.11 31.91M71.2 23.37L71.65 23.47M11.36 6.05L11.65 5.68M76.03 16L84.02 16.06M17 14.56L15.91 13.1M72.59 63.35L73.02 63.29M34.56 34.79L34.33 34.57M33.99 34.29L32.79 33.2M33.55 16.53L43.86 16.54M32.79 33.2L31.13 31.61M28.5 17.04L24.14 18.5M71.83 42.34L72.21 42.39M71.6 48.76L72.08 48.6M70.7 23.48L71.2 23.37M71.13 22.42L71.2 23.37M71.34 32.28L71.43 30.56M38.86 38.93L37.64 37.75M14.76 12.39L15.1 11.98M11.9 7.33L11.73 7.04M30.73 31.55L30.74 31.23M71.42 42.46L71.83 42.34M71.87 42.98L71.45 43.23M71.79 42.18L71.72 39.51M13.14 9.26L12.74 8.65M11.73 7.04L11.49 7.17M30.74 31.23L30.18 30.72M72.53 49.58L72.13 49.61M45.5 38.64L41.15 38.86M72.13 49.61L72.42 51.91M34.5 100.36L36.53 99.82M51.32 53.74L50.62 54.88M51.28 53.51L50.44 52.49M58.24 56.22L60.61 55.53M72.8 56L73.04 57.82M43.85 87.19L42.01 93.42M49.2 86.66L47.32 92.18M45.49 95.56L43.7 97.78M40.7 99.6L42.36 99.63M71.61 49.64L66.99 49.86M21.48 3.25L18.9 3.67M55.21 58.22L55.06 58.1M42.49 33.5L37.63 33.94M52.44 52.59L51.5 53.48M43.7 97.78L41.31 99.36M42.97 98.03L44.83 95.86M41.99 98.85L42.97 98.03M36.53 99.82L39.46 100.33M40.96 99.46L41.31 99.36M57.53 60.85L56.55 59.9M41.33 64.46L40.52 66.87M39.45 39.63L39.05 39.25M35.33 34.72L35.32 34.72M76.22 53.27L74.59 53.18M45.19 46.05L44.67 45.33M66.99 49.86L57.44 50.86M60.8 71.84L61.25 69.95M55.31 98.67L55.41 98.69M72.08 48.6L72.13 49.61M33.54 100.35L34.5 100.36M57.44 50.86L54.29 51.79M60.3 73.51L60.8 71.84M42.01 93.42L39.82 96.57M72.13 49.61L71.61 49.64M67.82 54.64L70.78 54.36M39.82 96.57L37.22 98.54M50.62 54.88L49.83 57.35M46.15 71.57L45.43 76.14M51.5 53.48L51.28 53.51M22.9 100.87L25.07 101.88M51.28 53.51L51.32 53.74M53.55 55.94L51.28 53.51M54.17 98.48L55.27 98.69M30.13 102L28.02 101.02M19.07 3.71L22.24 3.2M75.94 49.5L72.53 49.58M34.5 100.36L37.22 98.54M99 49.08L83.53 49.26M45.43 76.14L45.01 80.76M45.01 80.76L43.85 87.19M50.18 81.18L49.2 86.66M47.32 92.18L45.49 95.56M41.02 64.35L40.1 66.74M71.65 37.16L71.63 36.44M48.3 62.65L47.29 66.45M83.53 49.26L75.94 49.5M49.15 98.31L47.69 98.16M42.36 99.63L46.16 98.94M45.91 67.6L46.26 66.11M50.85 76.77L50.18 81.18M71.87 42.98L71.83 42.34M83.51 53.1L99 52.96M28.93 63.68L30.24 61.73M74.69 30.88L75.51 31.09M73.28 31.11L72.17 30.73M59.89 54.69L67.53 53.63M36.44 34.81L35.57 35.08M13.8 4.74L13.9 4.71M99 53.81L83.51 53.94M54.26 59.77L54.96 58.32M56.55 59.9L56.14 59.27M57.42 55.55L59.89 54.69M76.22 53.27L83.51 53.1M55.15 57.96L55.92 57.04M72.8 56L72.73 55.05M75.9 48.63L83.51 48.36M67.82 54.64L60.61 55.53M69.56 31.52L65.83 32.84M36.11 34.46L37.63 33.94M34.24 36.17L34.47 35.55M83.51 53.94L76.37 54.11M71.73 78.47L72.22 71.7M29.52 63.76L28.75 65.21M1.98 64.16L2.61 60.01M83.23 62.7L76.26 62.96M84.89 0.57L76.97 1.14M84.61 2.6L76.71 2.65M17.17 3.38L13.8 4.74M13.51 5.82L18.9 3.67M28.79 65.88L29.06 67.02M13.44 5.92L12.93 6.3M9.87 9.09L10.34 8.6M44.83 95.86L46.65 92.46M76.37 54.11L74.74 54.17M56.75 57.61L56.29 58.11M55.53 59.47L55.12 60.9M72.42 51.91L72.49 52.47M52.94 65.98L52.28 68.77M34.89 35.74L34.64 36.49M2.74 60.03L2.15 64.24M1.74 59.86L1.19 63.86M12.7 6.42L13.51 5.82M58.24 56.22L56.75 57.61M76.74 2.44L84.64 2.4M39.05 39.25L39.42 39.29M67.53 53.63L70.56 53.29M53.55 55.94L55.06 58.1M51.72 68.41L52 65.33M35.37 34.7L36.11 34.46M51.37 73.06L50.85 76.77M53.43 61.63L54.26 59.77M55.06 58.1L55.15 57.96M39.82 39.68L39.45 39.63M46.65 92.46L48.53 86.87M55.12 60.9L54.31 62.66M28.33 64.83L28.93 63.68M28.48 66.96L28.33 66.33M83.19 63.51L76.23 63.79M21.48 19.88L21.16 20.03M44.67 45.33L45.09 45.5M45.57 46.19L45.19 46.05M54.96 58.32L55.06 58.1M70.92 30.75L69.56 31.52M28.4 28.63L28.05 28.63M49.97 76.7L50.87 72.81M39.11 39.61L39.05 39.25M40.96 41.11L39.45 39.63M44.67 45.33L44.37 44.88M62.54 66.17L62.64 66.1M28.44 29.02L28.41 29.34M15.1 11.98L15.54 11.72M11.33 6.31L11.54 6.69M21.55 20.56L21.16 20.03M62.52 66.3L62.54 66.17M12.57 8.4L13.1 8.09M35.37 35.52L36.05 36.14M39.45 39.63L39.51 39.99M11.73 7.04L11.87 6.85M48.05 49.75L45.19 46.05M31.46 31.61L31.13 31.61M28.78 29.01L28.44 29.02M50.44 52.49L50.73 52.64M30.74 31.23L31.08 31.24M21.16 20.03L20.85 19.61M44.76 45.81L44.67 45.33M33.99 34.29L34.33 34.57M11.65 5.68L11.71 5.85M28.05 28.63L27.63 28.2M27.63 28.2L24.97 25.1M28.44 29.02L28.05 28.63M11.65 5.68L12.02 5.39M45.19 46.05L45.25 46.5M28.05 28.63L28.03 28.96M30.18 30.72L28.44 29.02M39.05 39.25L38.86 38.93M62.54 66.17L61.04 64.84M13.27 8.34L12.74 8.65M44.37 44.88L40.96 41.11M21.16 20.03L20.97 20.35M35.09 35.27L35.09 35.28"/></svg>
