<svg xmlns="http://www.w3.org/2000/svg" viewBox="0 0 136 106" fill="none" stroke="currentColor" stroke-width="0.42" stroke-linejoin="round" stroke-linecap="round"><path d="M0 98.07L0.79 103.61L3.17 103.61L6.34 101.23L19.82 101.23L19.82 100.44L119.68 100.44L119.68 101.23L127.61 101.23L130.78 102.82L131.57 104.4L134.74 103.61L133.95 89.37L133.16 89.37L132.37 62.48L130.78 59.32L132.37 56.15L131.57 47.45L133.16 45.87L132.37 41.92L131.57 41.92L133.16 26.1L132.37 26.1L132.37 18.98L131.57 18.98L130.78 11.07L129.19 10.28L128.4 7.12L124.44 5.54L122.06 3.16L115.72 2.37L112.55 0.79L95.91 0.79L95.91 1.58L90.36 1.58L90.36 2.37L74.5 0.79L74.5 0L58.65 0L58.65 0.79L53.1 0.79L53.1 1.58L47.56 1.58L47.56 2.37L24.57 0.79L24.57 1.58L18.23 1.58L18.23 2.37L12.68 3.16L7.13 8.7L5.55 8.7L3.96 15.03L3.17 15.03L3.17 20.56L2.38 20.56L2.38 24.52L1.59 24.52L2.38 39.54L3.17 39.54L3.17 41.92L2.38 41.92L3.17 61.69L1.59 64.85L2.38 73.55L1.59 73.55L0.79 98.07Z"/></svg>