<svg xmlns="http://www.w3.org/2000/svg" viewBox="0 0 131 162" fill="none" stroke="currentColor" stroke-width="0.51" stroke-linejoin="round" stroke-linecap="round"><path d="M45.49 51.26L45.5 50.66M86.47 45.86L86.48 45.18M86.65 114.82L86.51 114.8M45.24 58.04L45.38 58.04M86.44 50.79L86.44 51.44M126.76 68.85L127.02 69.1M121.87 68.49L124.88 68.6M66.92 68.34L75.32 67.92M111.09 68.3L118.69 68.46M40.73 68.49L45.18 68.35M86.57 67.82L86.72 67.82M45.33 68.35L45.35 64.65M4.59 70.46L5.16 70.34M4.47 69.91L5.26 69.77M86.72 68.4L91.68 68.54M91.64 67.97L100.64 68.2M5.26 69.49L7.34 69.09M58.81 68.23L66.92 68.34M45.46 68.91L49.88 68.75M49.88 68.75L58.8 68.77M118.69 68.46L121.87 68.49M3.97 62.19L3.62 66.16M9.87 69.35L14.47 69.22M86.72 67.82L91.64 67.97M75.32 67.92L81.52 67.75M5.19 69.34L5.26 69.58M81.5 68.32L86.44 68.39M58.8 68.77L66.85 68.9M66.85 68.9L75.23 68.48M14.47 68.69L26.01 69.11M26.01 69.11L40.73 68.49M128.03 65.65L127.81 61.49M85.12 137.64L86.55 137.52M7.43 69.63L9.87 69.35M75.23 68.48L81.5 68.32M86.43 67.81L86.57 67.82M5.26 69.77L5.27 69.77M121.85 69.04L124.9 69.18M127.81 61.49L126.62 58.6M81.52 67.75L86.43 67.81M49.88 68.19L45.46 68.34M45.18 68.35L45.33 68.35M118.67 68.98L121.85 69.04M26.01 69.64L40.65 69.05M91.68 68.54L100.71 68.75M126.78 69.44L127.04 69.67M86.57 67.82L86.52 64.09M111.27 68.83L118.67 68.98M127.04 69.67L127.02 69.1M100.71 68.75L111.27 68.83M7.34 69.09L9.89 68.82M9.89 68.82L14.47 68.69M40.65 69.05L45.18 68.92M4.47 69.91L3.48 66.42M3.48 66.42L3.62 62.46M5.27 70.04L7.43 69.63M4.59 70.46L4.47 69.91M124.88 68.6L126.76 68.85M124.9 69.18L126.78 69.44M3.62 62.46L4.43 59.73M49.88 68.19L58.81 68.23M127.02 69.1L128.03 65.65M100.64 68.2L111.09 68.3M14.47 69.22L26.01 69.64M123.34 11.58L126.73 12.52M86.7 156.17L86.7 156.36M42.36 137.19L43.73 137.37M85.76 31.58L84.85 31.76M126.63 11.95L127.05 12.79M110.14 26.57L119.28 25.43M86.72 24.42L86.72 24.72M45.05 156.29L45.05 156.2M86.7 17.25L86.7 17.09M44.91 156.25L45.05 156.2M45.19 10.09L45.05 10.12M89.24 136.74L88.31 136.94M44.9 9.5L45.05 9.53M86.56 156.41L86.7 156.36M12.84 27.01L7.56 26.04M126.73 12.52L126.86 12.74M119.45 10.8L123.34 11.58M86.84 10.38L86.7 10.41M119.28 25.43L123.47 24.24M86.7 10.41L86.56 10.38M45.05 16.72L44.91 16.72M86.71 26.78L86.7 27.58M45.04 2.86L45.05 4.81M45.05 24.39L45.05 24.7M27.22 26.99L12.84 27.01M119.14 11.21L110.99 10.47M86.7 20.42L86.7 17.25M86.7 2.83L86.7 4.53M86.68 30.34L86.7 27.78M86.7 10.41L86.7 9.81M45.05 158.51L45.05 156.29M7.41 25.59L12.94 26.6M44.99 30.35L45.03 27.78M45.05 24.7L44.91 24.77M45.05 10.12L45.05 9.53M17.48 4.29L25.49 3.34M45.19 16.72L45.05 16.72M119.07 4.83L123.83 8.83M16.25 8.9L8.52 10.77M100.65 9.57L111.04 9.86M45.05 156.2L45.19 156.25M43.73 136.94L42.36 136.75M16.47 8.31L25.48 8.03M47.49 137.26L46.56 137.22M45.04 26.83L45.03 27.59M44.98 5.82L45.05 5.04M86.55 137.07L85.13 137.23M86.7 156.36L86.84 156.41M123.26 12.08L119.14 11.21M45.25 114.42L45.11 114.44M45.49 41.02L45.35 41.01M45.52 57.48L45.38 57.5M45.64 50.71L45.5 50.66M45.38 58.04L45.52 58.02M45.19 124.39L45.05 124.4M45.05 124.05L45.19 124.09M86.32 57.57L86.46 57.57M86.46 57.57L86.6 57.57M45.72 45.26L45.58 45.22M45.73 45.76L45.59 45.78M45.38 58.04L45.38 57.5M86.45 57.04L86.46 57.57M45.62 51.26L45.49 51.26M4.58 91L5.25 92.23M3.53 89.06L4.58 91M127.08 116.8L127.3 116.27M4.3 119.23L3.98 120.38M6.24 9.83L6.5 9.21M128.71 25.25L128.73 25.18M127.85 20.19L127.84 20.2M5.3 12.58L5.4 12.51M2.58 14.43L5.03 12.76M4.72 113.63L5.42 115.1M5.04 104.69L4.17 107.02M4.84 117.25L4.3 119.23M5.38 115.92L5.04 116.75M3.53 32.69L4.6 35.15M5.03 12.76L5.3 12.58M127.36 12.89L129.1 13.4M3.41 32.43L3.53 32.69M128.73 25.18L129.26 23.66M4.4 48.11L4.71 48.63M127.21 41.08L126.8 41.58M127 48.78L126.98 48.8M5.47 115.7L5.38 115.92M127.19 48.48L127 48.78M128.63 129.1L128.35 128.49M5.36 115.82L5.38 115.92M5.35 115.78L5.36 115.82M4.05 47.55L4.4 48.11M127.1 117.15L126.94 116.67M4.67 101.53L5.44 102.95M128.35 128.49L128.26 128.3M3.18 21.92L3.37 22.09M5.31 103.92L5.32 103.96M3.76 99.84L4.67 101.53M5 93.48L4.13 95.79M5.28 12.16L6.24 9.83M5.4 12.51L7.67 10.96M5.13 92.85L5.18 93M5.13 92.82L5.13 92.85M3.7 111.51L4.72 113.63M5.3 103.89L5.31 103.92M4.69 80.07L5.15 81.1M5.11 59.68L3.97 62.19M3.57 77.59L4.69 80.07M5.27 70.04L5.16 70.34M13.83 3.67L18.48 1.68M117.72 4.43L119.05 4.89M8.23 10.84L8.52 10.77M7.67 10.96L8.23 10.84M45.12 37.16L45.1 37.15M45.24 37.21L45.12 37.16M45.04 34.99L45.04 34.99M49.64 35.18L50.51 35.22M12.08 4.41L13.83 3.67M45.18 35.03L45.04 34.99M3.62 66.16L5.19 69.34M0.77 19.48L0.71 18.61M3.45 33.01L3.53 32.69M3.34 33.43L3.45 33.01M5.03 81.52L5.1 81.81M5.19 69.34L5.26 69.49M110.12 1.77L117.72 4.43M129.89 160.97L130.15 160.52M3.11 28.02L3.12 27.92M4.96 59.17L5.11 59.67M0.71 18.61L0.69 18.33M130.01 150.03L129.92 150.93M4.96 59.16L4.96 59.17M129.14 140.02L129.14 140.11M1.88 161.05L1.98 161.06M5.26 69.49L5.26 69.58M3.12 27.92L3.26 26.69M128.98 26.45L128.77 25.94M5.02 81.5L5.03 81.52M5.16 70.34L4.04 73.3M9.7 7.59L9.22 8.01M10.4 6.97L9.7 7.59M50.51 35.22L57.43 35.55M5.11 59.67L5.11 59.68M0.71 18.17L0.71 18.12M130.15 160.52L130.43 160.04M129.31 137.73L129.14 140.02M128.57 127.19L128.57 127.18M4.98 82.13L3.93 84.94M128.26 128.3L128.57 127.19M0.69 18.33L0.71 18.17M128.77 25.94L128.67 25.69M129.86 17.31L129.87 16.79M86.7 17.09L86.7 10.41M45.29 91.04L45.31 83.86M45.05 137.13L45.05 124.4M86.71 80.63L86.72 91.36M86.72 91.88L86.74 102.37M86.7 9.81L86.7 4.78M45.05 150.98L45.05 156.2M86.7 140.17L86.7 150.64M26.42 17.02L44.91 16.72M81.63 102.91L67 102.72M3.54 23.56L3.37 22.09M45.11 113.83L45.15 105.48M86.48 45.18L86.52 42.24M65.97 17.11L81.21 17.19M86.7 156.17L86.7 151.35M81.21 17.19L86.7 17.09M118.43 124.43L99.66 124.21M49.67 37.73L45.24 37.21M86.72 110.2L86.74 102.92M45.05 16.72L45.05 24.39M86.7 158.47L86.7 156.36M81.41 57.5L66.92 57.9M45.05 137.61L45.05 150.24M86.66 31.95L86.65 33.18M44.91 158.55L27.93 158.64M45.05 16.72L45.05 11.45M122.68 6.63L119.25 4.13M66.99 124.59L49.65 124.51M66.84 80.4L49.87 80.6M91.75 17.14L86.7 17.09M86.59 37.09L86.54 40.3M66.98 124.14L49.65 124.12M66.69 51.29L81.34 50.86M81.41 56.97L66.9 57.33M4.97 23.49L4.97 23.49M3.86 22.52L4.97 23.49M5.18 93L5 93.48M128.7 19.47L128.68 19.48M128.36 39.69L127.23 41.06M127.3 116.27L127.82 115.07M5.1 81.81L4.98 82.13M129.87 151.38L129.86 151.46M5.16 81.65L5.1 81.81M127.82 115.07L128.66 113.11M5.26 69.58L5.27 69.77M5.28 92.74L5.18 93M129.88 16.31L129.88 16.01M128.68 19.48L127.95 20.11M1.88 152.92L1.62 153.65M127.18 117.38L127.1 117.15M129.92 150.93L129.87 151.38M129.87 16.79L129.88 16.31M1.62 153.65L1.55 153.85M5.43 103.66L5.32 103.96M129.62 143.87L129.16 142.93M4.71 48.63L4.81 49.06M4.81 49.06L4.83 49.18M127.95 20.11L127.85 20.19M5.27 69.77L5.27 70.04M129.16 142.93L128.45 141.49M2.01 152.58L1.88 152.92M127.05 12.79L127.36 12.89M127.24 117.57L127.18 117.38M5.32 103.96L5.04 104.69M4.97 23.49L6.09 24.47M3.37 22.09L3.86 22.52M126.86 12.74L127.05 12.79M127.23 41.06L127.21 41.08M129.21 19.03L128.7 19.47M124.33 7.82L124.65 8.06M122.68 6.63L124.33 7.82M86.68 40.99L86.53 40.97M45.07 36.91L45.04 34.99M86.45 37.08L86.59 37.02M86.44 51.44L86.3 51.45M86.56 134.96L86.69 131.28M45.13 31.14L44.99 31.07M86.66 123.47L86.66 120.73M45.09 116.72L45.11 114.44M86.45 57.04L86.44 55.73M86.66 123.47L86.66 123.72M86.44 50.32L86.44 50.79M5.06 59.68L5.11 59.68M86.62 45.87L86.47 45.86M86.66 123.72L86.79 123.75M86.53 40.97L86.39 40.98M86.34 45.23L86.48 45.18M45.36 50.73L45.5 50.66M45.59 45.78L45.45 45.79M86.45 57.04L86.6 57.04M45.38 57.5L45.39 56.22M45.2 39.08L45.12 37.16M86.44 53.59L86.44 55.73M1.56 161.04L1.66 161.08M129.9 160.98L130.15 160.52M86.58 51.45L86.44 51.44M86.73 37.08L86.59 37.02M86.47 45.86L86.46 47.28M86.52 123.76L86.66 123.72M86.44 51.44L86.44 53.59M86.31 57.04L86.45 57.04M86.66 120.73L86.61 116.42M44.92 124.08L45.05 124.05M45.04 34.99L44.9 35.05M86.65 114.82L86.61 116.42M86.54 40.47L86.68 40.52M45.1 37.15L44.96 37.21M129.09 161.1L129.9 160.98M86.66 124.13L86.52 124.12M86.46 47.28L86.44 50.32M45.05 124.05L45.05 123.74M1.88 161.11L1.66 161.08M86.4 40.52L86.54 40.47M86.53 40.97L86.52 42.24M45.5 50.66L45.52 50.16M86.59 37.02L86.61 35.67M86.67 127.37L86.69 131.28M86.44 50.79L86.59 50.84M0.59 18.12L0.71 18.17M45.58 45.22L45.57 45.01M129.85 15.84L128.96 16.14M86.78 124.12L86.66 124.13M86.54 40.3L86.54 40.47M45.43 53.97L45.49 51.26M45.49 51.26L45.35 51.28M86.47 45.86L86.34 45.86M45.44 45.28L45.58 45.22M86.79 114.8L86.65 114.82M45.24 57.5L45.38 57.5M86.73 37.12L86.59 37.09M86.67 127.37L86.66 124.13M45.11 114.44L44.97 114.43M4.9 59.17L4.96 59.17M45.58 47.52L45.59 45.78M86.3 50.83L86.44 50.79M86.56 2.76L86.7 2.83M86.67 31.05L86.81 31.12M44.91 24.46L45.05 24.39M45.05 24.39L45.19 24.45M86.62 34.9L86.62 34.76M86.48 34.81L86.62 34.76M86.53 40.97L86.54 40.47M86.48 45.18L86.62 45.25M45.05 9.53L45.19 9.5M45.04 2.86L45.18 2.79M44.98 5.82L45.05 9.53M86.7 2.83L86.84 2.76M86.57 24.47L86.72 24.42M45.2 39.08L45.31 40.55M45.05 11.45L45.05 10.12M86.68 30.34L86.67 31.05M45.18 40.61L45.32 40.56M45.47 43.06L45.35 41.01M45.35 41.01L45.21 41.02M45.59 45.78L45.58 45.22M45.35 41.01L45.32 40.56M86.76 34.94L86.62 34.9M86.59 37.09L86.45 37.13M86.61 35.67L86.62 34.9M86.7 9.81L86.84 9.78M86.53 31.12L86.67 31.05M45.57 45.01L45.47 43.06M45.39 56.22L45.43 53.97M86.56 9.78L86.7 9.81M45.03 34.44L45.04 34.99M86.63 34.71L86.62 34.76M45.05 24.7L45.04 26.83M86.72 24.42L86.85 24.49M44.9 2.78L45.04 2.86M45 32.05L45.01 32.8M45.19 24.75L45.05 24.7M45.32 40.56L45.31 40.55M86.62 34.76L86.77 34.82M86.7 20.42L86.71 23.83M86.62 34.9L86.48 34.94M45.05 10.12L44.91 10.09M45.03 34.44L45.01 32.8M86.71 23.83L86.72 24.42M45.07 36.91L45.1 37.15M45.05 123.74L45.05 121.43M86.65 33.18L86.63 34.71M45.05 121.43L45.09 116.72M45.52 50.16L45.58 47.52M86.59 37.09L86.59 37.02M86.84 158.51L86.7 158.47M45.05 150.24L45.05 150.98M86.7 150.64L86.56 150.64M45.19 158.55L45.05 158.51M44.91 150.97L45.05 150.98M45.19 150.24L45.05 150.24M86.7 137.54L86.82 138.71M45.05 150.98L45.19 150.98M86.7 150.64L86.7 151.35M86.84 150.64L86.7 150.64M86.69 137.04L86.62 135.73M86.7 158.47L86.56 158.52M86.7 140.17L86.82 138.71M86.56 134.96L86.62 135.73M45.05 150.24L44.91 150.23M86.56 151.34L86.7 151.35M86.7 4.53L86.56 4.46M45.05 5.04L45.05 4.81M86.55 27.83L86.7 27.78M45.05 4.81L44.91 4.74M44.89 4.97L45.05 5.04M44.89 27.85L45.03 27.78M45.03 27.59L44.88 27.66M45.03 27.59L45.03 27.78M86.7 27.78L86.83 27.85M86.7 27.58L86.7 27.78M45.19 4.75L45.05 4.81M86.85 27.66L86.7 27.58M86.72 24.72L86.71 26.78M45.05 5.04L45.2 4.98M86.7 4.78L86.86 4.71M45.03 27.78L45.17 27.83M44.99 31.07L44.99 30.35M86.72 24.72L86.57 24.78M86.85 24.8L86.72 24.72M86.7 4.53L86.7 4.78M44.86 31.15L44.99 31.07M45.19 27.64L45.03 27.59M86.84 4.46L86.7 4.53M86.7 27.58L86.55 27.64M45.05 158.51L44.91 158.55M86.55 4.71L86.7 4.78M86.83 27.85L91.38 28.72M129.21 142.82L129.16 142.93M3.21 151.24L2.05 151.96M109.14 150.27L98.33 150.11M109.16 150.94L118.99 150.6M1.51 152.46L1.55 153.83M89.2 137.22L88.29 137.41M98.41 150.82L109.16 150.94M58.53 150.31L67.15 150.08M1.11 156.19L0.72 158.96M117.59 158.89L109.28 158.64M1.9 144.73L2.22 143.6M128.91 151.32L127.02 150.77M1.33 155.2L1.11 156.19M58.63 158.43L49.68 158.59M123.37 159.33L117.59 158.89M2.49 140.05L2.68 141.3M67.15 149.29L58.48 149.54M86.56 158.52L81.72 158.56M0.85 159.82L0.97 160.52M123.87 150.4L118.83 149.91M1.66 161.3L0.97 160.52M1.74 149.77L2.05 151.96M26.77 33.36L13.08 33.45M98.94 29.72L91.4 28.5M86.55 27.64L81.21 27.98M13.08 33.45L12.64 33.33M98.96 158.47L91.72 158.44M75.41 158.47L66.97 158.4M109.28 158.64L98.96 158.47M3.03 161.53L1.66 161.3M128.45 21.16L128.17 23.25M91.4 28.5L86.85 27.66M17.5 3.99L10.46 6.67M2.01 152.58L3.13 151.9M1.33 155.2L1.37 154.96M91.72 158.44L86.84 158.51M49.68 158.59L45.19 158.55M66.97 158.4L58.63 158.43M11.9 159.18L6.28 159.69M130.17 153.16L130.12 153.88M3.46 161.27L3.03 161.53M0.85 159.82L0.72 158.96M2.05 151.96L2.01 152.58M17.13 158.93L11.9 159.18M3.13 151.9L6.24 151.26M6.24 151.26L9.81 150.91M91.38 28.72L98.91 30.03M27.93 158.64L17.13 158.93M127.02 150.77L123.87 150.4M126.94 161.26L125.56 160.29M2.77 135.21L3.24 138.76M81.72 158.56L75.41 158.47M10.02 150.25L6.44 150.61M6.44 150.61L3.21 151.24M130.77 158.44L130.9 159.27M118.99 150.6L124.13 151.02M127.19 151.42L128.98 151.96M10.4 6.97L17.48 4.29M118.83 149.91L109.14 150.27M58.48 149.54L49.68 150.24M49.68 150.97L58.53 150.31M124.13 151.02L127.19 151.42M47.49 137.69L46.56 137.65M109.62 31.15L118.33 30.22M13.38 31.89L7.48 29.38M118.39 29.67L109.66 30.7M74.49 28.72L81.21 28.19M122.3 28.75L125.44 26M57.59 28.79L49.67 27.96M40.77 28.51L44.89 27.85M74.48 28.52L66.07 29M100.57 4.52L111.25 5.02M7.48 29.38L5.34 25.29M91.93 4.47L100.57 4.52M57.58 28.99L66.08 29.19M81.21 27.98L74.48 28.52M109.66 30.7L98.94 29.72M27.39 31.33L40.77 28.51M49.67 27.96L45.19 27.64M125.4 25.79L122.33 28.33M122.33 28.33L118.39 29.67M86.86 4.71L91.93 4.47M125.44 26L127.28 22.72M81.21 28.19L86.55 27.83M111 4.77L100.53 4.22M4.97 23.49L4.98 23.58M49.69 4.36L57.12 3.66M91.9 4.21L86.84 4.46M81.31 3.87L74.38 3.29M65.73 3.28L74.32 3.59M49.66 28.16L57.58 28.99M98.91 30.03L109.62 31.15M5.08 24.39L5.2 25.44M100.53 4.22L91.9 4.21M25.49 3.34L40.6 4.63M5.2 25.44L7.39 29.61M10.46 6.67L9.7 7.59M27.39 30.96L13.38 31.89M13.41 32.24L27.39 31.33M74.32 3.59L81.28 4.13M74.38 3.29L65.72 2.97M7.39 29.61L13.41 32.24M81.28 4.13L86.55 4.71M44.88 27.66L40.76 28.3M57.04 3.37L49.68 4.11M45.17 27.83L49.66 28.16M66.07 29L57.59 28.79M86.56 4.46L81.31 3.87M118.33 30.22L122.3 28.75M66.08 29.19L74.49 28.72M127.28 22.72L127.32 22.52M40.76 28.3L27.39 30.96M86.55 137.52L86.7 137.54M86.7 151.35L86.84 151.34M86.69 137.04L86.55 137.07M44.92 137.57L45.05 137.61M45.19 137.16L45.05 137.13M86.69 137.04L86.7 137.54M86.7 137.54L86.82 137.51M86.66 123.72L86.66 124.13M86.82 137.06L86.69 137.04M45.05 124.05L45.05 124.4M45.05 124.4L44.92 124.38M45.46 40.61L45.32 40.56M45.05 137.13L45.05 137.61M45.05 137.13L44.92 137.14M45.05 137.61L45.19 137.58M40.8 57.82L45.24 57.5M91.59 51.75L86.58 51.45M44.97 114.43L40.49 114.42M126.87 21.49L127.84 20.2M3.89 120.73L3.71 125.61M125.21 115.5L122.08 115.08M128.17 119.87L127.5 118.35M91.6 51.13L100.8 51.83M86.52 124.12L81.37 124.33M91.52 57.24L100.52 57.87M118.54 124.07L122.08 124.23M124.65 125.59L121.86 124.78M126.94 116.67L126.48 116.18M124.58 125.03L126.9 126.01M130.9 159.27L131 160.89M91.61 123.65L99.7 123.75M81.34 50.86L86.3 50.83M128.05 127.85L127 126.5M86.3 51.45L81.34 51.49M91.62 124.05L86.78 124.12M111.03 114.48L100.64 114.75M86.59 50.84L91.6 51.13M40.64 123.92L44.92 124.08M45.35 51.28L40.67 51.88M91.74 114.79L86.79 114.8M81.38 123.98L86.52 123.76M130.75 158.27L130.77 158.44M75.28 124.12L81.38 123.98M118.77 114.81L111.03 114.48M131 160.89L130.38 161.52M81.34 51.49L75.05 51.58M45.45 45.79L40.59 46.8M44.9 35.05L40.3 35.57M90.47 2.12L91.32 1.84M0.03 17.75L0 17.59M126.9 126.01L127.95 127.19M129.92 150.93L130.17 153.16M111.04 58.19L118.44 58.22M125.56 160.29L123.37 159.33M128.13 162L126.94 161.26M128.92 124.76L128.17 119.87M100.52 57.87L111.04 58.19M122.08 115.08L118.77 114.81M130.44 155.53L130.22 154.15M86.79 123.75L91.61 123.65M100.64 114.75L91.74 114.79M127 126.5L124.65 125.59M129.13 133.83L128.63 129.1M130.01 150.03L129.62 143.87M130.88 157.56L130.44 155.53M130.38 161.52L129.33 161.92M126.48 116.18L125.21 115.5M122.08 124.23L124.58 125.03M121.47 58.11L124.66 57.98M129.33 161.92L128.13 162M75.43 114.19L67.05 113.77M81.62 114.62L75.43 114.19M129.31 137.73L129.13 133.83M49.64 35.18L45.18 35.03M86.6 57.04L91.52 57.24M81.41 56.97L86.31 57.04M0 17.59L0.34 16.22M40.66 51.3L45.36 50.73M40.57 46.19L45.44 45.28M118.94 32.24L110.15 34.2M25.05 41.92L19.45 40.97M66.03 25.83L74.47 25.45M124.82 31.6L120.42 33.89M64.87 35.65L57.55 35.66M124.33 7.82L123.88 7.34M126.49 26.87L123.17 29.91M124.65 8.06L127.36 12.89M14.61 113.41L10.06 113.87M50.68 37.8L49.68 37.73M66.22 35.66L74.85 35.55M13.27 45.47L8.36 44.51M110.15 34.2L99.18 33.62M127.67 30.4L124.91 33.75M25.09 36.73L40.3 35.57M6.49 49.38L8.65 49.91M111.6 35.74L114.87 34.94M8.28 43.67L13.19 44.82M40.33 41.03L45.18 40.61M86.85 24.49L91.42 25.29M49.8 40.77L58.08 41.36M57.8 38.3L66.3 38.45M122.68 6.63L123.88 7.34M99.24 26.58L110.14 26.57M4.66 40.65L6.09 42.45M13.19 44.82L25.45 46.99M8.36 44.51L6.01 43.23M82.88 32.34L74.87 33.11M92.13 32.49L90.1 32.33M104.92 35.68L111.6 35.74M81.25 24.79L86.57 24.47M13.48 50.65L25.83 51.76M120.75 35.69L111.93 37.51M129.26 23.66L129.2 20.48M13.61 51.39L8.84 50.58M11.17 124.18L8.08 124.88M90.1 32.33L88.42 31.67M8.84 50.58L6.69 49.98M124.91 33.75L120.75 35.69M7.95 124.31L11 123.63M128.62 26.34L127.67 30.4M4.6 35.15L6.67 37.92M57.55 35.66L50.51 35.22M81.25 25.08L74.5 25.77M10.06 113.87L7.57 114.57M110.07 26.97L99.16 26.93M118.94 32.24L123.17 29.91M66.19 33.16L61.93 33M7.18 58.9L9.72 58.64M6.09 42.45L8.28 43.67M6.67 37.92L12.01 39.99M66.03 26.18L57.61 25.89M127.79 27.92L124.82 31.6M8.65 49.91L13.48 50.65M129.2 20.48L128.71 19.52M74.47 25.45L81.25 24.79M3.34 33.43L3.56 38.01M9.72 58.64L14.47 58.28M40.26 37.78L24.82 38.1M27.36 124.11L15.96 123.95M25.89 52.4L13.61 51.39M15.83 123.45L27.29 123.74M25.53 47.65L13.27 45.47M91.42 25.29L99.24 26.58M111.93 37.51L100.88 37.91M27.29 123.74L40.64 123.92M40.59 46.8L25.53 47.65M75.06 41.73L66.48 41.93M81.49 37.54L86.45 37.08M66.45 41.51L75.06 41.28M87.85 37.18L86.73 37.12M40.49 114.42L25.9 114.02M118.8 40.18L111.84 41.43M95.75 35.41L91.76 35.22M58.21 41.77L49.82 41.16M128.08 33.09L127.54 35.58M66.48 41.93L58.21 41.77M100.88 37.91L91.75 37.52M128.53 37.83L128.63 33.29M49.96 45.47L58.46 46.13M128.92 29.06L128.08 33.09M40.69 124.25L27.36 124.11M126.66 42.38L125.19 43.96M40.67 51.88L25.89 52.4M128.62 45.45L127.59 41.47M86.48 34.94L81.4 35.11M91.77 40.96L97.98 41.34M119.81 45.55L123.04 44.7M124.9 49.62L126.98 48.8M127 48.78L126.79 49.37M81.44 41.2L75.06 41.73M91.76 35.22L86.76 34.94M58.95 113.65L49.7 114.07M49.93 50.77L58.7 51.29M75.07 46.57L66.6 46.66M66.58 46.14L75.07 46.04M125.19 43.96L122.98 45.38M125.02 38.22L120.97 39.82M86.77 34.82L91.72 35.13M128.53 37.83L128.36 39.69M58.46 46.13L66.58 46.14M101.14 41.89L91.77 41.4M127.78 47.55L125.78 49M128.62 45.45L127.78 47.55M66.6 46.66L58.5 46.65M26.33 58.32L40.8 57.82M45.21 41.02L40.35 41.48M75.06 41.28L81.44 40.75M81.52 37.69L74.94 38.34M129.42 29.65L128.98 32.54M25.45 46.99L40.57 46.19M74.94 38.34L69.12 38.37M81.49 37.54L74.93 38.23M111.91 41.33L101.11 41.57M127.54 35.58L125.02 38.22M126.8 41.58L126.66 42.38M66.45 41.51L58.08 41.36M86.48 34.81L81.4 34.98M127.23 41.06L127.24 41.11M58.5 46.65L49.97 45.95M125.19 43.31L126.75 41.64M111.84 41.43L101.14 41.89M81.4 35.11L75.01 35.53M123.04 44.7L125.19 43.31M127.87 49.74L127.19 48.48M49.87 57.25L58.81 57.32M58.73 51.99L49.92 51.3M129.42 29.65L128.98 26.45M86.68 40.52L91.77 40.96M126.79 49.37L124.74 49.96M58.81 57.32L66.9 57.33M119.15 51.15L122.27 50.43M86.34 45.86L81.38 46.19M119.7 46.19L111.69 47.5M75.07 46.04L81.41 45.65M126.66 58.08L127.92 55.23M75.05 51.58L66.71 51.97M127.92 55.23L127.87 49.74M58.7 51.29L66.69 51.29M124.74 49.96L122.16 50.85M124.9 49.62L125.78 49M81.44 40.75L86.4 40.52M86.39 40.98L81.44 41.2M67.05 113.77L58.95 113.65M91.68 46.83L86.62 45.87M66.71 51.97L58.73 51.99M100.8 51.83L111.48 51.84M100.95 47.66L91.68 46.83M118.44 58.22L121.47 58.11M124.66 57.98L126.4 57.98M81.41 45.65L86.34 45.23M122.16 50.85L119.05 51.6M111.69 47.5L100.95 47.66M122.27 50.43L124.9 49.62M100.99 47.11L111.73 46.79M119.05 51.6L111.42 52.34M81.38 46.19L75.07 46.57M91.77 41.4L86.68 40.99M91.69 46.23L100.99 47.11M111.48 51.84L119.15 51.15M122.98 45.38L119.7 46.19M126.4 57.98L126.66 58.08M81.37 124.33L75.26 124.47M45.43 91.52L49.84 91.36M81.6 91.81L86.58 91.87M86.58 91.87L86.72 91.88M86.72 91.88L86.87 91.87M45.43 91.03L45.29 91.04M58.8 91.41L66.89 91.72M86.72 91.36L86.72 91.88M118.6 90.98L121.8 91.33M45.15 91.53L45.29 91.54M86.58 91.35L86.72 91.36M128.06 96.19L127.02 92.96M91.81 102.36L100.73 101.84M4.46 93.15L5.07 92.86M25.95 101.48L40.57 101.87M14.5 101.01L25.95 101.48M124.84 102.42L126.75 103.1M121.79 102.23L124.84 102.42M45.29 91.54L45.43 91.52M45.29 91.54L45.29 91.04M111.13 101.74L118.65 102.16M5.25 92.23L5.13 92.82M4.6 93.67L4.46 93.15M126.77 92.42L127.02 92.96M5.07 92.86L5.13 92.85M100.73 101.84L111.13 101.74M14.56 91.17L26.03 91.36M9.92 91.5L14.56 91.17M121.8 91.33L124.87 91.76M49.75 101.51L58.85 101.75M3.78 96.76L4.6 93.67M127.01 103.86L128.09 100.39M67.06 102.21L75.45 102.29M75.45 102.29L81.65 102.36M124.87 91.76L126.77 92.42M66.89 91.72L75.28 91.76M4.6 93.67L5 93.48M7.46 91.97L9.92 91.5M10.18 101.26L14.5 101.01M118.65 102.16L121.79 102.23M91.84 91.81L100.82 91.34M100.82 91.34L111.27 90.69M75.28 91.76L81.6 91.81M45.15 91.04L45.29 91.04M86.89 102.35L91.81 102.36M40.57 101.87L45.03 101.81M81.65 102.36L86.6 102.36M111.27 90.69L118.6 90.98M4.58 91L5.13 92.82M45.31 83.86L45.32 80.78M49.84 90.86L45.43 91.03M26.03 91.36L40.6 91.65M49.84 91.36L58.8 91.41M5.44 102.95L7.62 101.89M126.75 103.1L127.01 103.86M7.62 101.89L10.18 101.26M58.85 101.75L67.06 102.21M86.72 91.36L86.87 91.35M5.28 92.74L7.46 91.97M127.02 92.96L127.01 92.43M128.09 100.39L128.06 96.19M40.6 91.65L45.15 91.53M3.38 89.79L3.57 85.62M9.94 90.9L14.5 90.66M49.84 90.86L58.81 90.91M127.01 92.43L128.17 89.28M126.77 91.87L127.01 92.43M58.81 90.91L66.95 91.18M66.95 91.18L75.36 91.22M128.17 89.28L127.99 84.95M91.8 91.28L100.74 90.81M40.68 91.15L45.15 91.04M45.32 80.78L45.45 80.77M26.03 90.86L40.68 91.15M118.67 90.38L121.82 90.76M86.87 91.35L91.8 91.28M86.57 80.62L86.71 80.63M86.7 80.05L86.71 80.63M86.58 68.4L86.63 71.72M86.63 71.72L86.68 76.13M45.33 76.45L45.33 72.19M86.57 80.04L86.7 80.05M45.18 80.22L45.32 80.22M4.97 81.53L5.03 81.52M45.18 80.77L45.32 80.78M4.48 82.28L4.98 82.13M111.15 90.12L118.67 90.38M86.7 80.05L86.85 80.05M4.36 81.72L4.97 81.53M4.69 80.07L5.02 81.5M127.99 84.95L126.91 81.45M5.15 81.1L5.02 81.5M45.45 80.77L49.87 80.6M121.82 90.76L124.87 91.22M100.74 90.81L111.15 90.12M45.33 72.19L45.33 68.92M45.32 80.22L45.33 76.45M49.87 80.04L45.45 80.21M4.48 82.28L4.36 81.72M45.32 80.78L45.32 80.22M81.58 80.47L86.57 80.62M111.31 79.47L118.61 79.68M75.36 91.22L81.62 91.29M86.87 91.87L91.84 91.81M5.25 92.23L7.36 91.36M124.87 91.22L126.77 91.87M4.46 93.15L3.38 89.79M7.36 91.36L9.94 90.9M81.62 91.29L86.58 91.35M3.57 85.62L4.48 82.28M14.5 90.66L26.03 90.86M45.45 80.21L45.32 80.22M86.71 80.63L86.85 80.63M86.7 80.05L86.68 76.13M3.93 84.94L3.53 89.06M7.36 80.54L9.92 80.06M25.99 80.15L40.71 80.26M9.92 80.06L14.42 79.85M75.26 80.4L81.58 80.47M124.79 80.47L126.65 81.05M100.8 80.17L111.31 79.47M126.65 81.05L126.91 81.45M25.99 80.68L40.63 80.82M40.63 80.82L45.18 80.77M5.16 81.65L7.33 81.1M7.33 81.1L9.8 80.73M14.46 80.49L25.99 80.68M91.8 80.58L100.8 80.17M121.75 79.96L124.79 80.47M86.85 80.63L91.8 80.58M126.91 81.45L126.9 80.88M118.61 79.68L121.75 79.96M66.84 80.4L75.26 80.4M3.43 78.03L3.69 73.72M4.04 73.3L3.57 77.59M4.36 81.72L3.43 78.03M14.42 79.85L25.99 80.15M3.69 73.72L4.59 70.46M5.15 81.1L7.36 80.54M9.8 80.73L14.46 80.49M118.6 79.14L121.71 79.42M111.15 78.94L118.6 79.14M40.71 80.26L45.18 80.22M45.33 68.92L45.46 68.91M86.44 68.39L86.58 68.4M45.33 68.92L45.33 68.35M45.37 60.59L45.38 58.04M86.85 80.05L91.76 79.99M121.71 79.42L124.79 79.93M58.8 79.97L66.9 79.85M75.35 79.83L81.61 79.89M86.57 67.82L86.58 68.4M45.35 64.65L45.37 60.59M86.47 60.07L86.52 64.09M126.65 80.46L126.9 80.88M66.9 79.85L75.35 79.83M45.18 68.92L45.33 68.92M86.46 57.57L86.47 60.07M81.61 79.89L86.57 80.04M124.79 79.93L126.65 80.46M86.58 68.4L86.72 68.4M91.76 79.99L100.68 79.6M128.06 77.44L128.07 73.12M49.87 80.04L58.8 79.97M128.07 73.12L127.04 69.67M45.46 68.34L45.33 68.35M126.9 80.88L128.06 77.44M100.68 79.6L111.15 78.94M4.43 59.73L5.06 59.68M4.3 59.19L4.9 59.17M67.02 156.34L75.4 156.38M2.43 26.23L3.08 27.85M3.12 27.92L3.08 27.85M98.96 156.39L109.26 156.57M109.26 156.57L117.14 156.93M129.21 142.82L129.15 140.23M1.64 161.04L1.66 161.08M8.89 18.26L4.52 17.8M1.63 153.08L1.88 152.92M81.7 156.45L86.56 156.41M130.27 15.85L129.88 16.31M128.14 160.89L128.84 161.09M40.35 156.24L44.91 156.25M122.19 157.36L123.97 158.23M128.84 161.09L129.09 161.1M130.55 159.33L130.43 160.04M128.35 128.49L128.57 127.28M8.83 157.59L12.14 157.09M4.52 17.8L1.52 17.9M49.68 16.86L45.19 16.72M128.45 141.49L129.14 140.11M65.97 17.11L57.82 17.13M125.46 16.78L121.84 17.37M0.03 17.75L0.59 18.12M128.92 124.76L128.57 127.18M129.2 20.48L128.7 19.47M128.71 19.52L128.68 19.48M117.14 156.93L122.19 157.36M1.66 161.08L1.88 161.05M128.45 21.16L127.95 20.11M129.88 16.01L129.85 15.84M121.84 17.37L117.87 17.67M129.14 140.02L129.15 140.23M4.17 48.14L4.4 48.11M49.68 156.31L58.7 156.31M129.76 152.69L129.86 151.46M57.82 17.13L49.68 16.86M0.88 17.88L0.71 18.12M127.93 160.8L128.14 160.89M28 156.37L40.35 156.24M58.7 156.31L67.02 156.34M130.05 17.64L129.87 16.79M5.15 159.68L8.83 157.59M1.52 17.9L0.88 17.88M5.04 116.75L4.63 117.09M128.96 16.14L125.46 16.78M75.4 156.38L81.7 156.45M91.71 156.32L98.96 156.39M110.14 17.53L100.3 17.16M128.73 25.18L128.77 25.94M1.58 153.68L1.62 153.65M128.57 127.28L128.57 127.19M129.87 151.38L129.89 151.58M100.3 17.16L91.75 17.14M12.14 157.09L16.68 156.83M26.42 17.02L14.95 18.09M117.87 17.67L110.14 17.53M14.95 18.09L8.89 18.26M16.68 156.83L28 156.37M45.19 156.25L49.68 156.31M4.22 48.94L4.81 49.06M86.84 156.41L91.71 156.32M40.6 4.63L44.89 4.97M40.64 4.38L25.45 3.02M5.11 59.67L5.24 59.59M17.5 3.99L25.45 3.02M111.25 5.02L120.9 7.81M57.12 3.66L65.73 3.28M49.68 4.11L45.19 4.75M1.64 161.04L1.01 157.78M40.38 9.92L25.55 8.69M5.49 12.16L5.4 12.51M119.17 25.81L110.07 26.97M2.94 31.36L3.11 28.02M4.7 58.53L4.96 59.16M74.02 9.97L65.87 9.68M122.65 8.62L120.9 7.81M123.27 24.56L119.17 25.81M57.67 9.23L65.87 9.11M91.8 10.35L86.84 10.38M81.18 10.4L74.02 9.97M49.68 10.15L45.19 10.09M9.22 8.01L5.49 12.16M8.23 10.84L8.81 10.32M7.56 26.04L7.29 25.5M86.57 24.78L81.25 25.08M99.16 26.93L91.4 25.61M0.69 19.16L0.71 18.61M65.72 2.97L57.04 3.37M45.2 4.98L49.69 4.36M44.91 4.74L40.64 4.38M40.36 9.28L44.9 9.5M3.26 26.69L3.4 26.11M86.56 10.38L81.18 10.4M44.91 24.77L40.81 25.45M91.4 25.61L86.85 24.8M5.08 59.09L4.96 59.16M4.02 126.28L4.5 127.22M1.98 161.06L3.1 160.97M57.61 25.89L49.68 25.04M110.99 10.47L100.63 10.2M49.68 9.55L57.67 9.23M74.5 25.77L66.03 26.18M120.51 7.51L111 4.77M100.63 10.2L91.8 10.35M120.51 7.51L120.9 7.81M126.17 24.44L125.4 25.79M3.71 125.61L4.02 126.28M4.83 49.18L3.48 52.38M8.81 10.32L16.47 8.31M126.3 22.59L123.27 24.56M3.75 121.14L3.98 120.38M1.37 154.96L1.01 157.78M43.91 31.54L41.57 32.5M44.86 31.15L43.91 31.54M1.55 153.83L1.58 153.68M1.64 161.04L1.88 161.05M2.68 141.3L2.3 142.58M128.45 141.49L128.04 140.64M4.98 23.58L5.03 24.24M126.17 24.44L127.32 22.52M120.08 5.96L124.03 9.26M1.55 153.85L1.49 154.02M4.47 126.62L4.5 127.22M49.68 2.13L49.95 2.09M129.76 152.69L129.73 152.23M5.03 12.76L5.28 12.16M6.58 9.36L9.17 6.92M9.06 32.45L6.81 31.04M5.08 24.39L5.34 25.29M1.55 153.85L1.55 153.83M3.98 27.36L3.54 23.56M49.95 2.09L56.52 1.29M3.21 139.54L2.68 141.3M3.98 120.38L3.89 120.73M82.32 2.17L86.56 2.76M34.46 1.51L40.86 1.87M4.97 23.49L4.98 23.58M9.17 6.92L11.11 5.08M97.48 1.24L99.86 1.02M91.32 1.84L97.48 1.24M4.83 49.18L4.87 49.35M6.4 30.51L3.98 27.36M81.54 2.06L82.32 2.17M130.22 154.15L130.12 153.88M3.4 26.11L3.31 24.49M90.47 2.12L91.46 1.95M124.03 9.26L124.57 9.7M129.77 152.85L129.76 152.69M7.41 25.59L7.29 25.5M127.79 27.92L128.71 25.25M3.62 29.79L3.4 26.11M122.2 157.31L123.97 158.23M86.84 2.76L90.47 2.12M127.32 22.52L127.73 21.83M123.91 9.03L123.78 8.81M4.43 118.36L4.63 117.09M4.3 119.23L4.43 118.36M3.16 123.04L3.75 121.14M2.57 21.38L3.18 21.92M124.03 9.26L123.91 9.03M2.94 31.36L3.41 32.43M124.97 10.55L126.63 11.95M5.03 24.24L5.08 24.39M122.65 8.62L124.97 10.55M130.12 153.88L129.77 152.85M4.5 127.22L4.5 127.28M6.81 31.04L6.4 30.51M1.49 154.02L1.37 154.96M123.97 158.23L125.25 158.9M25.15 0.99L34.46 1.51M7.29 25.5L6.33 24.75M12.01 34.3L9.06 32.45M126.77 12.71L126.86 12.74M49.67 37.73L49.68 37.73M5.04 116.75L4.84 117.25M3.26 46.25L4.05 47.55M4.42 41.36L3.42 41.96M4.28 127.66L3.65 129.18M3.65 129.18L3.51 129.53M128.62 26.34L128.67 25.69M57.38 32.92L61.93 33M57.43 35.55L64.87 35.65M37.11 41.14L40.34 40.99M82.71 32.19L85.63 31.37M104.92 35.68L100.16 35.72M4.7 58.53L5.08 59.09M91.72 35.13L95.75 35.41M126.8 41.58L126.75 41.64M75.01 35.53L74.85 35.55M3.32 131.02L2.77 135.21M3.59 56.86L4.7 58.53M127.59 41.47L127.24 41.11M49.05 40.74L49.8 40.77M4.56 40.41L4.66 40.65M25.05 41.7L37.11 41.14M120.97 39.82L118.8 40.18M97.98 41.34L91.75 40.89M128.63 33.29L127.54 35.58M101.11 41.57L97.98 41.34M92.13 32.49L89.96 32.14M118.8 40.18L111.91 41.33M127.78 47.55L127.19 48.48M87.82 31.45L89.96 32.14M127.5 118.35L127.24 117.57M126.78 21.65L126.87 21.49M85.63 31.37L86.53 31.12M61.93 33L66.12 33.07M3.51 129.53L3.32 131.02M64.87 35.65L66.22 35.66M45.45 40.59L49.05 40.74M111.26 35.63L104.92 35.68M57.8 38.3L50.68 37.8M128.98 32.54L128.63 33.29M128.67 25.69L128.71 25.25M87.85 37.18L86.73 37.08M91.75 37.52L87.85 37.18M127.24 41.11L127.21 41.08M99.18 33.62L92.13 32.49M50.68 37.8L49.67 37.73M4.49 41.32L4.42 41.36M2.67 160.75L3.1 160.97M3.56 38.01L4.56 40.41M5.15 159.68L5.27 159.56M2.22 143.6L1.74 149.77M25.05 41.7L19.45 40.97M86.81 31.12L87.82 31.45M66.3 38.45L69.12 38.37M19.45 40.97L12.01 39.99M3.1 160.97L3.5 161.16M3.5 161.16L5.15 159.68M114.87 34.94L111.26 35.63M120.42 33.89L114.87 34.94M69.12 38.37L74.93 38.23M81.4 34.98L75.01 35.53M95.75 35.41L100.16 35.72M2.3 142.58L2.22 143.6M126.45 22.24L126.78 21.65M3.57 112.75L3.82 108.25M45 32.05L45.35 32.02M86.66 31.95L86.73 31.96M127.84 20.2L127.61 20.39M87.76 31.56L87.75 31.57M45.15 105.48L45.17 102.36M85.71 31.54L85.76 31.58M127.18 117.38L127.3 116.27M86.36 31.92L86.66 31.95M49.7 113.41L45.25 113.81M4.72 113.63L5.35 115.78M4.17 107.02L3.7 111.51M14.39 112.76L25.79 113.39M4.54 116.51L5.29 115.84M130.55 159.33L130.75 158.27M48.67 32.24L46.07 31.44M45.11 114.44L45.11 113.83M9.78 113.23L14.39 112.76M25.79 113.39L40.47 113.82M5.42 115.1L7.57 113.92M127.82 115.07L127.82 115.09M86.55 114.21L86.69 114.23M128.33 108.23L127.05 104.47M85.76 31.58L85.9 31.74M4.54 116.51L3.57 112.75M4.63 117.09L4.54 116.51M127.82 115.09L127.24 117.57M49.7 113.41L58.8 113.07M128.66 113.11L128.33 108.23M125.15 114.97L126.51 115.49M58.8 113.07L67.04 113.22M67.04 113.22L75.44 113.6M100.71 114.1L111.13 113.81M128.26 128.3L128.05 127.85M7.57 113.92L9.78 113.23M75.44 113.6L81.64 114.03M81.64 114.03L86.55 114.21M45.31 101.8L45.18 101.82M121.93 114.48L125.15 114.97M45.25 113.81L45.11 113.83M130.75 158.27L130.88 157.56M45.17 102.36L45.31 102.34M86.6 102.91L86.74 102.92M86.74 102.37L86.74 102.92M5.42 115.1L5.35 115.78M5.29 115.84L5.36 115.82M3.82 108.25L4.75 104.86M118.61 114.23L121.93 114.48M86.74 102.92L86.89 102.91M45.17 102.36L45.18 101.82M45.03 102.36L45.17 102.36M111.13 113.81L118.61 114.23M126.51 115.49L127.08 116.8M44.98 32.05L45 32.05M87.75 31.57L87.57 31.75M86.69 114.23L86.72 110.2M91.75 114.18L100.71 114.1M86.84 114.22L91.75 114.18M40.47 113.82L44.97 113.82M44.97 113.82L45.11 113.83M46.07 31.44L45.13 31.14M86.69 114.23L86.65 114.82M86.69 114.23L86.84 114.22M127.08 116.8L127.1 117.15M4.75 104.86L5.04 104.69M124.86 103.03L126.77 103.74M3.62 100.84L3.78 96.76M49.75 101.51L45.31 101.8M86.6 102.36L86.74 102.37M5.44 102.95L5.3 103.89M111.25 102.35L118.59 102.76M86.74 102.37L86.89 102.35M5.43 103.66L7.6 102.6M49.75 102.04L58.84 102.25M58.84 102.25L67 102.72M4.63 104.32L5.24 103.94M4.67 101.53L5.3 103.89M7.6 102.6L10.05 101.96M91.84 102.92L100.81 102.43M4.13 95.79L3.76 99.84M4.63 104.32L3.62 100.84M25.94 102.02L40.49 102.41M81.63 102.91L86.6 102.91M121.77 102.83L124.86 103.03M100.81 102.43L111.25 102.35M45.26 94.38L45.29 91.54M45.03 101.81L45.18 101.82M118.59 102.76L121.77 102.83M14.64 101.57L25.94 102.02M4.75 104.86L4.63 104.32M10.05 101.96L14.64 101.57M5.24 103.94L5.31 103.92M45.18 101.82L45.22 98.2M45.31 102.34L49.75 102.04M126.77 103.74L127.05 104.47M127.05 104.47L127.01 103.86M86.89 102.91L91.84 102.92M40.49 102.41L45.03 102.36M45.22 98.2L45.26 94.38M86.07 31.84L86.36 31.92M87.76 31.56L87.82 31.45M44.15 31.84L44.31 31.94M81.67 1.99L82.32 2.17M43.91 31.54L43.96 31.64M45.35 32.02L45.64 31.93M46.08 31.46L46.07 31.44M43.96 31.64L44.15 31.84M45.99 31.63L45.8 31.83M44.61 32.02L44.98 32.05M45.64 31.93L45.8 31.83M85.9 31.74L86.07 31.84M44.98 31.82L44.98 31.81M86.73 31.96L87.11 31.93M87.4 31.85L87.57 31.75M87.11 31.93L87.4 31.85M85.63 31.37L85.71 31.54M44.96 37.21L40.26 37.78M45.99 31.63L46.08 31.46M44.31 31.94L44.61 32.02M86.84 9.78L91.8 9.73M41.57 32.5L26.77 33.36M81.19 9.78L86.56 9.78M25.09 36.73L12.01 34.3M5.86 33.77L3.62 29.79M119.05 4.89L119.46 5.17M4.43 118.36L3.89 119.47M24.82 38.1L11.49 36.5M57.38 32.92L48.67 32.24M3.09 131.59L3.32 131.02M65.87 9.11L74.02 9.37M123.47 24.24L126.45 22.24M75.18 0.57L65.71 0M2.28 137.36L3.09 131.59M2.49 140.05L2.28 137.36M124.57 9.7L124.97 10.55M123.83 8.83L123.91 9.03M3.89 119.47L3.75 121.14M4.17 48.14L4.05 47.55M3.45 33.01L3.41 32.43M49.68 25.04L45.19 24.75M129.21 19.03L130.05 17.64M128.17 23.25L126.49 26.87M111.04 9.86L119.45 10.8M74.02 9.37L81.19 9.78M40.8 25.15L44.91 24.46M1.51 152.46L1.51 151.13M99.28 0.94L99.1 0.93M6.28 159.69L3.46 161.27M8.08 124.88L5.12 126.47M4.5 127.28L4.28 127.66M117.72 4.43L119.07 4.83M1.51 151.13L1.9 144.73M99.1 0.93L97.48 1.24M119.25 4.13L109.64 1.13M127.73 21.83L127.85 20.19M130.32 15.01L130.27 15.85M5.03 125.87L7.95 124.31M4.47 126.62L5.03 125.87M126.77 12.71L123.26 12.08M7.57 114.57L5.47 115.7M109.46 1.12L99.28 0.94M5.12 126.47L4.5 127.28M126.78 21.65L126.3 22.59M91.8 9.73L100.65 9.57M49.95 2.09L56.17 0.69M45.19 24.45L49.68 24.74M129.1 13.4L130.32 15.01M57.63 25.56L66.03 25.83M65.87 9.68L57.69 9.81M119.46 5.17L123.78 8.81M110.12 1.77L99.86 1.02M3.65 129.18L3.31 127.37M11.49 36.5L5.86 33.77M3.13 52.98L4.22 48.94M5.08 59.09L7.18 58.9M6.69 49.98L4.87 49.35M4.71 48.63L6.49 49.38M109.46 1.12L109.64 1.13M56.17 0.69L65.71 0M81.67 1.99L75.18 0.57M3.42 41.96L3.26 46.25M6.01 43.23L4.49 41.32M49.68 24.74L57.63 25.56M91.48 150.49L86.84 150.64M43.73 137.37L44.92 137.57M67.06 137.59L75.53 137.55M124.44 137.95L121.33 137.37M126.95 138.8L124.44 137.95M28.56 149.7L40.51 150.62M128.04 140.64L128 139.88M46.56 137.22L45.19 137.16M1.58 153.68L1.63 153.08M84.34 137.77L85.12 137.64M44.91 150.23L40.54 149.86M58.53 137.07L47.49 137.26M75.85 149.74L67.15 149.29M98.33 150.11L91.48 150.49M27.93 136.03L16.4 135.94M84.34 137.39L75.52 137.06M67.04 137.12L58.53 137.07M75.53 137.55L84.34 137.77M81.77 151.11L86.56 151.34M49.68 150.24L45.19 150.24M75.52 137.06L67.04 137.12M99.03 136.69L89.24 136.74M109.49 137.33L117.48 137.75M3.24 138.76L3.21 139.54M16.47 150.03L10.02 150.25M28.63 148.91L16.47 150.03M16.49 150.69L28.56 149.7M8.15 136.43L4.81 137.72M85.13 137.23L84.34 137.39M16.4 135.94L11.47 135.88M91.51 151.19L98.41 150.82M58.52 137.5L67.06 137.59M128.98 151.96L129.77 152.85M9.81 150.91L16.49 150.69M11.47 135.88L8.15 136.43M121.36 138.07L124.49 138.69M121.33 137.37L117.48 137.06M4.81 137.72L3.24 138.76M45.19 150.98L49.68 150.97M117.48 137.75L121.36 138.07M4.74 138.48L8.17 137.21M109.56 136.7L99.03 136.69M40.51 150.62L44.91 150.97M27.93 136.67L42.36 137.19M124.49 138.69L126.99 139.56M44.92 137.14L43.73 136.94M47.49 137.69L58.52 137.5M129.73 152.23L128.91 151.32M126.99 139.56L128.04 140.64M11.51 136.66L16.44 136.65M81.78 150.39L75.85 149.74M16.44 136.65L27.93 136.67M89.2 137.22L98.95 137.14M40.54 149.86L28.63 148.91M8.17 137.21L11.51 136.66M86.56 150.64L81.78 150.39M67.15 150.08L75.8 150.49M42.36 136.75L27.93 136.03M3.21 139.54L4.74 138.48M98.95 137.14L109.49 137.33M117.48 137.06L109.56 136.7M128 139.88L126.95 138.8M75.8 150.49L81.77 151.11M86.84 151.34L91.51 151.19M100.77 52.42L91.59 51.75M40.35 41.48L25.05 41.92M82.88 32.34L84.85 31.76M15.96 123.95L11.17 124.18M82.71 32.19L74.65 32.81M87.75 31.57L88.42 31.67M74.65 32.81L66.12 33.07M110.98 58.73L118.47 58.76M86.62 45.25L91.69 46.23M74.87 33.11L66.19 33.16M88.31 136.94L86.82 137.06M49.65 124.51L45.19 124.39M44.92 124.38L40.69 124.25M99.66 124.21L91.62 124.05M100.5 58.41L110.98 58.73M3.43 56.37L3.13 52.98M128.05 127.85L127.95 127.19M49.82 41.16L45.49 41.02M110.42 123.81L118.54 124.07M66.98 124.14L75.28 124.12M4.43 59.73L4.3 59.19M124.45 58.52L126.31 58.47M91.52 57.78L100.5 58.41M4.66 40.65L4.49 41.32M14.53 58.9L26.4 58.89M49.7 114.07L45.25 114.42M45.19 124.09L49.65 124.12M75.26 124.47L66.99 124.59M121.49 58.64L124.45 58.52M4.3 59.19L3.43 56.37M111.73 46.79L119.81 45.55M37.11 41.14L40.33 41.03M7.34 59.45L9.83 59.18M26.4 58.89L40.82 58.35M86.6 57.57L91.52 57.78M49.05 40.74L45.46 40.61M49.87 57.25L45.52 57.48M3.31 127.37L3.16 123.04M5.24 59.59L7.34 59.45M126.62 58.6L126.66 58.08M58.84 57.88L66.92 57.9M49.97 45.95L45.73 45.76M49.92 51.3L45.62 51.26M40.82 58.35L45.24 58.04M25.9 114.02L14.61 113.41M4.42 41.36L4.56 40.41M49.93 50.77L45.64 50.71M81.41 57.5L86.32 57.57M9.83 59.18L14.53 58.9M45.19 137.58L46.56 137.65M49.96 45.47L45.72 45.26M86.82 137.51L88.29 137.41M99.7 123.75L110.42 123.81M3.48 52.38L3.59 56.86M45.52 58.02L49.88 57.8M100.77 52.42L111.42 52.34M4.22 48.94L4.17 48.14M11 123.63L15.83 123.45M49.88 57.8L58.84 57.88M126.31 58.47L126.62 58.6M14.47 58.28L26.33 58.32M118.47 58.76L121.49 58.64M86.51 114.8L81.62 114.62M25.83 51.76L40.66 51.3M121.86 124.78L118.43 124.43M12.64 33.33L6.4 30.44M125.25 158.9L126.61 160.08M25.48 8.03L40.36 9.28M86.45 37.13L81.52 37.69M3.86 22.52L4.13 26.09M3.54 23.56L3.31 24.49M0.34 16.22L2.58 14.43M2.57 21.38L0.77 19.48M11.11 5.08L12.08 4.41M40.81 25.45L27.22 26.99M57.69 9.81L49.68 10.15M6.02 10.02L6.24 9.83M25.58 0.87L34.46 1.51M2.43 26.23L3.18 21.92M27.18 26.59L40.8 25.15M9.06 32.45L6.88 31.28M40.86 1.87L44.9 2.78M5.28 12.16L6.02 10.02M0.77 19.48L0.69 19.16M12.08 4.41L12.37 4.16M44.91 10.09L40.38 9.92M6.5 9.21L9.17 6.92M5.3 12.58L6.58 9.36M6.88 31.28L6.4 30.51M13.83 3.67L12.37 4.16M126.61 160.08L127.93 160.8M18.48 1.68L25.58 0.87M6.33 24.75L6.09 24.47M27.18 26.59L13.59 26.69M45.19 9.5L49.68 9.55M45.18 2.79L49.68 2.13M6.4 30.44L4.13 26.09M13.59 26.69L12.94 26.6M25.55 8.69L16.25 8.9"/></svg>
