<svg xmlns="http://www.w3.org/2000/svg" viewBox="0 0 87 102" fill="none" stroke="currentColor" stroke-width="0.32" stroke-linejoin="round" stroke-linecap="round"><path d="M48.52 8.86L57.2 8.7M43.65 8.92L48.52 8.86M3.32 47.09L3.06 45.78M67.4 8.99L75.66 9.94M5.53 32.88L3.43 29.24M2.22 51.78L2.51 50.78M7.81 7.36L11.24 3.71M1.67 25.53L2.33 21.65M24.91 9.03L16.03 9.77M39.35 24.71L26.01 26.26M2.76 22.8L2.54 23.75M24.5 0.16L39.01 1.05M5.2 9.16L5.42 8.97M25.97 25.86L39.34 24.41M8.19 31.76L6.04 30.58M3.22 48.39L3.37 47.85M11.69 32.63L5.93 29.37M24.87 8.43L38.99 8.59M39.34 24.41L43.38 23.72M3.7 46.59L3.8 46.95M0.75 93.96L0.63 94.9M83.98 27.22L84.96 24.29M3.25 57.58L3.22 57.27M6.02 9.1L7.81 7.36M2.73 24.94L2.54 23.75M8.19 31.76L5.97 30.33M43.65 1.84L47.22 1.2M2.5 49.73L2.51 50.78M7.81 7.36L10.46 4.77M80.04 8.17L79.91 7.94M3.09 67.97L2.9 68.3M3.4 13.98L4.47 11.31M5.97 30.33L5.57 29.8M3.11 67.93L3.09 67.97M47.22 1.2L48.19 1.02M3.8 46.95L3.86 47.18M78.36 97.27L80.1 98.2M80.1 98.2L81.36 98.87M3.2 26.63L2.76 22.8M85.79 92.78L85.78 92.62M6.49 24.86L5.61 24.24M6.6 24.94L6.49 24.86M11.08 33.6L8.19 31.76M2.51 50.78L2.57 54.35M3.43 29.24L2.73 24.94M80.16 8.39L80.04 8.17M5.57 29.8L3.2 26.63M83.38 21.76L83.79 21.06M3.3 58.04L3.25 57.58M0.63 94.9L0.28 97.74M2.25 21.59L2.33 21.65M43.51 78.25L43.51 87.79M43.51 30.58L43.51 27.12M43.51 40.65L43.51 37.02M43.38 98.53L26.71 98.61M43.38 48.71L24.18 48.7M43.51 41.08L43.51 44.66M43.51 49.11L43.51 54.33M43.51 23.97L43.51 26.91M83.43 58.07L83.38 57.99M84.79 18.64L84.74 18.67M4.25 23.13L5.41 24.04M43.51 93.7L43.51 96.32M3.13 22.27L4.25 23.13M83.37 57.96L83.2 57.66M78.83 5.74L80.45 6.95M43.51 31.66L43.51 34.69M2.76 22.8L2.66 21.91M78.83 5.74L75.47 3.23M85.24 18.24L84.79 18.64M84.74 18.67L84 19.32M80.45 6.95L80.77 7.18M1.26 92.5L1.14 92.85M2.66 21.91L3.13 22.27M43.51 55.02L43.51 64.22M83.38 57.99L83.37 57.96M83.12 11.95L83.43 12.05M82.94 11.9L83.12 11.95M1.14 92.85L0.88 93.59M43.51 15.91L43.51 23.66M43.51 75.91L43.51 64.75M43.51 8.94L43.51 3.88M43.51 15.91L43.51 9.55M43.51 48.64L43.51 45.15M43.51 98.46L43.51 96.32M43.19 31.63L43.51 31.66M3.86 47.18L3.54 47.77M44.56 77.08L44.48 76.69M42.29 76.62L42.23 76.9M15.61 1.79L17.52 0.96M83.9 19.41L83.89 19.42M7.66 11.98L7.97 11.89M83.62 40.21L83.34 40.5M85.04 24.07L85.43 22.92M0.66 19.07L0.69 18.95M73.97 3.52L75.27 3.99M84.11 55.56L83.61 57.22M86.17 100.51L86.44 100.03M85.91 100.96L86.17 100.51M84.11 55.56L85.02 54.14M44.68 31.19L44.69 31.15M3.82 14.71L4.95 13.91M44.56 77.09L44.56 77.08M42.19 77.08L42.24 77.33M7.97 11.89L8.47 11.73M42.16 34.92L39.85 35.22M44.48 76.69L44.47 76.62M4.47 11.31L5.42 8.97M84.43 68.74L84.35 68.56M85.89 15.98L85.9 15.5M43.51 75.91L43.38 75.88M66.5 0.84L73.97 3.52M2.33 21.65L2.66 21.91M0.69 18.95L0.7 18.89M84 19.32L83.9 19.41M4.95 13.91L7.66 11.98M84.96 24.29L85.04 24.07M85.64 83.78L85.24 82.96M85.93 90.87L85.89 91.29M85.89 91.29L85.89 91.38M5.42 8.97L5.67 8.34M3.47 14.95L3.82 14.71M84.11 55.57L84.11 55.56M43.51 31.66L43.59 31.67M0.88 93.59L0.81 93.79M3.19 15.16L3.47 14.95M85.24 82.96L84.54 81.53M44.47 77.54L44.56 77.09M43.51 78.25L43.83 78.19M43.38 78.28L43.51 78.25M42.24 77.33L42.29 77.54M42.23 76.9L42.19 77.08M11.24 3.71L15.61 1.79M83.61 57.22L83.38 57.99M84.87 38.91L83.62 40.21M44.69 31.15L44.75 31.04M3.43 14.42L3.47 14.95M3.4 13.98L3.43 14.42M84.67 69.26L84.43 68.74M3.95 57.19L3.68 57.83M4.12 56.77L3.95 57.19M83.57 58.33L83.43 58.07M85.9 15.5L85.9 15.19M3.54 47.77L3.22 48.39M43.83 75.97L43.51 75.91M83.43 12.05L85.13 12.56M43.38 34.76L42.16 34.92M83.2 57.66L82.74 56.86M0.67 20.07L0.67 19.4M2.31 27.32L2.49 25.97M86.02 89.94L85.93 90.87M3.87 56.69L3.95 57.19M3.86 56.66L3.87 56.69M85.18 80.19L85.17 80.29M9.12 8.86L6.52 11.58M4.38 23.89L4.58 24.49M2.3 27.42L2.31 27.32M6.52 11.58L5.35 12.8M39.01 1.05L39.46 1.06M24.26 0.68L39.01 1.05M6.02 26.63L6.42 27.33M86.23 94.09L86.14 93.81M85.32 25.75L85.1 25.2M78.81 7.74L81.08 9.69M0.81 93.77L0.84 93.61M84.54 81.53L84.09 80.62M4.27 23.57L6.02 26.63M85.35 77.76L85.18 80.19M4.27 23.57L4.38 23.89M0.81 93.79L0.81 93.77M1.69 81.65L1.43 82.6M2.21 79.72L1.69 81.65M85.78 92.62L85.76 92.15M86.14 93.81L85.79 92.78M84.35 68.56L84.61 67.57M85.88 16.5L85.89 15.98M0.81 93.79L0.75 93.96M1.14 101.05L1.23 101.05M84.61 67.57L84.61 67.56M0.89 101.03L1.14 101.05M81.08 9.69L82.71 11.1M0.67 19.4L0.66 19.07M85.1 25.2L84.94 24.82M44.69 31.15L45.24 31.25M6.04 30.58L5.57 29.8M3.37 47.85L3.32 47.09M43.65 44.77L48.61 44.95M68.14 44.94L76.22 43.81M3.49 40.22L3.32 40.79M36.58 40.82L38.65 40.83M78.03 64.5L74.66 64.13M82.69 100.07L83.99 100.79M3.5 58.25L2.56 61.53M81.36 98.87L82.69 100.07M39.46 1.06L43.38 1.84M4.47 11.31L5.2 9.16M57.47 49.26L48.55 49.31M84.01 47.1L84.16 46.43M38.64 41.24L23.71 41.1M83.03 78.69L80.56 77.78M84.06 79.88L83.03 78.69M73.72 77.56L77.54 77.89M44.56 77.09L45.08 76.82M3.08 67.28L3.11 67.93M84.11 68.02L84.01 67.35M43.38 64.63L39.22 64.36M84.09 80.62L84.06 79.88M1.97 68.29L1.84 64M9.57 63.95L14.5 63.62M14.63 64.11L9.75 64.48M77.5 77.18L73.73 76.87M66.72 64.05L56.25 64.05M56.28 63.58L66.8 63.52M74.66 64.13L66.72 64.05M56.25 64.05L48.37 64.22M66.8 63.52L74.77 63.77M45.1 76.38L44.48 76.69M2.44 55.46L2.22 51.78M2.72 56.22L3.25 57.58M2.44 55.46L2.72 56.22M24.82 54.29L13.19 54.24M13.04 53.72L24.74 53.86M57.47 49.26L67.84 48.96M83.06 79.45L84.09 80.62M80.61 78.52L83.06 79.45M17.52 0.96L24.5 0.16M3.13 22.27L3.34 25.35M4.25 23.13L4.27 23.57M0.67 20.07L0.62 19.81M2.25 21.59L0.67 20.07M0.46 17.26L2.69 15.51M3.86 14.12L6.02 9.1M3.19 15.16L3.43 14.42M5.67 8.34L11.44 3.25M15.61 1.79L11.44 3.25M5.61 24.24L5.41 24.04M25.97 25.86L12.63 25.96M12.63 25.96L11.99 25.87M43.38 9.52L38.98 9.19M5.93 29.37L3.34 25.35M6.73 25.34L6.49 24.86M83.37 57.96L84.11 55.57M43.38 24.02L39.35 24.71M67.35 9.61L57.19 9.34M38.99 8.59L43.38 8.91M17.15 4.59L24.8 3.26M39.23 3.58L24.8 3.26M83.99 100.79L84.19 100.88M85.33 19.71L84.79 18.64M86.56 99.31L86.44 100.03M84.87 101.08L85.12 101.1M84.49 20.38L84 19.32M55.75 26.21L48.13 24.87M82.26 23.69L81.5 25.05M79.41 23.81L75.39 25.07M67.61 4.11L77.08 6.93M6.42 27.33L7.08 28.21M43.38 3.56L39.23 3.58M3.98 56.1L3.86 56.66M2.29 33.44L2.53 32.58M24.83 3.58L39.19 3.84M7.97 11.89L8.74 11.24M0.89 101.03L0.28 97.74M38.98 9.19L24.91 9.03M82.38 21.82L79.41 23.81M4.47 24.63L7.05 28.39M2.78 54.83L3.86 56.66M6.71 11.21L6.52 11.58M7.05 28.39L12.45 31.54M83.23 56.94L83.2 57.66M2.49 25.97L2.73 24.94M48.13 24.87L43.65 24.06M76.7 6.63L67.37 3.86M39.19 3.84L43.38 3.81M2.65 67.08L3.09 67.97M78.81 7.74L77.08 6.93M12.42 31.19L7.08 28.21M1.23 101.05L2.34 100.96M76.7 6.63L77.08 6.93M1.98 31.14L2.3 27.42M12.45 31.54L26.18 30.64M75.39 25.07L66.45 26.24M26.18 30.26L12.42 31.19M84.78 18.73L84.74 18.67M4.95 13.91L5.35 12.8M10.25 7.32L6.71 11.21M48.52 9.49L43.65 9.52M26.18 30.64L39.33 27.84M6.02 26.63L4.58 24.49M85.78 92.62L85.89 91.38M0.62 19.81L0.67 19.4M39.32 27.63L26.18 30.26M84.54 81.53L85.17 80.29M2.35 66.27L2.65 67.08M57.19 9.34L48.52 9.49M84.96 64.86L84.61 67.56M86.07 16.83L85.89 15.98M2.57 54.35L2.78 54.83M4.38 23.89L4.47 24.63M8.74 11.24L16.26 9.2M0.59 95.15L0.63 94.9M43.38 26.98L39.32 27.63M55.54 29.08L48.13 27.87M17.15 4.59L10.25 7.32M79.51 99.31L73.84 98.87M2.26 101.53L0.92 101.3M0.92 101.3L0.24 100.51M0.13 99.8L0.24 100.51M78.46 28.04L81.54 25.26M0.13 99.8L0 98.93M74.56 29.52L78.46 28.04M81.5 25.05L78.48 27.61M48.62 3.3L43.65 3.56M74.62 28.96L66.05 29.99M66.05 29.99L55.54 29.08M10.97 99.16L5.45 99.67M65.68 98.62L55.55 98.45M0.59 95.15L0.38 96.14M1 89.67L1.3 91.89M1.07 84.81L1.36 83.7M48.13 27.87L43.65 27M66.01 30.46L74.56 29.52M73.84 98.87L65.68 98.62M43.65 27.2L48.12 28.1M45.98 76.59L45.08 76.82M1.47 80.55L1.69 81.65M39.33 27.84L43.38 27.18M2.69 101.26L2.26 101.53M1.62 75.61L2.22 78.98M81.54 25.26L83.34 21.95M48.65 3.57L57.13 3.61M57.09 3.32L48.62 3.3M67.37 3.86L57.09 3.32M55.52 29.42L66.01 30.46M16.11 98.9L10.97 99.16M0.77 92.38L0.81 93.77M86.18 93.09L86.14 93.81M0.38 96.14L0 98.93M48.44 98.41L43.65 98.49M1.26 92.5L2.36 91.82M1.3 91.89L1.26 92.5M10.22 7.68L17.14 4.93M12.12 32.75L11.69 32.63M43.65 3.81L48.65 3.57M84.49 20.38L84.22 22.48M78.48 27.61L74.62 28.96M55.55 98.45L48.44 98.41M57.13 3.61L67.61 4.11M26.71 98.61L16.11 98.9M83.02 101.26L81.66 100.28M83.34 21.95L83.38 21.76M48.12 28.1L55.52 29.42M86.78 98.41L86.91 99.24M25.57 32.69L12.12 32.75M0.84 93.61L0.89 93.01M2.36 91.82L5.42 91.17M27.32 89.61L39.05 90.53M75.21 90.51L80.25 90.94M54.93 90.01L48.21 90.4M43.71 91.26L48.24 91.11M5.42 91.17L8.92 90.82M5.62 90.52L2.44 91.16M84.95 91.23L83.09 90.68M80.25 90.94L83.26 91.33M83.09 90.68L80 90.31M65.56 90.85L75.21 90.51M75.06 89.82L65.54 90.18M55.01 90.73L65.56 90.85M65.54 90.18L54.93 90.01M83.26 91.33L85.02 91.88M43.3 90.54L39.08 89.76M80 90.31L75.06 89.82M27.4 88.8L15.45 89.93M39.05 90.53L43.3 91.28M15.47 90.61L27.32 89.61M9.12 90.15L5.62 90.52M48.24 91.11L55.01 90.73M39.08 89.76L27.4 88.8M2.44 91.16L1.3 91.89M8.92 90.82L15.47 90.61M2.21 79.72L3.69 78.58M2.22 78.98L2.21 79.72M15.45 89.93L9.12 90.15M3.72 77.85L2.22 78.98M10.29 75.91L6.99 76.49M6.99 76.49L3.72 77.85M7.04 77.25L10.36 76.68M42.22 77.32L42.24 77.33M26.71 76.49L40.87 77.11M85.02 91.88L85.79 92.78M3.69 78.58L7.04 77.25M10.36 76.68L15.3 76.61M55.62 76.53L46.02 76.12M15.3 76.61L26.71 76.49M15.24 75.91L10.29 75.91M45.98 76.59L55.54 76.98M65.95 76.5L55.62 76.53M55.54 76.98L65.89 77.14M73.73 76.87L65.95 76.5M65.89 77.14L73.72 77.56M80.56 77.78L77.5 77.18M77.54 77.89L80.61 78.52M42.23 76.9L42.22 76.9M40.87 76.68L26.7 75.85M26.7 75.85L15.24 75.91M48.21 90.4L43.71 90.55M85.76 92.15L84.95 91.23M38.68 45.03L43.38 44.77M48.37 64.22L43.65 64.68M83.07 66.44L80.77 65.38M43.65 64.31L48.37 63.82M85.16 73.92L84.67 69.26M85.35 77.76L85.16 73.92M48.46 54.46L43.65 54.9M57.22 53.89L67.46 53.91M80.69 64.82L82.98 65.94M75 54.2L67.4 54.31M86.39 101.51L85.36 101.92M86.45 95.48L86.23 94.09M48.37 63.82L56.28 63.58M48.56 48.77L57.49 48.78M47.22 1.2L48.05 0.91M0.08 18.63L0.05 18.47M2.56 61.53L2.35 66.27M39.17 64.03L43.38 64.34M43.38 37.15L38.76 37.4M57.2 54.24L48.46 54.46M43.38 49.14L38.79 49.16M86.75 98.24L86.78 98.41M67.4 54.31L57.2 54.24M43.38 45.16L38.69 45.47M67.46 53.91L75.1 53.81M86.88 97.53L86.45 95.48M87 100.88L86.39 101.51M78.24 63.95L80.69 64.82M43.38 35.75L39.85 35.22M74.77 63.77L78.24 63.95M86.02 89.94L85.64 83.78M42.16 34.92L43.38 34.9M0.05 18.47L0.46 17.26M38.96 54.2L43.38 54.43M85.36 101.92L84.18 102M78.27 54.63L75 54.2M43.38 54.96L38.98 54.72M84.11 68.02L83.07 66.44M86.91 99.24L87 100.88M43.65 48.7L48.56 48.77M48.55 49.31L43.65 49.14M80.77 65.38L78.03 64.5M43.65 54.41L48.47 54.08M82.98 65.94L84.01 67.35M48.47 54.08L57.22 53.89M82.94 20.72L83.89 19.42M84.18 102L83.02 101.26M81.66 100.28L79.51 99.31M2.58 60.65L2.49 61.61M75.27 3.99L75.67 4.27M10.74 35.49L5.53 32.88M1.8 72.46L2 71.92M65.86 0.19L66.03 0.2M3.63 66.43L6.5 64.7M5.47 47.25L3.86 47.18M73.97 3.52L75.29 3.92M3.7 46.59L5.27 46.79M82.58 26.14L79.31 29.21M78.83 5.74L80.01 6.46M1.2 77.89L1.8 72.46M6.5 64.7L9.57 63.95M8.59 54.53L6.18 55.35M85.33 19.71L84.78 18.73M6.18 55.35L4.12 56.77M1.47 80.55L1.2 77.89M75.47 3.23L66.03 0.2M6.63 65.26L3.71 67M23.91 36.09L11.08 33.6M3.98 56.1L5.84 54.82M3.52 35.16L5.53 37.77M3.71 67L3.11 67.93M4.61 42.47L3.32 40.79M0.78 91.04L1.07 84.81M55.68 0L54.09 0.31M2.27 41.35L2.2 44.7M80.68 8.84L81.08 9.69M3.49 40.22L4.69 41.88M23.91 36.09L38.84 35.36M55.86 0L55.68 0M82.85 20.89L82.38 21.82M3.08 67.28L3.63 66.43M2.4 37.94L3.49 40.22M2.29 33.44L2.4 37.94M5.53 37.77L10.78 39.66M75.17 31.55L79.31 29.21M85.43 22.92L85.33 19.71M80.45 6.95L80.01 6.46M9.75 64.48L6.63 65.26M5.84 54.82L8.37 54.01M5.27 46.79L7.28 47.19M40.15 32.07L25.57 32.69M84.22 22.48L82.58 26.14M23.59 37.29L10.74 35.49M0.77 92.38L0.78 91.04M79.96 7.96L80.04 8.17M5.45 99.67L2.69 101.26M86.34 14.18L86.29 15.03M66.5 0.84L56.43 0.08M3.32 40.79L2.27 41.35M80.77 7.18L83.43 12.05M7.47 47.66L5.47 47.25M2.27 69.92L1.97 68.29M11.73 44.46L6.89 43.58M82.85 11.87L79.41 11.23M65.86 0.19L55.86 0M83.79 21.06L83.9 19.41M85.24 18.24L86.07 16.83M75.67 4.27L79.91 7.94M79.61 23.48L82.53 21.47M6.89 43.58L4.61 42.47M2.99 59.65L2.58 60.65M85.13 12.56L86.34 14.18M48.55 35.06L43.65 34.88M66.54 33.57L55.8 33.18M84.97 37.23L84.97 32.76M84.91 25.64L83.96 29.72M70.43 40.19L68.22 40.58M84.97 37.23L84.87 38.91M83.19 41.21L81.74 42.42M83.96 29.72L81.14 33.08M66.45 26.24L55.75 26.21M84.12 40.66L83.62 40.21M81.71 41.89L83.26 40.58M83.34 40.5L83.19 41.21M4.69 41.88L6.81 42.97M83.98 27.22L81 30.92M38.69 45.47L23.95 45.76M85.38 44.29L84.12 40.66M48.63 40.74L52.48 40.84M38.65 40.83L43.38 40.7M57.78 41.28L48.63 41.13M85.77 29L85.35 31.92M68.22 40.58L57.78 41.28M76.22 43.81L79.54 43.07M79.54 43.07L81.71 41.89M49.01 32.09L46.89 31.94M38.98 54.72L24.82 54.29M81.74 42.42L79.52 43.59M48.14 24.55L55.82 25.85M13.19 54.24L8.59 54.53M14.5 63.62L26.07 63.65M46.89 31.94L45.24 31.25M26.14 64.02L14.63 64.11M6.81 42.97L11.66 43.98M81.37 37.62L77.23 39.07M23.9 45.27L38.68 45.03M85.77 29L85.32 25.75M81.14 33.08L76.94 35.04M76.94 35.04L68.3 36.95M23.71 41.1L18.58 40.43M24.24 49.17L12.12 48.43M39.22 64.36L26.14 64.02M75.17 31.55L66.54 33.57M60.85 35.26L67.97 35.14M24.74 53.86L38.96 54.2M38.79 49.16L24.24 49.17M67.97 35.14L71.16 34.32M43.65 34.74L48.51 34.95M57.5 37.69L48.57 37.52M43.65 23.75L48.14 24.55M8.37 54.01L13.04 53.72M23.95 45.76L11.73 44.46M12.12 48.43L7.47 47.66M52.9 35.19L48.55 35.06M38.76 37.4L23.59 37.29M83.93 35.07L81.37 37.62M48.57 37.52L43.65 37.13M11.97 47.93L24.18 48.7M81 30.92L76.62 33.22M26.07 63.65L39.17 64.03M55.82 25.85L66.53 25.84M68.29 40.54L57.75 41.03M7.28 47.19L11.97 47.93M43.38 41.1L38.64 41.24M68.3 36.95L57.5 37.69M11.66 43.98L23.9 45.27M81.61 47.28L78.92 47.75M78.92 47.75L75.63 48.28M67.9 48.58L75.72 47.94M80.97 54.87L83.03 55.78M84.16 46.43L84.64 45.61M81.77 46.99L83.88 46.73M82.74 56.86L82.57 56.1M57.63 45.7L48.6 45.41M57.49 48.78L67.9 48.58M75.72 47.94L79.02 47.43M85.02 54.14L84.81 48.39M48.63 41.13L43.65 41.09M43.65 40.7L48.63 40.74M68.1 45.44L57.63 45.7M76.14 44.29L68.1 45.44M75.1 53.81L78.39 54.29M80.73 55.17L78.27 54.63M84.81 48.39L84.01 47.1M82.57 56.1L80.73 55.17M84.22 59.87L83.57 58.33M84.96 64.86L84.22 59.87M85.93 90.87L86.18 93.09M83.03 55.78L83.23 56.94M83.61 57.22L83.43 58.07M48.6 45.41L43.65 45.16M78.39 54.29L80.97 54.87M85.38 44.29L84.64 45.61M83.71 47.25L81.61 47.28M79.52 43.59L76.14 44.29M84.01 47.1L83.71 47.25M79.02 47.43L81.77 46.99M57.66 45.31L68.14 44.94M83.88 46.73L84.16 46.43M48.61 44.95L57.66 45.31M75.63 48.28L67.84 48.96M2.49 61.61L2.93 59.96M1.84 64L2.49 61.61M4.34 99.66L4.47 99.54M49.01 32.09L46.75 31.72M60.85 35.26L56.77 35.39M48.51 34.95L52.9 35.19M85.35 31.92L84.97 32.76M52.48 40.84L48.61 40.7M57.75 41.03L52.48 40.84M42.45 31.08L40.15 32.07M3.06 45.78L3.7 46.59M23.72 40.94L18.58 40.43M70.43 40.19L68.29 40.54M83.23 56.94L84.11 55.57M84.35 68.56L84.11 68.02M39.85 35.22L38.84 35.36M23.72 40.94L36.58 40.82M2.53 32.58L3.52 35.16M3.68 57.83L3.5 58.25M44.68 31.19L44.47 31.42M82.26 23.69L83.38 21.76M71.16 34.32L67.64 35.03M43.65 30.66L44.75 31.04M77.23 39.07L70.43 40.19M86.75 98.24L86.88 97.53M2.27 69.92L2.18 70.14M1.36 83.7L1 89.67M2.99 59.65L3.3 58.04M2.34 100.96L2.72 101.15M67.64 35.03L60.85 35.26M86.56 99.31L86.75 98.24M83.89 19.42L83.68 19.61M42.45 31.08L42.49 31.19M82.74 56.86L82.46 56.36M1.43 82.6L1.36 83.7M52.9 35.19L56.77 35.39M42.49 31.19L42.7 31.42M83.34 40.5L83.26 40.58M1.98 31.14L2.53 32.58M3.22 48.39L2.5 49.73M84.91 25.64L84.94 24.82M84.97 32.76L83.93 35.07M2.69 15.51L3.19 15.16M82.53 21.47L82.85 20.89M2.72 101.15L4.34 99.66M2 71.92L1.62 75.61M1.91 100.74L2.34 100.96M2.18 70.14L2 71.92M54.09 0.31L56.43 0.08M2.93 59.96L2.99 59.65M2.9 68.3L2.27 69.92M18.58 40.43L10.78 39.66M36.58 40.82L38.66 40.8M84.94 24.82L84.96 24.29M44.75 31.04L46.75 31.72M76.28 5.06L80.16 8.39M43.38 30.68L42.45 31.08M2.2 44.7L3.06 45.78M76.62 33.22L71.16 34.32M55.8 33.18L49.01 32.09M82.85 20.89L82.94 20.72M82.85 11.87L82.94 11.9M80.16 8.39L80.68 8.84M48.05 0.91L54.09 0.31M79.48 10.73L82.8 11.68M10.22 7.68L9.12 8.86M40.87 77.11L42.22 77.32M17.14 4.93L24.83 3.58M11.89 26.28L6.73 25.34M42.54 77.93L42.92 78.19M43.38 27.18L43.51 27.12M16.03 9.77L8.47 11.73M82.71 11.1L83.12 11.95M43.51 3.62L43.51 3.88M66.53 25.84L75.49 24.68M75.49 24.68L79.61 23.48M43.38 96.37L43.51 96.32M43.51 26.91L43.38 26.98M43.98 31.63L44.3 31.53M43.51 27.12L43.65 27.2M42.92 75.97L42.54 76.23M6.6 24.94L11.99 25.87M43.38 8.91L43.51 8.94M43.51 1.91L43.51 3.62M43.83 78.19L44.21 77.93M43.65 3.56L43.51 3.62M46.02 76.12L45.1 76.38M44.47 76.62L44.33 76.4M16.26 9.2L24.87 8.43M43.51 3.62L43.38 3.56M43.65 27L43.51 26.91M26.01 26.26L11.89 26.28M43.51 93.7L43.45 91.26M43.65 98.49L43.51 98.46M75.36 10.36L67.35 9.61M75.66 9.94L79.48 10.73M43.51 15.91L43.38 15.91M44.3 31.53L44.47 31.42M43.51 23.97L43.38 24.02M43.65 15.91L43.51 15.91M43.51 96.32L43.65 96.36M42.87 31.53L43.19 31.63M43.65 24.06L43.51 23.97M43.51 3.88L43.65 3.81M43.51 26.91L43.51 27.12M43.65 9.52L43.51 9.55M43.38 30.68L43.51 30.58M42.7 31.42L42.87 31.53M42.54 76.23L42.29 76.62M43.51 8.94L43.51 9.55M43.51 98.46L43.38 98.53M43.51 87.79L43.45 90.54M43.38 3.81L43.51 3.88M43.3 91.28L43.45 91.26M43.45 90.54L43.3 90.54M82.8 11.68L82.94 11.9M43.51 23.66L43.51 23.97M44.21 77.93L44.47 77.54M43.38 75.88L42.92 75.97M57.2 8.7L67.4 8.99M42.22 76.9L40.87 76.68M42.29 77.54L42.54 77.93M75.29 3.92L79.96 7.96M79.41 11.23L75.36 10.36M43.59 31.67L43.98 31.63M42.92 78.19L43.38 78.28M44.19 76.22L43.83 75.97M43.51 34.84L43.51 34.69M43.38 23.72L43.51 23.66M43.51 34.84L43.51 35.7M0.82 101.04L0.92 101.07M43.51 9.55L43.38 9.52M43.38 1.84L43.51 1.91M43.51 55.02L43.51 54.33M43.51 44.66L43.65 44.77M43.51 30.58L43.65 30.66M43.51 41.08L43.38 41.1M43.51 34.69L43.65 34.74M43.51 41.08L43.51 40.65M43.38 40.7L43.51 40.65M43.65 64.68L43.51 64.75M43.51 48.64L43.65 48.7M43.38 48.71L43.51 48.64M43.51 64.75L43.38 64.63M43.51 37.02L43.51 35.7M43.38 54.43L43.51 54.33M43.51 40.65L43.65 40.7M43.51 37.02L43.38 37.15M85.12 101.1L85.92 100.97M85.92 100.97L86.17 100.51M85.87 15.02L85 15.33M85.9 15.19L85.87 15.02M85 15.33L81.56 15.97M81.56 15.97L78.01 16.56M78.01 16.56L74.12 16.87M74.12 16.87L66.52 16.73M66.52 16.73L56.86 16.35M43.51 8.94L43.65 8.92M43.65 37.13L43.51 37.02M43.38 44.77L43.51 44.66M43.51 64.22L43.65 64.31M3.81 56.73L3.87 56.69M48.47 16.34L43.65 15.91M43.38 15.91L39.02 15.98M43.38 34.9L43.51 34.84M56.86 16.35L48.47 16.34M39.02 15.98L25.28 16.34M25.28 16.34L14.24 17.9M14.24 17.9L8.46 18.45M8.46 18.45L4.33 18.33M43.65 49.14L43.51 49.11M0.59 18.92L0.69 18.95M43.51 54.33L43.65 54.41M43.51 49.11L43.51 48.64M43.51 64.22L43.51 64.75M43.45 90.54L43.45 91.26M43.51 45.15L43.38 45.16M43.71 90.55L43.45 90.54M43.51 35.7L43.38 35.75M43.51 55.02L43.38 54.96M43.51 45.15L43.51 44.66M43.51 23.66L43.65 23.75M43.65 54.9L43.51 55.02M43.65 41.09L43.51 41.08M43.51 1.91L43.65 1.84M43.65 34.88L43.51 34.84M1.14 101.1L0.92 101.07M43.45 91.26L43.71 91.26M43.38 64.34L43.51 64.22M43.65 45.16L43.51 45.15M43.51 49.11L43.38 49.14M11.2 97.06L15.66 96.79M3.37 47.85L3.54 47.77M4.33 18.33L1.46 18.61M84.61 67.67L84.61 67.57M0.89 101.03L0.92 101.07M4.34 99.66L7.96 97.55M7.96 97.55L11.2 97.06M15.66 96.79L26.78 96.32M43.65 96.36L48.43 96.28M0.89 93.01L1.14 92.85M84.43 68.74L84.61 67.67M38.9 96.2L43.38 96.37M3.22 57.27L3.81 56.73M86.29 15.03L85.9 15.5M1.46 18.61L0.86 18.64M85.24 82.96L85.18 80.41M55.55 96.35L65.66 96.52M26.78 96.32L38.9 96.2M3.82 14.71L3.86 14.12M85.04 24.07L85.1 25.2M0.08 18.63L0.59 18.92M2.31 27.32L2.28 27.24M1.67 25.53L2.28 27.24M65.66 96.52L73.4 96.89M0.84 93.61L0.88 93.59M73.4 96.89L78.35 97.32M78.35 97.32L80.1 98.2M84.19 100.88L84.87 101.08M48.43 96.28L55.55 96.35M3.3 58.04L3.68 57.83M85.18 80.19L85.18 80.41M0.86 18.64L0.7 18.89M0.92 101.07L1.14 101.05M85.89 91.29L85.91 91.5M3.32 47.09L3.8 46.95"/></svg>
