<svg xmlns="http://www.w3.org/2000/svg" viewBox="0 0 102 102" fill="none" stroke="currentColor" stroke-width="0.32" stroke-linejoin="round" stroke-linecap="round"><path d="M89.89 48.29L80.95 49.26M100.92 31.95L100.91 31.99M64.84 44.67L59.53 44.86M81.03 48.63L89.93 47.77M99.35 40.23L99.38 39.92M101.93 79.81L101.95 80.87M101.54 91.23L102 84.71M99.04 96.01L101.3 91.94M101.3 91.94L101.54 91.23M98.93 96.03L99.04 96.01M65.23 44.66L68.73 44.71M61.27 31.92L62.89 31.15M45.06 35.95L39.2 36.41M54.23 49.59L59.51 48.79M98.34 11.93L98.64 12.6M32.53 29.36L30.35 29.65M80.95 49.26L74.11 49.65M74.11 49.65L67.82 49.45M64.64 49.28L59.48 49.39M68.69 31.29L66.84 31.2M48.21 65.02L49.45 65.07M45.67 98.2L45.96 98.33M46.5 52.87L46.66 51.27M33.74 51.05L33.71 43.1M59.2 41.36L52.97 41.8M29.21 50.39L29.24 40.65M65.05 48.73L67.89 48.89M29.08 50.31L29.14 40.53M26.03 49.61L26.54 38.63M25.71 49.54L26.24 38.46M53.27 45.41L59.53 44.86M75.26 41.12L69 41.03M44.93 42.46L49.18 41.92M99.27 69.03L98.09 68.55M95.65 67.28L98.01 67.85M83.01 66.96L90.94 66.86M98.76 46.04L99.73 45.97M97.27 42.15L94.66 43.38M59.17 41L64.91 40.85M90.94 66.86L95.65 67.28M67.89 48.89L74.2 49.06M68.73 44.71L74.99 45.13M48.69 46.26L51.77 45.69M91.85 7.49L88.59 5.7M42.41 39.77L44.66 39.24M46.88 53.04L47.07 51.57M59.48 49.39L54.29 50.24M101.87 77.64L101.57 75.43M42.92 52.51L43.05 48.65M33.9 51.1L33.95 43.21M98.01 67.85L99.16 68.35M100.78 49.76L100.41 47.76M98.68 46.74L97.33 47.01M69 41.03L65.29 41.19M58.95 35.43L53.01 35.69M100.97 66.43L100.94 66.94M100.57 69.9L99.27 69.03M95.73 67.99L91 67.54M74.93 45.64L68.67 45.17M52.94 41.5L59.17 41M89.93 47.77L94.29 46.96M47.43 38.85L42.72 40.1M98.09 68.55L95.73 67.99M101.87 77.64L101.93 79.81M100.11 46.8L99.76 46.64M100.44 69.18L100.79 70.37M97.33 47.01L94.27 47.45M52.42 38.6L58.99 37.93M59.54 45.24L53.41 45.8M18.02 55.59L17.76 60.06M17.62 63.94L17.74 60.52M18.16 48.1L18.02 55.59M18.37 87.25L18.07 82.82M20.37 20.24L18.8 22.85M17.7 69.83L17.62 63.94M46.9 65.18L46.94 65.36M46.56 64.99L46.47 65.18M18.07 82.82L18.01 76.34M42.71 65.19L42.83 65.38M39.5 65.17L39.58 65.17M42.62 52.48L42.78 48.49M39.66 48.53L39.68 46.66M18.17 91.71L18.37 87.25M43.15 65.21L42.71 65.19M25.01 62.11L24.74 62.02M50.28 65.12L50.34 64.92M15.81 101.93L14.01 98.93M50.87 65.12L50.28 65.12M46.47 65.18L46.9 65.18M24.74 62.02L24.89 61.86M17.76 60.06L17.73 60.29M24.74 62.02L24.24 61.86M17.73 60.29L17.94 60.33M18.01 76.34L17.7 69.83M48.41 97.76L48.41 97.75M8.87 60.25L9.42 60.23M17.96 96.5L18.17 91.71M37.01 65.29L36.54 65.32M37.09 65.47L37.01 65.29M24.88 62.24L24.74 62.02M43.17 65.01L43.15 65.21M50.89 65.29L50.87 65.12M5.4 60.41L5.49 60.41M27.67 63.15L27.53 63.07M31.99 65.09L31.86 65.02M46.9 65.18L48.21 65.02M17.74 60.52L17.73 60.29M17.73 60.29L17.54 60.25M17.96 96.5L17.7 101.3M36.75 44.28L36.96 51.49M17.56 102L17.73 101.88M17.7 101.3L17.73 101.88M18.16 48.1L17.63 35.8M15.81 101.93L17.56 102M58.61 65.22L52.06 65.1M17.73 101.88L17.95 101.81M39.67 65.35L39.58 65.17M17.63 35.8L18.8 22.85M94.27 47.45L89.89 48.29M100.11 46.77L100.11 46.72M65.02 49.28L67.82 49.45M54.29 50.24L53.13 51.04M52.73 50.6L54.23 49.59M94.34 55.89L96.82 56.3M94.29 46.96L97.48 46.4M100.78 49.76L100.68 54.93M49.15 46.73L52.04 46.1M97.48 46.4L98.76 46.04M51.96 51.24L52.73 50.6M74.2 49.06L81.03 48.63M100.63 55.17L100.01 57.91M81.69 57.32L89.95 55.82M4.99 90.48L2.98 85.31M27.98 66.03L29.83 71.2M4.99 90.48L5.28 90.9M1.97 76.87L1.94 76.65M8.83 70.13L8.9 64.06M8.9 64.06L8.76 60.44M27.86 66.01L27.68 63.27M30.98 84.71L30.71 77.7M9.45 64.02L9.35 70.06M5.25 60.21L5.5 56.74M3.89 45.12L3.4 32.66M1.28 76.17L2.8 84.37M25.15 57.23L25.71 49.54M8.83 33.51L9.43 46.3M34.35 78.68L34.05 86.28M29.83 71.2L30.94 77.75M1.19 12.55L0.08 31.07M12.85 98.33L13.78 98.47M9.43 46.3L9.33 55.79M10.8 94.16L8.22 90.51M23.73 99.5L25.67 99.86M3.32 85.21L5.16 89.97M30.44 97.56L27.55 99.09M33.86 93.72L30.44 97.56M33.86 93.72L36.4 87.57M19.99 99.44L22.22 99.66M8.86 46.18L8.26 33.44M21.04 98.18L21.33 98.21M3.79 70.91L4.43 64.19M1.21 70.07L2.39 62.76M29.67 71.18L27.86 66.01M9.37 95.77L12.85 98.33M36.4 87.57L37.84 79.82M28.49 58L27.83 62.96M25.43 57.32L25.15 61.94M34.19 73.46L34.24 77.12M34 73.37L33.1 68.49M3.71 56.14L1.66 45.29M27.7 62.89L28.31 57.97M30.94 77.75L31.22 84.74M3.59 32.69L4.05 45.11M5.34 60.21L5.51 56.46M5.11 90L3.26 85.19M31.22 84.74L30 90.61M9.33 55.79L9.32 60.04M29.21 95.72L26.25 97.47M9.31 60.42L9.45 64.02M5.16 89.97L8.36 93.88M8.77 60.06L8.77 55.85M5.5 56.74L3.89 45.12M1.54 76.74L1.79 70.24M34.05 86.28L31.92 91.84M27.81 63.35L27.98 66.03M4.55 64.24L3.96 70.91M25.15 62.33L25.3 65.51M1.28 76.17L1.21 70.07M8.78 95.28L5.28 90.9M3.26 85.19L2.58 80.77M31.92 91.84L29.21 95.72M3.06 59.52L2.54 56.85M30.71 77.7L29.67 71.18M26.25 97.47L21.33 98.21M4.05 45.11L5 52.19M0.76 32.44L1.66 45.29M50.11 98.13L52.13 98.51M69.61 98.76L69.01 98.79M42.6 97.22L44.72 97.96M49.32 92.15L50.13 87.75M33.9 51.1L34.12 61.65M37.04 38.56L36.75 44.28M70.91 95.81L71.44 97.01M2.66 11.19L2.51 12.21M70.75 96.91L70.21 95.73M70.32 93.43L70.91 95.81M48.31 97.46L48.4 96.58M5.05 15.93L8.79 8.15M5.22 16.06L3.59 32.69M33.71 61.65L33.74 51.05M10.3 18.08L8.83 33.51M49.2 97.79L49.15 97.78M41.84 97.77L40.09 98.8M49.37 95.17L49.09 96.48M42.97 74.39L42.78 68.87M49.82 92.12L49.37 95.17M51.82 73.57L51.56 79.44M46.88 53.04L46.79 59.64M51.25 67.94L51.82 73.57M72.89 98.6L71.66 98.24M71.44 97.01L72.37 98.36M48.41 97.76L48.13 97.82M39.59 59.1L39.73 52.03M26.03 49.61L25.43 57.32M39.97 43.97L40.42 41.75M50.97 54.12L50.54 59.73M43.46 96.54L44.23 95.28M50.02 59.74L50.39 54.05M36.93 52.59L37.05 59.14M49.12 97.79L49.23 97.8M48.41 97.75L48.31 97.46M44.23 95.28L45.34 92.77M42.82 65L42.65 59.15M61.22 97.93L57.8 98.35M2.75 13.99L2.14 21.06M34.47 37.55L33.95 43.21M48.99 97.48L49.14 97.78M3.11 13.08L6.04 7.94M42.92 52.51L43 59.19M42.67 80.31L42.97 74.39M8.93 8.3L5.22 16.06M43.87 96.51L42.6 97.22M42.65 59.15L42.62 52.48M40.76 42.06L39.68 46.66M46.43 59.62L46.5 52.87M29.21 50.39L28.49 58M8.26 33.44L9.76 17.93M42.78 48.49L43.15 44.23M28.31 57.97L29.08 50.31M3.4 32.66L5.05 15.93M43.18 68.88L43.4 74.39M45.77 92.69L44.54 95.26M43.17 65.39L43.18 68.88M46.5 98.42L45.96 98.33M44.54 95.26L43.87 96.51M49.15 97.78L49.12 97.79M1.19 12.55L5.45 4.63M50.54 59.73L50.85 64.91M46.66 51.27L47.04 48.03M77.6 99.25L80.03 99.52M5.96 86.32L8.35 90.54M47.25 68.61L47.9 74.18M13.59 98.07L12.96 97.89M7.96 5.6L7.86 5.6M7.24 6.1L7.19 6.14M7.86 5.6L7.72 5.7M7.48 5.88L7.34 6M7.01 4.82L7.34 4.85M6.76 6.67L6.66 6.81M6.66 6.81L6.66 6.85M7.34 4.85L7.36 4.94M7.96 5.6L8.29 5.63M5.7 6.13L5.73 6.41M34.8 34.16L34.8 34.16M80.03 99.52L82.16 99.51M33.15 66.92L33.49 68.53M94.7 98.58L98.81 96.23M46.8 68.66L46.58 65.36M6.78 6.63L6.76 6.67M51.26 73.63L50.74 67.98M5.7 6.13L6.24 5.36M50.74 67.98L50.38 65.3M69.87 88.69L70.32 93.43M93.88 98.93L94.7 98.58M87.17 99.5L93.88 98.93M8.29 5.63L8.29 5.64M70.21 95.73L69.61 93.34M83.26 99.5L82.16 99.51M69.61 93.34L69.19 88.63M69.19 88.63L69.22 80.96M47.39 74.22L46.8 68.66M30.15 29.85L29.9 31.97M7.72 5.7L7.48 5.88M68.67 45.17L65.22 45.04M100.8 70.59L100.79 70.37M70.35 61.41L75.58 59.13M73.64 67.94L76.14 67.2M29.8 26.51L39.71 25.42M64.9 41.2L59.2 41.36M59.51 48.79L64.66 48.72M29.8 26.51L27.5 26.89M30.08 26.8L27.81 27.19M30.08 26.8L39.87 25.72M64.8 32.15L64.83 33.28M64.81 30.23L64.69 29.97M42.41 39.77L41.09 40.24M37.96 33.68L43.97 32.86M65.27 37.66L65.68 37.64M42.72 40.1L41.47 40.6M64.21 26.5L64.01 26.38M61.92 23.13L61.41 19.81M61.41 19.81L61.06 17.14M61.24 7.31L61.56 5.68M64.69 29.97L64.44 28.34M64.91 40.85L65.12 40.73M65.12 40.73L65.09 40.18M64.99 43.87L65 42.68M60.49 3.27L60.68 3.09M64.85 49.28L64.64 49.28M64.77 50.59L64.85 49.28M64.91 39.16L65.09 40.18M64.95 57.93L65.39 62.45M65.29 41.19L65.12 41.17M65.12 41.17L65 42.68M65.06 44.56L65.23 44.66M64.99 43.87L65.06 44.56M64.88 48.64L65.05 48.73M64.81 47.76L64.88 48.64M63.79 26.4L63.95 26.26M62.44 23.99L62.22 23.86M64.01 26.38L63.82 26.53M64.01 26.38L64.44 28.34M62.22 23.86L63.26 25.84M62.22 23.86L62.04 24M63.26 25.84L63.46 25.98M76.14 67.2L83.01 66.96M76.56 67.79L73.93 68.51M91 67.54L83.06 67.67M99.96 58.4L99.84 58.1M99.96 58.44L99.98 58.47M99.84 58.1L99.99 57.84M65.71 65.18L70.35 61.41M81.69 57.32L75.58 59.13M94.34 55.89L89.95 55.82M99.27 57.33L99.84 58.1M99.27 57.33L98.02 56.59M100.53 62.47L100.59 63.03M96.82 56.3L98.02 56.59M100.18 58.69L100.08 58.89M100.97 66.41L100.97 66.43M67.05 26.57L64.21 26.5M59.06 27.04L63.79 26.4M84.76 2.46L86.87 2.86M74.18 3.82L81.52 3.82M80.32 28.6L86.83 28.76M62.05 5.12L65.46 4.82M91.93 27.83L86.83 29M86.93 2.6L91.12 4.62M64.84 9.13L61.18 9.35M64.16 26.38L67.04 26.46M63.82 26.53L59.11 27.21M86.83 29L80.3 28.83M91.95 27.63L95.54 25.36M62.96 2.63L72.38 0.99M99.26 19.19L99.35 19.57M93.22 29.71L88.1 31.77M62.04 24L57.49 24.31M47.11 0.61L36.92 0.19M65.94 24.05L62.44 23.99M47.45 0.95L56.79 3.14M57.95 2.48L60.31 3.09M57.57 3.56L60.13 4.1M48.31 1.39L57.57 3.56M80.3 28.83L73.28 28.09M56.79 3.14L60.24 4.1M79.8 1.5L80.06 1.55M73.31 27.94L80.32 28.6M48.75 3.86L58.36 4.96M86.87 2.86L87.18 3.01M60.92 4.14L64.71 3.37M74.17 3.99L81.12 3.94M72.14 8.13L79.87 8.34M95.49 25.49L91.93 27.83M91.81 7.38L95.21 9.55M74.41 1.91L79.8 1.5M61.25 8.84L64.91 8.62M61.63 5.24L58.25 5.07M86.83 28.76L91.95 27.63M64.71 3.37L72.79 1.57M65.52 4.93L62.02 5.21M71.99 8.62L64.84 9.13M91.19 5.01L94.73 8.06M99.35 19.57L98.64 24.28M98.64 24.28L96.91 27.11M96.91 27.11L93.22 29.71M56.75 8.73L60.87 8.85M48.31 1.39L35.02 0.76M72.68 2.04L73.31 1.99M60.8 9.36L56.65 9.25M88.14 3.46L90.77 4.7M72.79 1.57L79.74 1.09M91.12 4.62L95.51 8.23M79.72 8.89L71.99 8.62M57.95 2.48L47.11 0.61M64.91 8.62L72.14 8.13M79.95 25.44L86.58 25.42M85.75 8.85L79.72 8.89M61.6 4.24L61.91 4.15M58.36 4.96L61.65 5.15M60.68 3.09L62.96 2.63M81.12 3.94L81.53 4M65.07 3.54L61.91 4.15M73.28 28.09L67.05 26.57M67.04 26.46L73.31 27.94M94.72 42.96L97.28 41.84M86.07 2.39L78.91 0.79M75.25 40.69L82.07 40.34M59.11 27.21L51.98 28.03M68.67 30.92L74.58 31.97M89.31 34.12L94.98 31.67M100.72 20.42L100.27 17.28M88.1 31.77L80.64 32.16M81.5 35.55L89.31 34.12M12.85 2.53L17.39 2.08M95.82 8.63L95.94 8.74M79.33 32.12L74.62 32.15M51.92 27.89L59.06 27.04M99.03 12.83L98.77 11.86M61.24 32.31L51.83 32.7M50.59 24.65L57.37 24.04M19.18 9.69L35.69 8.04M16.7 6.01L9.18 8.09M8.52 5.55L15.07 2.85M48.64 8.94L35.72 8.6M98.65 28.39L94.98 31.67M15.07 2.85L35.02 0.76M17.65 5.55L17.97 5.51M9.04 7.94L17.65 5.55M33.71 0.07L14.51 1.12M100.11 46.77L100.11 46.8M99.73 45.97L100.08 46.07M100.17 25.64L98.65 28.39M100.65 43.64L100.64 44.15M99.35 40.23L98.57 41.5M100.15 42.36L99.35 40.23M98.57 41.5L97.27 42.15M98.77 11.86L95.94 8.74M97.28 41.84L98.59 41.08M72.38 0.99L78.91 0.79M20.08 5.28L35.22 3.59M44.08 33.09L38.08 33.82M69 40.63L75.25 40.69M5.7 4.43L14.51 1.12M35.24 3.78L33.03 4.02M57.49 24.31L50.7 24.96M100.77 23.7L100.51 22.37M35.69 8.04L48.63 8.39M51.81 32.54L61.27 31.92M56.65 9.25L48.64 8.94M35.22 3.59L47.43 3.79M35.72 8.6L19.27 10.23M100.15 45.75L100.09 46.07M100.81 37.69L99.68 39.47M43.21 42.54L43.27 42.8M37.25 36.81L37.14 36.52M65.32 65.04L65.16 65.07M40.83 40.19L40.88 40.45M34.76 34.16L34.74 34.14M13.09 12.43L12.92 12.49M27.52 27.11L27.61 27.39M20.46 20.09L20.37 20.24M42.4 41.74L41.26 40.61M41.26 40.61L41.24 40.82M83.48 81.17L83.43 81.33M27.2 26.8L26.98 26.58M30.08 29.58L29.82 29.33M65.46 65.16L65.32 65.04M26.98 26.58L24.22 23.86M27.2 26.8L27.3 27.09M70.52 69.4L69.89 68.89M9.14 8.28L9 8.13M20.28 19.91L17.18 16.72M42.93 42.27L42.4 41.74M24.22 23.86L20.64 20.28M70.52 69.4L70.45 69.55M56.63 56.6L53.13 52.76M65.32 65.04L65.11 64.85M61.02 61.04L58.77 58.79M65.87 65.52L65.62 65.3M65.51 65.4L65.62 65.3M43.21 42.54L42.93 42.27M52.27 51.79L51.81 51.29M51.76 51.47L51.81 51.29M20.46 20.09L20.28 19.91M27.52 27.11L27.2 26.8M51.81 51.29L50.69 50.11M48.04 47.33L47.53 46.81M83.48 81.17L81.98 79.67M47.48 46.99L47.53 46.81M83.92 81.84L84.02 81.7M81.98 79.67L79.33 77.04M75.58 73.67L70.52 69.4M43.04 42.53L43.02 42.51M41.26 40.61L40.83 40.19M96.85 94.48L93.1 90.78M29.82 29.33L29.59 29.11M29.93 29.62L29.82 29.33M13.09 12.43L12.7 12.02M63.95 63.81L61.02 61.04M53.13 52.76L52.27 51.79M52.27 51.79L52.17 51.91M29.59 29.11L27.52 27.11M49.43 48.76L48.04 47.33M84.02 81.7L83.48 81.17M69.86 69.06L69.89 68.89M58.77 58.79L56.63 56.6M47.53 46.81L46.14 45.41M65.11 64.85L63.95 63.81M20.64 20.28L20.46 20.09M67.19 66.65L65.87 65.52M79.33 77.04L75.58 73.67M65.62 65.3L65.46 65.16M17.18 16.72L15.29 14.74M23.44 18.58L20.62 20.02M23.44 18.58L37.35 17.01M93.47 16.83L96.36 16.08M8.79 8.15L9 8.13M61.03 16.94L61.28 16.94M32.49 31.93L30.08 29.58M5.92 4.89L5.66 4.62M52.04 46.1L53.41 45.8M97.98 95.52L96.85 94.48M99.87 15.48L96.36 16.08M100.94 15.6L99.87 15.48M98.72 96.05L98.41 95.87M5.45 4.63L5.66 4.62M61 16.77L61.03 16.94M6.29 5.53L6.51 5.52M61.03 16.94L60.79 16.97M30.08 29.58L30.15 29.85M100.95 15.82L100.94 15.6M79.11 17.01L85.76 17M71.7 16.72L79.11 17.01M64.94 16.77L71.7 16.72M60.79 16.97L56.26 17.24M56.26 17.24L49.16 17.37M37.35 17.01L49.16 17.37M61.28 16.94L64.94 16.77M85.76 17L89.87 17.22M47.43 38.85L49.17 38.72M100.08 46.07L100.09 46.07M101.02 15.44L100.62 13.78M34.09 33.5L32.49 31.93M34.77 34.23L34.74 34.14M100.65 43.64L100.23 42.64M51.77 45.69L53.27 45.41M44.08 33.09L51.83 32.7M61.06 17.14L61.03 16.94M89.87 17.22L93.47 16.83M41.79 28.37L51.98 28.03M49.32 42.19L52.97 41.8M6.73 5.73L6.51 5.52M51.93 35.79L45.06 35.95M9.76 8.92L9.14 8.28M12.53 12.09L12.7 12.02M64.81 47.76L64.8 46.41M98.41 95.87L97.98 95.52M9.14 8.28L8.93 8.3M48.04 47.33L47.95 47.47M43.97 32.86L51.81 32.54M41.67 28.27L51.92 27.89M9 8.13L7.96 7.02M39.87 25.72L50.7 24.96M98.81 96.23L98.83 96.04M49.18 41.92L52.94 41.5M39.71 25.42L50.59 24.65M100.94 15.6L101.02 15.44M63.97 26.27L64.01 26.38M64.8 32.15L64.79 31.48M65.05 35.08L65.25 35.15M65.02 30.37L64.81 30.23M65.05 45.01L64.83 45.04M65.22 45.04L65.05 45.01M61.83 5.38L61.85 5.29M64.8 46.41L65.05 45.01M65.39 62.45L65.34 64.87M64.77 50.59L64.95 57.93M64.85 49.28L65.02 49.28M65.06 44.56L64.84 44.67M65.12 40.73L65.12 41.17M65.08 37.59L65.08 37.55M65.05 45.01L65.06 44.56M65.12 41.17L64.9 41.2M64.88 48.64L64.85 49.28M65.3 40.84L65.12 40.73M64.66 48.72L64.88 48.64M60.99 9.45L61.06 8.93M62.11 23.61L62.22 23.86M61.93 23.75L62.11 23.61M62.11 23.61L62.34 23.74M61.92 23.13L62.11 23.61M65.07 34.63L65.05 35.08M65.03 37.51L65.03 36.38M65.05 35.08L64.85 35.17M64.83 33.28L65.08 34.59M62.02 5.21L61.83 5.38M65.08 34.59L65.07 34.63M65.07 34.63L65.27 34.75M60.31 3.09L60.49 3.27M64.87 34.77L65.07 34.63M61.18 9.35L60.99 9.45M61.83 5.38L61.56 5.68M61.83 5.38L61.63 5.24M60.49 3.27L60.4 4.11M60.99 9.45L60.8 9.36M60.77 10.62L60.99 9.45M64.83 37.65L65.03 37.51M61.85 5.29L62.05 5.12M61.85 5.29L61.72 4.33M61.06 8.93L61.25 8.84M60.75 14.83L61 16.77M60.75 14.83L60.64 12.63M65.08 37.59L64.87 37.67M65.03 36.38L65.05 35.08M61.65 5.15L61.85 5.29M60.64 12.63L60.77 10.62M60.87 8.85L61.06 8.93M61.06 8.93L61.24 7.31M64.91 39.16L65.08 37.59M8.78 95.28L9.16 95.51M34.24 77.12L34.35 78.68M0.08 31.07L0 31.71M49.71 97.9L48.99 97.48M36.93 52.59L36.76 59.14M39.61 46.33L39.97 43.97M61.42 97.83L61.79 97.92M61.02 97.73L64.98 98.3M65.08 98.31L64.98 98.3M60.98 97.72L61.02 97.73M77.6 99.25L78.86 99.3M74.74 99.13L77.6 99.25M73.15 98.61L74.74 99.13M5.77 85.97L5.96 86.32M5.46 85.41L5.77 85.97M0.26 34.53L0 31.71M5 52.19L4.14 45.09M34 73.37L34.24 77.12M21.04 98.18L20.67 98.65M7.19 6.14L7.16 6.18M6.37 5.27L6.24 5.36M2.22 70.17L2.18 70.43M7.01 4.82L6.37 5.27M35.11 34.47L34.88 34.24M34.99 35.69L35.13 35.69M72.37 98.36L73.15 98.61M1.19 44.7L0.26 34.53M50.11 98.13L49.71 97.9M2.58 80.77L1.97 77.11M2.51 12.21L0.08 31.07M2.75 13.99L2.81 13.84M69.61 98.76L72.89 98.6M46.5 98.42L47.23 98.03M48.13 97.82L48.41 97.75M7.16 6.18L7.1 6.24M36.33 34.36L36.33 34.49M36.14 34.96L36.29 34.68M42.56 97.22L43.46 96.54M36.29 34.68L36.33 34.49M35.13 35.69L35.32 35.65M35.32 35.65L35.6 35.5M2.66 11.19L5.04 7.48M35.89 35.25L36.14 34.96M5.51 56.46L5 52.19M2.14 21.06L3.11 13.08M3.32 85.21L2.58 80.77M41.84 97.77L42.56 97.22M4.39 77.63L4.92 81.48M47.23 98.03L48.13 97.82M47.23 98.03L48.31 97.46M36.96 51.49L36.93 52.59M39.97 43.97L40.32 41.63M64.98 98.3L61.79 97.92M2.98 85.31L2.83 84.46M1.97 77.11L1.97 76.87M23.73 99.5L22.22 99.66M61.06 97.74L61.42 97.83M4.92 81.48L5.46 85.41M2.81 13.84L3.11 13.08M8.52 94.04L8.76 94.27M9.16 95.51L12.96 97.89M27.55 99.09L23.73 99.5M2.83 84.46L1.54 76.74M8.36 93.88L8.52 94.04M64.81 30.38L64.8 30.24M62.89 31.15L63.68 30.8M2.66 11.19L4.69 7.97M70.66 69.31L70.52 69.4M34.8 34.16L34.74 34.14M29.82 29.33L30.12 29.44M37.14 36.52L37.44 36.62M12.7 12.02L12.78 11.87M5.21 60.58L4.43 64.19M52.37 51.68L52.27 51.79M65.91 30.85L65.83 30.67M64.37 31.45L64.75 31.48M63.92 31.25L64.08 31.36M66.84 31.2L65.86 30.94M9.14 4L12.85 2.53M41.09 40.24L40.83 40.19M51.81 51.29L51.96 51.24M13.17 12.27L13.09 12.43M43.47 42.6L43.21 42.54M43.17 42.36L43.2 42.37M9 8.13L9.04 7.94M6.73 5.73L7.16 6.18M50.69 50.11L49.43 48.76M63.64 30.86L63.72 31.04M65.13 31.45L65.43 31.36M62.86 31.59L63.8 31.13M65.68 30.5L66.84 30.78M4.69 7.97L5.04 7.48M20.62 20.02L20.46 20.09M41.47 40.6L41.26 40.61M32.1 65.16L32.05 65.16M4.13 60.42L3.36 63.86M27.81 27.19L27.52 27.11M32.96 66.03L33.15 66.92M32.58 66.3L32.64 66.27M33.08 65.85L33.17 65.55M69.89 68.89L70.07 68.83M64.08 31.36L64.37 31.45M33.17 65.55L33.2 65.16M47.53 46.81L47.7 46.76M5.3 60.59L4.55 64.24M27.5 26.89L27.2 26.8M33.17 64.78L33.08 64.48M32.9 64.24L32.97 64.31M48.18 47.24L48.04 47.33M65.43 31.36L65.61 31.25M32.7 66.91L32.54 66.28M65.34 64.87L65.32 65.04M65.62 65.3L65.71 65.18M9.18 8.09L9.14 8.28M83.65 81.11L83.48 81.17M6.55 5.32L6.51 5.52M5.92 4.89L6.37 5.27M3.05 59.9L2.39 62.76M5.66 4.62L5.7 4.43M32.97 66.02L33.08 65.85M30.35 29.65L30.08 29.58M84.02 81.7L84.15 81.61M65.8 31.04L65.61 31.25M8.4 4.45L9.14 4M99.73 45.97L100.43 44.58M100.79 70.37L100.94 66.94M100.8 70.59L100.57 69.9M53.01 35.69L51.93 35.79M87.18 3.01L87.28 3.04M9.81 8.73L16.7 6.01M100.75 30.62L100.32 32.54M90.94 4.85L91.19 5.01M96.84 11.66L98.32 12.41M98.59 41.08L99.38 39.92M100.15 45.75L100.43 44.58M99.76 46.64L100.24 47.47M90.77 4.73L88.14 3.46M34.28 0L36.92 0.19M44.66 39.24L47.08 38.8M65.77 34.73L68.87 34.78M90.77 4.73L90.94 4.85M74.58 31.97L79.33 32.12M7.36 4.94L8.4 4.45M42.29 39.67L44.66 39.24M100.52 62.37L100.17 59.26M95.79 25.16L96.5 24.57M86.89 2.91L87.18 3.01M100.53 62.47L100.52 62.37M100.73 24.14L100.77 23.7M58.25 5.07L48.75 3.86M100.51 22.37L100.17 25.64M100.08 58.89L99.98 58.47M95.54 25.36L95.79 25.16M100.17 59.26L100.08 58.89M95.72 36.93L97.68 35.54M100.33 28.49L100.73 24.14M100.27 17.28L100.95 15.82M36.92 0.19L47.45 0.95M79.74 1.09L86.2 2.45M95.82 8.63L95.51 8.23M47.43 3.79L48.24 3.79M99.38 39.92L99.68 39.47M100.63 55.17L100.18 58.69M6.55 5.32L7.36 4.94M95.96 11.21L96.84 11.66M100.24 47.47L100.41 47.76M86.2 2.45L86.93 2.6M58.97 35.15L53.01 35.69M99.96 58.44L99.96 58.4M84.76 2.46L80.43 1.53M86.89 2.91L84.76 2.46M81.69 4.03L81.12 3.94M35.24 3.78L47.43 3.79M101.57 75.43L101.38 72.3M101.64 76.49L101.57 75.43M79.33 32.12L80.64 32.16M100.52 62.37L99.96 58.44M65.28 34.73L65.77 34.73M73.42 1.97L74.41 1.91M88.14 3.46L87.28 3.04M48.75 3.86L48.24 3.79M99.52 18.88L100.27 17.28M17.39 2.08L13.53 2.55M63.46 25.98L63.95 26.26M100.08 46.07L100.15 45.75M18.07 5.47L20.08 5.28M100.11 46.8L100.11 46.8M100.43 44.58L100.64 44.15M43.04 42.54L43.04 42.55M39.71 93.28L39.4 93.9M39.63 64.41L39.59 59.1M39.63 64.97L39.63 64.41M57.8 98.35L60.41 97.76M36.76 59.14L36.68 62.87M37.08 70.45L37.59 74.07M29.32 99.48L30.52 99.36M4.17 60.03L4.26 60.17M36.67 65.96L36.64 65.5M25.67 99.86L29.32 99.48M45.67 98.2L44.72 97.96M36.83 68.7L37.08 70.45M19.99 99.44L20.67 98.65M39.73 52.03L39.66 48.53M46.5 98.42L45.67 98.2M48.64 97.76L48.41 97.76M39.64 65.35L39.5 65.17M34.8 99.02L40.09 98.8M85.59 99.07L85.54 99.06M36.68 62.87L36.63 65.13M39.4 93.9L39.24 94.22M36.83 68.7L36.67 65.96M17.95 101.81L19.99 99.44M39.66 48.53L39.61 46.33M88.59 5.7L93.1 8.68M57.8 98.35L57.68 98.38M39.75 68.76L39.66 65.85M39.5 65.17L39.5 65.16M97.31 21.42L97.81 20.85M4.26 60.17L4.32 60.24M101.38 72.3L100.8 70.59M39.66 65.85L39.64 65.35M60.49 97.77L57.8 98.35M49.15 97.78L48.64 97.76M15.29 14.74L13.09 12.43M12.7 12.02L9.76 8.92M7.21 6.23L7.96 7.02M35.88 35.26L37.14 36.52M34.74 34.14L34.09 33.5M67.19 66.65L69.89 68.89M37.14 36.52L40.83 40.19M101.12 28.97L100.84 30.25M84.21 4.43L81.69 4.03M12.62 96.1L12.53 95.91M1.79 70.24L4.16 59.86M98.64 12.6L99.03 12.83M101.6 83.33L102 84.71M4.16 59.86L4.17 60.03M99.12 19.35L99.26 19.19M93.1 90.78L84.02 81.7M101.59 83.3L101.6 83.33M33.71 61.65L32.68 64.1M100.63 55.17L100.68 54.93M35.65 65.12L33.2 65.13M96.54 11.17L96.28 10.85M87.46 4.95L84.21 4.43M80.06 1.55L80.43 1.53M74.41 1.91L80.06 1.55M60.24 4.1L60.13 4.1M60.92 4.14L60.4 4.11M60.4 4.11L60.24 4.1M100.11 46.8L100.12 46.86M98.34 11.93L95.84 8.66M63.95 26.26L63.97 26.27M13.59 98.07L12.62 96.1M100.72 20.42L100.71 20.43M60.13 4.1L58.78 4.02M33.71 0.07L17.39 2.08M34.28 0L33.71 0.07M100.71 20.43L100.51 22.37M33.03 4.02L35.39 3.79M37.96 33.68L36.11 34.02M17.94 60.33L24.24 61.86M34.33 37.43L34.65 35.47M73.42 1.97L73.31 1.99M96.28 10.85L95.78 10.23M95.84 8.66L95.82 8.63M20.08 5.28L33.03 4.02M17.97 5.51L18.07 5.47M16.7 6.01L17.97 5.51M23.06 95.61L22.86 95.86M34.8 99.02L31.46 99.75M34.12 61.65L33.03 64.41M99.03 12.83L100.62 13.78M63.97 26.27L64.16 26.38M6.78 6.63L7 6.25M73.31 1.99L69.72 2.66M34.47 37.55L34.74 35.63M46.14 45.41L43.21 42.54M61.52 4.18L60.92 4.14M97.81 20.85L99.12 19.35M7.34 6L8.29 5.64M4.16 59.62L4.16 59.86M38.08 33.82L36.27 34.11M22.86 95.86L21.4 97.71M100.97 66.34L100.59 63.03M6.66 6.85L6.78 6.63M100.24 47.47L100.12 46.86M43.17 42.36L42.93 42.27M99.99 57.84L100.63 55.17M8.29 5.64L8.52 5.55M100.84 30.25L100.75 30.62M64.63 30.4L63.91 30.63M7.25 6.03L7.34 6M33.03 64.41L32.97 64.31M6.04 7.94L6.66 6.85M7.24 6.1L7.25 6.03M43.02 42.51L42.93 42.27M87.46 4.95L87.96 5.28M0.76 32.44L2.07 21.66M49.23 97.8L49.71 97.9M2.09 73.3L2.18 70.43M63.72 31.04L63.8 31.13M33.08 64.48L33.03 64.41M4.15 59.45L4.16 59.62M63.91 30.63L63.47 30.76M100.23 42.64L100.64 44.15M99.26 19.19L99.52 18.88M100.97 66.41L100.97 66.34M4.11 57.07L4.14 58.81M5.73 6.41L6.29 5.53M69.72 2.66L65.07 3.54M98.83 96.04L98.72 96.05M34.88 34.24L34.8 34.16M98.93 96.03L98.83 96.04M7.1 6.24L7 6.25M7.21 6.23L7.1 6.24M7.21 6.23L7.24 6.1M5.04 7.48L5.73 6.41M100.15 42.36L100.23 42.64M14.01 98.93L13.78 98.47M35.88 35.26L35.89 35.25M87.96 5.28L88.59 5.7M1.97 76.87L2.09 73.3M4.14 58.81L4.15 59.45M49.14 97.78L49.15 97.78M63.8 31.13L63.92 31.25M63.68 30.8L63.64 30.86M63.71 30.75L63.68 30.8M57.46 98.43L57.68 98.38M13.78 98.47L13.59 98.07M35.6 35.5L35.88 35.26M49.2 97.79L49.23 97.8M87.17 99.5L85.69 99.1M65.65 30.46L65.68 30.5M65.8 31.04L65.86 30.94M32.46 66.24L32.54 66.28M100.94 66.94L100.97 66.41M85.69 99.1L85.59 99.07M68.92 98.79L68.99 98.79M65.68 30.5L65.83 30.67M64.75 31.48L64.79 31.48M32.96 66.03L32.97 66.02M33.2 65.16L33.2 65.13M2.07 21.66L2.14 21.06M65.6 98.38L68.92 98.79M3.36 63.86L2.38 69.3M2.38 69.3L2.22 70.17M21.4 97.71L21.04 98.18M68.99 98.79L69.61 98.76M32.84 66.14L32.96 66.03M12.53 95.91L12.33 95.51M65.86 30.94L65.91 30.85M32.54 66.28L32.58 66.3M64.79 31.48L65.13 31.45M33.2 65.13L33.17 64.78M65.65 30.46L66.4 30.57M65.22 37.64L65.27 37.66M64.8 30.24L64.81 30.23M61.6 4.24L61.52 4.18M64.63 30.4L64.8 30.24M100.84 24.92L101.12 28.97M61.72 4.33L61.6 4.24M65.03 37.51L65.08 37.55M95.78 10.23L95.32 9.66M65.02 30.37L65.65 30.46M99.12 19.41L98.99 19.81M100.82 24.73L100.73 24.14M58.99 37.93L64.42 37.67M62.78 34.88L58.97 35.15M64.88 34.73L62.78 34.88M64.42 37.67L64.83 37.65M65.08 37.55L65.22 37.64M65.22 37.64L65.68 37.64M70.86 34.98L68.87 34.78M75.03 35.4L70.86 34.98M97.68 35.54L99.19 34.47M65.08 37.59L65.22 37.64M65.68 37.64L68.87 37.62M100.83 24.77L100.82 24.73M100.92 32.12L100.91 31.99M100.1 46.64L100.08 46.07M47.08 38.8L49.17 38.72M101.54 83.12L101.59 83.3M98.99 19.81L98.1 22.55M100.11 46.8L100.1 46.64M49.17 38.72L52.42 38.6M98.32 12.41L98.64 12.6M100.09 46.07L100.11 46.72M100.91 31.99L100.75 30.62M100.83 24.77L100.84 24.92M81.73 45.49L74.93 45.64M90.04 39.4L82.05 40.74M97.68 35.54L97.43 35.88M97.43 35.88L94.87 37.56M64.83 45.04L59.54 45.24M95.72 36.93L94.96 37.39M81.93 37.26L75.2 37.78M65.52 4.93L74.17 3.99M43.22 42.37L44.93 42.46M65.27 34.75L65.77 34.73M70.86 34.98L68.91 34.94M81.93 37.26L89.98 35.63M75.2 37.78L68.87 37.62M90.77 4.7L90.94 4.85M98.98 30.91L95.43 33.56M45.18 42.7L43.47 42.6M100.83 24.55L100.82 24.73M89.98 35.63L95.43 33.56M81.52 3.82L84.21 4.43M19.27 10.23L13.17 12.27M81.69 4.03L81.53 4M64.87 37.67L64.42 37.67M90.27 9.8L85.75 8.85M95.96 11.21L90.27 9.8M92.1 24.4L95.42 22.96M100.84 30.27L100.84 30.25M86.2 2.45L86.07 2.39M96.54 11.17L96.84 11.66M49.15 46.73L48.18 47.24M95.78 10.23L94.88 8.93M73.93 68.51L70.66 69.31M83.06 67.67L76.56 67.79M99.16 68.35L100.44 69.18M90.07 39.1L94.96 37.39M69.72 2.66L72.68 2.04M100.32 32.54L99.19 34.47M64.85 35.17L58.95 35.43M62.78 34.88L64.87 34.77M68.67 30.92L66.84 30.78M100.92 31.95L100.84 30.27M12.78 11.87L19.18 9.69M32.53 29.36L41.79 28.37M81.5 35.55L75.03 35.4M74.62 32.15L68.69 31.29M98.98 30.91L100.33 28.49M94.87 37.56L90.04 39.4M87.96 5.28L88.13 5.32M99.76 46.64L98.68 46.74M95.84 8.66L95.94 8.74M100.84 24.92L101.06 22.28M43.22 42.37L43.2 42.37M53.13 51.04L52.37 51.68M99.12 19.35L99.12 19.41M74.18 3.82L65.46 4.82M61.24 32.31L62.86 31.59M98.1 22.55L96.5 24.57M41.67 28.27L32.35 29.17M98.99 19.81L99 19.92M95.32 9.66L91.85 7.49M47.7 46.76L48.69 46.26M88.13 5.32L91.81 7.38M70.07 68.83L73.64 67.94M37.44 36.62L39.2 36.41M30.12 29.44L32.35 29.17M101.59 83.3L101.52 82.37M82.05 40.74L75.26 41.12M85.87 8.37L90.2 9.43M94.26 10.31L90.2 9.43M101.52 82.37L100.7 81.65M99.57 81.15L97.29 80.38M97.37 21.61L97.81 20.85M95.96 11.21L94.26 10.31M95.42 22.96L97.31 21.42M62.34 23.74L65.85 23.75M72.7 24.86L79.95 25.44M99.65 81.88L100.73 82.38M97.41 81.1L99.65 81.88M72.83 25.26L65.94 24.05M89.95 44.02L94.72 42.96M100.7 81.65L99.57 81.15M100.92 32.12L100.81 37.69M79.87 8.34L85.87 8.37M97.29 80.38L93.38 79.76M93.51 80.46L97.41 81.1M94.66 43.38L89.91 44.53M86.58 25.42L92.1 24.4M101.6 83.33L101.95 80.87M89.96 80.49L93.51 80.46M65.85 23.75L72.7 24.86M89.67 79.84L85.82 80.44M86.27 80.99L89.96 80.49M92.32 24.73L86.71 25.84M85.82 80.44L83.65 81.11M84.15 81.61L86.27 80.99M95.79 25.16L95.49 25.49M95.32 9.66L95.21 9.55M80.05 25.86L72.83 25.26M89.91 44.53L81.73 45.49M49.32 42.19L45.18 42.7M69 40.63L65.3 40.84M81.81 45.02L89.95 44.02M94.73 8.06L96.28 10.85M100.73 82.38L101.54 83.12M95.67 23.18L92.32 24.73M56.75 8.73L48.63 8.39M86.71 25.84L80.05 25.86M57.37 24.04L61.93 23.75M93.38 79.76L89.67 79.84M101.06 22.28L100.71 20.43M82.07 40.34L90.07 39.1M97.37 21.61L95.67 23.18M74.99 45.13L81.81 45.02M65.25 35.15L68.91 34.94M3.05 59.9L3.24 59.71M27.83 62.96L27.67 63.15M9.32 60.04L9.42 60.23M27.53 63.07L27.11 62.67M65.16 65.07L62.83 65.41M36.54 65.32L36.49 65.33M5.49 60.41L5.3 60.59M42.16 65.22L41.15 65.04M25.01 62.11L25.15 62.33M42.71 65.19L42.82 65M36.67 65.5L36.54 65.32M44.62 65.21L45.79 65.19M62.83 65.41L58.61 65.22M46.47 65.18L45.79 65.19M46.58 65.36L46.47 65.18M27.68 63.27L27.53 63.07M50.28 65.12L49.45 65.07M37.01 65.29L38.34 65.2M31.59 64.75L31.86 65.02M68.89 74.76L69.39 72.45M60.92 74.84L62.56 70.12M39.58 65.17L41.15 65.04M5.21 60.58L5.4 60.41M27.67 63.15L27.81 63.35M40.88 40.45L40.42 41.75M41.24 40.82L40.76 42.06M38.34 65.2L39.5 65.16M4.26 60.17L4.13 60.42M7.27 60.39L8.87 60.25M5.34 60.21L5.49 60.41M5.62 60.42L7.27 60.39M29.8 63.88L27.67 63.15M5.4 60.41L5.25 60.21M27.53 63.07L27.7 62.89M44.62 65.21L43.15 65.21M43.15 65.21L43.17 65.39M42.16 65.22L42.71 65.19M50.87 65.12L52.06 65.1M33.71 43.1L34.33 37.43M26.54 38.63L27.23 29.57M8.87 60.25L8.77 60.06M26.24 38.46L26.92 29.29M9.42 60.23L9.31 60.42M39.66 65.85L39.67 65.35M9.42 60.23L10.81 60.14M39.66 64.97L39.58 65.17M17.54 60.25L15.43 60.04M50.85 64.91L50.87 65.12M4.16 59.62L3.24 59.71M50.38 65.3L50.28 65.12M27.11 62.67L25.01 62.11M39.5 65.16L39.63 64.97M29.8 63.88L31.59 64.75M25.15 61.94L25.01 62.11M37.09 65.09L37.01 65.29M4.32 60.24L5.4 60.41M46.91 64.98L46.9 65.18M8.76 60.44L8.87 60.25M5.62 60.42L5.49 60.41M13.01 60.07L15.43 60.04M10.81 60.14L13.01 60.07M36.54 65.32L36.67 65.13M36.49 65.33L35.65 65.12M3.24 59.71L3.06 59.52M47.07 51.57L47.51 48.5M45.34 92.77L46.39 87.89M23.21 95.6L22.86 95.86M8.86 46.18L8.77 55.85M62.56 70.12L65.51 65.4M26.25 89.88L27.35 84.06M60.68 97.61L59.83 97.01M24.77 93.52L23.06 95.61M25 93.77L23.21 95.6M9.74 88.56L8.87 83.31M24.89 61.86L25.15 57.23M60.41 97.76L60.68 97.61M46.43 59.62L46.56 64.99M42.83 65.38L42.78 68.87M26.61 90.14L25 93.77M50.64 87.7L49.82 92.12M43.4 44.48L43.05 48.65M46.39 87.89L47.36 80.06M43.4 74.39L43.07 80.29M11.22 93.27L12.33 95.51M24.98 65.44L24.88 62.24M26.38 70.86L24.98 65.44M27.18 76.99L26.38 70.86M25.3 65.51L26.8 70.91M9.74 88.56L11.22 93.27M46.9 87.84L45.77 92.69M8.87 83.31L8.81 76.54M50.13 87.75L50.94 79.49M69.94 80.99L69.87 88.69M60.92 74.84L59.58 80.09M46.94 65.36L47.25 68.61M58.99 95.74L59.83 97.01M48.41 97.75L49.14 97.78M43 59.19L43.17 65.01M51.25 67.94L50.89 65.29M48.4 96.58L48.76 95.34M50.39 54.05L51.22 52.35M27.3 27.09L26.92 29.29M48.64 97.76L49.12 97.79M50.94 79.49L51.26 73.63M58.17 87.65L58.24 92.07M72.89 98.6L73.15 98.61M61.42 97.83L61.22 97.93M58.17 87.65L59.58 80.09M51.22 52.35L51.76 51.47M69.22 80.96L68.89 74.76M27.61 27.39L27.23 29.57M50.34 64.92L50.02 59.74M65.6 98.38L65.08 98.31M51.56 79.44L50.64 87.7M42.56 97.22L42.6 97.22M51.63 52.79L50.97 54.12M47.82 80L46.9 87.84M47.36 80.06L47.39 74.22M31.46 99.75L29.32 99.48M48.76 95.34L49.32 92.15M41.47 88.15L42.67 80.31M70.01 72.65L69.54 75.07M61.06 97.74L61.02 97.73M58.99 95.74L58.67 94.55M58.67 94.55L58.24 92.07M69.01 98.79L68.99 98.79M60.68 97.61L60.98 97.72M52.13 98.51L57.46 98.43M47.95 47.47L47.51 48.5M71.66 98.24L70.75 96.91M84.01 98.31L84.77 99.05M8.35 90.54L10.92 94.26M39.63 64.41L39.66 64.97M70.45 69.55L70.01 72.65M37.04 38.56L37.25 36.81M25.39 96.3L25.44 96.26M84.76 98.33L84.23 97.29M83.5 97.21L84.01 98.31M29.7 31.8L29.14 40.53M2.23 70.01L2.38 69.3M12.92 12.49L10.3 18.08M27.64 77.08L27.81 84.24M84.23 97.29L83.43 95.09M27.81 84.24L26.61 90.14M12.62 96.1L8.76 94.27M83.26 99.5L85.69 99.1M83.43 95.09L82.78 91.2M82.07 91.07L82.7 94.98M26.8 70.91L27.64 77.08M82.7 94.98L83.5 97.21M82.76 83.5L82.15 87.36M69.39 72.45L69.86 69.06M84.77 99.05L85.59 99.07M43.04 42.54L43.04 42.53M39.71 93.28L41.47 88.15M43.15 44.23L43.04 42.55M39.75 68.76L40.03 74.39M8.36 93.97L5.11 90M69.54 75.07L69.94 80.99M46.79 59.64L46.91 64.98M12.53 95.91L12.21 95.75M25.39 96.3L27.76 94.4M43.27 42.8L43.4 44.48M47.9 74.18L47.82 80M49.09 96.48L48.99 97.48M43.07 80.29L41.77 88.11M41.77 88.11L39.88 93.17M10.8 94.16L10.92 94.26M36.72 97.9L34.8 99.02M39.88 93.17L39.4 93.9M40.03 74.39L39.58 80.25M29.7 31.8L29.93 29.62M85.54 99.06L84.76 98.33M47.04 48.03L47.48 46.99M29.24 40.65L29.9 31.97M2.75 13.99L2.07 21.66M2.77 13.92L2.75 13.99M9.76 17.93L12.53 12.09M33.1 68.49L32.7 66.91M8.22 90.51L5.84 86.36M37 68.77L37.09 65.47M82.15 87.36L82.07 91.07M83.43 81.33L82.76 83.5M82.81 87.65L83.31 83.95M83.31 83.95L83.92 81.84M2.81 13.84L2.77 13.92M8.52 94.04L8.36 93.97M10.92 94.26L12.21 95.75M24.57 96.61L21.4 97.71M82.78 91.2L82.81 87.65M25.39 96.3L24.57 96.61M52.17 51.91L51.63 52.79M5.84 86.36L5.77 85.97M37.05 59.14L37.09 65.09M27.89 94.4L25.44 96.26M9.35 70.06L9.37 76.44M27.35 84.06L27.18 76.99M2.22 70.17L2.23 70.01M3.29 55.63L1.19 44.7M0.83 44.49L2.54 56.85M0.26 34.53L0.83 44.49M30 90.61L27.89 94.4M29.79 90.6L30.98 84.71M4.15 59.45L3.29 55.63M8.81 76.54L8.83 70.13M4.29 78.13L3.79 70.91M36.67 65.96L36.67 65.5M2.8 84.37L2.83 84.46M27.76 94.4L29.79 90.6M36.67 65.13L36.68 62.87M37.92 88.17L39.58 80.25M33.49 68.53L34.19 73.46M30.52 99.36L33.03 97.96M4.92 81.48L4.29 78.13M1.94 76.65L2.09 73.3M3.96 70.91L4.39 77.63M9.37 76.44L9.37 83.14M35.78 94.1L37.92 88.17M37 68.77L37.08 70.45M36.72 97.9L39.24 94.22M9.37 95.77L9.16 95.51M9.37 83.14L10.11 88.58M10.11 88.58L12.33 95.51M37.59 74.07L37.84 79.82M4.14 58.81L3.71 56.14M24.77 93.52L26.25 89.88M35.78 94.1L33.03 97.96"/></svg>
